<mxfile host="app.diagrams.net" modified="2022-08-07T16:15:19.560Z" agent="5.0 (Macintosh; Intel Mac OS X 10_15_7) AppleWebKit/537.36 (KHTML, like Gecko) Chrome/103.0.0.0 Safari/537.36" etag="SI7r-MUqY9MXLEb5gIj-" version="20.2.3" type="github" pages="9">
  <diagram id="8b9356f4-c5a1-f736-3c46-6402eabdcbc7" name="FlowChart">
    <mxGraphModel dx="2195" dy="351" grid="1" gridSize="10" guides="1" tooltips="1" connect="1" arrows="1" fold="1" page="1" pageScale="1" pageWidth="827" pageHeight="1169" background="#ffffff" math="0" shadow="0">
      <root>
        <mxCell id="0" />
        <mxCell id="1" parent="0" />
        <mxCell id="vJ3IjZ5agWpm-erSKB4o-154" value="" style="rounded=0;whiteSpace=wrap;html=1;absoluteArcSize=1;arcSize=14;strokeWidth=2;fillColor=#ffe6cc;strokeColor=#d79b00;" parent="1" vertex="1">
          <mxGeometry x="4142" y="1.25" width="194" height="42" as="geometry" />
        </mxCell>
        <mxCell id="vJ3IjZ5agWpm-erSKB4o-147" value="" style="rounded=0;whiteSpace=wrap;html=1;absoluteArcSize=1;arcSize=14;strokeWidth=2;fillColor=#ffe6cc;strokeColor=#d79b00;" parent="1" vertex="1">
          <mxGeometry x="4144" y="68.75" width="194" height="42" as="geometry" />
        </mxCell>
        <mxCell id="vJ3IjZ5agWpm-erSKB4o-153" value="" style="rounded=0;whiteSpace=wrap;html=1;absoluteArcSize=1;arcSize=14;strokeWidth=2;fillColor=#ffe6cc;strokeColor=#d79b00;" parent="1" vertex="1">
          <mxGeometry x="3502" y="2" width="194" height="42" as="geometry" />
        </mxCell>
        <mxCell id="vJ3IjZ5agWpm-erSKB4o-146" value="" style="rounded=0;whiteSpace=wrap;html=1;absoluteArcSize=1;arcSize=14;strokeWidth=2;fillColor=#ffe6cc;strokeColor=#d79b00;" parent="1" vertex="1">
          <mxGeometry x="3500" y="68.75" width="194" height="42" as="geometry" />
        </mxCell>
        <mxCell id="vJ3IjZ5agWpm-erSKB4o-152" value="" style="rounded=0;whiteSpace=wrap;html=1;absoluteArcSize=1;arcSize=14;strokeWidth=2;fillColor=#ffe6cc;strokeColor=#d79b00;" parent="1" vertex="1">
          <mxGeometry x="2858" y="2" width="194" height="42" as="geometry" />
        </mxCell>
        <mxCell id="vJ3IjZ5agWpm-erSKB4o-145" value="" style="rounded=0;whiteSpace=wrap;html=1;absoluteArcSize=1;arcSize=14;strokeWidth=2;fillColor=#ffe6cc;strokeColor=#d79b00;" parent="1" vertex="1">
          <mxGeometry x="2858" y="68" width="194" height="42" as="geometry" />
        </mxCell>
        <mxCell id="vJ3IjZ5agWpm-erSKB4o-148" value="" style="rounded=0;whiteSpace=wrap;html=1;absoluteArcSize=1;arcSize=14;strokeWidth=2;fillColor=#ffe6cc;strokeColor=#d79b00;" parent="1" vertex="1">
          <mxGeometry x="2218" y="2" width="194" height="42" as="geometry" />
        </mxCell>
        <mxCell id="vJ3IjZ5agWpm-erSKB4o-144" value="" style="rounded=0;whiteSpace=wrap;html=1;absoluteArcSize=1;arcSize=14;strokeWidth=2;fillColor=#ffe6cc;strokeColor=#d79b00;" parent="1" vertex="1">
          <mxGeometry x="2216" y="70" width="194" height="42" as="geometry" />
        </mxCell>
        <mxCell id="vJ3IjZ5agWpm-erSKB4o-143" value="" style="rounded=0;whiteSpace=wrap;html=1;absoluteArcSize=1;arcSize=14;strokeWidth=2;fillColor=#ffe6cc;strokeColor=#d79b00;" parent="1" vertex="1">
          <mxGeometry x="1574" y="68.75" width="194" height="42" as="geometry" />
        </mxCell>
        <mxCell id="vJ3IjZ5agWpm-erSKB4o-149" value="" style="rounded=0;whiteSpace=wrap;html=1;absoluteArcSize=1;arcSize=14;strokeWidth=2;fillColor=#ffe6cc;strokeColor=#d79b00;" parent="1" vertex="1">
          <mxGeometry x="1574" y="2" width="194" height="42" as="geometry" />
        </mxCell>
        <mxCell id="vJ3IjZ5agWpm-erSKB4o-150" value="" style="rounded=0;whiteSpace=wrap;html=1;absoluteArcSize=1;arcSize=14;strokeWidth=2;fillColor=#ffe6cc;strokeColor=#d79b00;" parent="1" vertex="1">
          <mxGeometry x="934" y="2" width="194" height="42" as="geometry" />
        </mxCell>
        <mxCell id="vJ3IjZ5agWpm-erSKB4o-142" value="" style="rounded=0;whiteSpace=wrap;html=1;absoluteArcSize=1;arcSize=14;strokeWidth=2;fillColor=#ffe6cc;strokeColor=#d79b00;" parent="1" vertex="1">
          <mxGeometry x="934" y="68.75" width="194" height="42" as="geometry" />
        </mxCell>
        <mxCell id="vJ3IjZ5agWpm-erSKB4o-151" value="" style="rounded=0;whiteSpace=wrap;html=1;absoluteArcSize=1;arcSize=14;strokeWidth=2;fillColor=#ffe6cc;strokeColor=#d79b00;" parent="1" vertex="1">
          <mxGeometry x="292" y="1.25" width="194" height="42" as="geometry" />
        </mxCell>
        <mxCell id="vJ3IjZ5agWpm-erSKB4o-141" value="" style="rounded=0;whiteSpace=wrap;html=1;absoluteArcSize=1;arcSize=14;strokeWidth=2;fillColor=#ffe6cc;strokeColor=#d79b00;" parent="1" vertex="1">
          <mxGeometry x="290" y="70" width="194" height="42" as="geometry" />
        </mxCell>
        <mxCell id="oexPa3vgfGNYkKnhhj2G-73" value="" style="rounded=0;whiteSpace=wrap;html=1;absoluteArcSize=1;arcSize=14;strokeWidth=3;aspect=fixed;fillColor=#ffe6cc;strokeColor=#d79b00;" parent="1" vertex="1">
          <mxGeometry x="-392.5" y="444.6600000000001" width="42" height="42" as="geometry" />
        </mxCell>
        <mxCell id="oexPa3vgfGNYkKnhhj2G-74" value="" style="rounded=0;whiteSpace=wrap;html=1;absoluteArcSize=1;arcSize=14;strokeWidth=3;aspect=fixed;fillColor=#ffe6cc;strokeColor=#d79b00;" parent="1" vertex="1">
          <mxGeometry x="-476.5" y="444.6600000000001" width="42" height="42" as="geometry" />
        </mxCell>
        <mxCell id="5joyLFY6nevB4MXao6UH-59" style="edgeStyle=orthogonalEdgeStyle;rounded=0;orthogonalLoop=1;jettySize=auto;html=1;exitX=0.423;exitY=1.032;exitDx=0;exitDy=0;entryX=0.422;entryY=-0.014;entryDx=0;entryDy=0;entryPerimeter=0;exitPerimeter=0;strokeWidth=3;endArrow=block;endFill=0;" parent="1" source="5joyLFY6nevB4MXao6UH-39" target="5joyLFY6nevB4MXao6UH-50" edge="1">
          <mxGeometry relative="1" as="geometry" />
        </mxCell>
        <mxCell id="5joyLFY6nevB4MXao6UH-39" value="" style="verticalLabelPosition=bottom;verticalAlign=top;html=1;strokeWidth=3;shape=process;whiteSpace=wrap;rounded=0;size=0.14;arcSize=6;shadow=0;glass=0;comic=0;" parent="1" vertex="1">
          <mxGeometry x="-513" y="546.66" width="175" height="40" as="geometry" />
        </mxCell>
        <mxCell id="4" value="&lt;font face=&quot;AsobiMemogaki&quot; style=&quot;font-size: 25px;&quot;&gt;&lt;b&gt;端子&lt;/b&gt;&lt;/font&gt;" style="strokeWidth=3;html=1;shape=mxgraph.flowchart.terminator;whiteSpace=wrap;rounded=0;shadow=0;glass=0;comic=0;aspect=fixed;" parent="1" vertex="1">
          <mxGeometry x="-1020" y="90" width="180" height="60" as="geometry" />
        </mxCell>
        <mxCell id="5" value="&lt;font face=&quot;AsobiMemogaki&quot; style=&quot;font-size: 25px;&quot;&gt;&lt;b&gt;処理&lt;/b&gt;&lt;/font&gt;" style="strokeWidth=3;html=1;shape=mxgraph.flowchart.process;whiteSpace=wrap;rounded=0;shadow=0;glass=0;comic=0;" parent="1" vertex="1">
          <mxGeometry x="-1020" y="230" width="180" height="40" as="geometry" />
        </mxCell>
        <mxCell id="9" value="&lt;font face=&quot;AsobiMemogaki&quot; style=&quot;font-size: 25px;&quot;&gt;&lt;b&gt;判断&lt;/b&gt;&lt;/font&gt;" style="strokeWidth=3;html=1;shape=mxgraph.flowchart.decision;rounded=0;shadow=0;glass=0;comic=0;aspect=fixed;labelBorderColor=none;labelBackgroundColor=none;whiteSpace=wrap;" parent="1" vertex="1">
          <mxGeometry x="-1020" y="160" width="180" height="60" as="geometry" />
        </mxCell>
        <mxCell id="11" value="&lt;font face=&quot;AsobiMemogaki&quot; style=&quot;font-size: 25px;&quot;&gt;&lt;b&gt;ループ&lt;/b&gt;&lt;/font&gt;" style="strokeWidth=3;html=1;shape=mxgraph.flowchart.loop_limit;whiteSpace=wrap;rounded=0;shadow=0;glass=0;comic=0;direction=west;aspect=fixed;" parent="1" vertex="1">
          <mxGeometry x="-1010" y="330" width="180" height="40" as="geometry" />
        </mxCell>
        <mxCell id="12" value="&lt;font face=&quot;AsobiMemogaki&quot; style=&quot;font-size: 25px;&quot;&gt;&lt;b&gt;ループ&lt;/b&gt;&lt;/font&gt;" style="strokeWidth=3;html=1;shape=mxgraph.flowchart.loop_limit;whiteSpace=wrap;rounded=0;shadow=0;glass=0;comic=0;aspect=fixed;" parent="1" vertex="1">
          <mxGeometry x="-1010" y="280" width="180" height="40" as="geometry" />
        </mxCell>
        <mxCell id="22" value="" style="verticalLabelPosition=bottom;verticalAlign=top;html=1;strokeWidth=3;shape=process;whiteSpace=wrap;rounded=0;size=0.14;arcSize=6;shadow=0;glass=0;comic=0;" parent="1" vertex="1">
          <mxGeometry x="-1030" y="530" width="180" height="40" as="geometry" />
        </mxCell>
        <mxCell id="23" value="&lt;font face=&quot;AsobiMemogaki&quot; style=&quot;font-size: 25px;&quot;&gt;&lt;b&gt;定義済処理&lt;/b&gt;&lt;/font&gt;" style="text;html=1;resizable=0;points=[];autosize=1;align=left;verticalAlign=top;spacingTop=-4;rounded=0;" parent="1" vertex="1">
          <mxGeometry x="-1000" y="533" width="140" height="20" as="geometry" />
        </mxCell>
        <mxCell id="26" value="&lt;font face=&quot;AsobiMemogaki&quot; style=&quot;font-size: 25px;&quot;&gt;&lt;b&gt;表示&lt;/b&gt;&lt;/font&gt;" style="shape=display;whiteSpace=wrap;html=1;rounded=0;shadow=0;glass=0;comic=0;strokeWidth=3;" parent="1" vertex="1">
          <mxGeometry x="-1030" y="580" width="180" height="40" as="geometry" />
        </mxCell>
        <mxCell id="27" value="" style="verticalLabelPosition=bottom;verticalAlign=top;html=1;strokeWidth=3;shape=hexagon;perimeter=hexagonPerimeter2;arcSize=6;size=0.11666666666666667;rounded=0;shadow=0;glass=0;comic=0;aspect=fixed;" parent="1" vertex="1">
          <mxGeometry x="-1020" y="380" width="180" height="40" as="geometry" />
        </mxCell>
        <mxCell id="28" value="&lt;font face=&quot;AsobiMemogaki&quot; style=&quot;font-size: 25px;&quot;&gt;&lt;b&gt;準備&lt;/b&gt;&lt;/font&gt;" style="text;html=1;resizable=0;points=[];autosize=1;align=left;verticalAlign=top;spacingTop=-4;rounded=0;" parent="1" vertex="1">
          <mxGeometry x="-957.5" y="380" width="70" height="20" as="geometry" />
        </mxCell>
        <mxCell id="29" value="" style="verticalLabelPosition=bottom;verticalAlign=top;html=1;strokeWidth=3;shape=parallelogram;perimeter=parallelogramPerimeter;whiteSpace=wrap;rounded=0;arcSize=12;size=0.23;shadow=0;glass=0;comic=0;aspect=fixed;" parent="1" vertex="1">
          <mxGeometry x="-1030" y="430" width="180" height="40" as="geometry" />
        </mxCell>
        <mxCell id="30" value="&lt;font face=&quot;AsobiMemogaki&quot; style=&quot;font-size: 25px;&quot;&gt;&lt;b&gt;入出力&lt;/b&gt;&lt;/font&gt;" style="text;html=1;resizable=0;points=[];autosize=1;align=left;verticalAlign=top;spacingTop=-4;rounded=0;" parent="1" vertex="1">
          <mxGeometry x="-985" y="440" width="90" height="20" as="geometry" />
        </mxCell>
        <mxCell id="31" value="&lt;font face=&quot;AsobiMemogaki&quot; style=&quot;font-size: 25px;&quot;&gt;&lt;b&gt;書類&lt;/b&gt;&lt;/font&gt;" style="strokeWidth=3;html=1;shape=mxgraph.flowchart.document2;whiteSpace=wrap;size=0.25;rounded=0;shadow=0;glass=0;comic=0;aspect=fixed;" parent="1" vertex="1">
          <mxGeometry x="-1030" y="480" width="180" height="40" as="geometry" />
        </mxCell>
        <mxCell id="32" value="&lt;font face=&quot;AsobiMemogaki&quot; style=&quot;font-size: 25px;&quot;&gt;&lt;b&gt;手操作入力&lt;/b&gt;&lt;/font&gt;" style="shape=manualInput;whiteSpace=wrap;html=1;rounded=0;shadow=0;glass=0;comic=0;strokeWidth=3;size=8;aspect=fixed;" parent="1" vertex="1">
          <mxGeometry x="-1030" y="630" width="180" height="40" as="geometry" />
        </mxCell>
        <mxCell id="35" value="&lt;font face=&quot;AsobiMemogaki&quot; style=&quot;font-size: 25px;&quot;&gt;&lt;b&gt;延期&lt;/b&gt;&lt;/font&gt;" style="shape=delay;whiteSpace=wrap;html=1;rounded=0;shadow=0;glass=0;comic=0;strokeWidth=3;" parent="1" vertex="1">
          <mxGeometry x="-1030" y="680" width="180" height="40" as="geometry" />
        </mxCell>
        <mxCell id="36" value="&lt;div style=&quot;text-align: justify&quot;&gt;&lt;font style=&quot;font-size: 25px;&quot; face=&quot;AsobiMemogaki&quot;&gt;&lt;b&gt;データベース&lt;/b&gt;&lt;/font&gt;&lt;/div&gt;" style="strokeWidth=3;html=1;shape=mxgraph.flowchart.database;whiteSpace=wrap;rounded=0;shadow=0;glass=0;comic=0;" parent="1" vertex="1">
          <mxGeometry x="-1030" y="730" width="180" height="40" as="geometry" />
        </mxCell>
        <mxCell id="WuMcj0hJKlT_on0qylqf-58" value="" style="rounded=0;whiteSpace=wrap;html=1;absoluteArcSize=1;arcSize=14;strokeWidth=3;aspect=fixed;fillColor=#ffe6cc;strokeColor=#d79b00;" parent="1" vertex="1">
          <mxGeometry x="-970" y="780" width="42" height="42" as="geometry" />
        </mxCell>
        <mxCell id="WjDO5F61-Ayvff47e1Pm-36" style="edgeStyle=orthogonalEdgeStyle;rounded=0;orthogonalLoop=1;jettySize=auto;html=1;exitX=0.5;exitY=1;exitDx=0;exitDy=0;exitPerimeter=0;entryX=0.465;entryY=-0.033;entryDx=0;entryDy=0;entryPerimeter=0;strokeWidth=3;endArrow=block;endFill=0;" parent="1" source="oexPa3vgfGNYkKnhhj2G-46" target="oexPa3vgfGNYkKnhhj2G-53" edge="1">
          <mxGeometry relative="1" as="geometry" />
        </mxCell>
        <mxCell id="oexPa3vgfGNYkKnhhj2G-46" value="&lt;font face=&quot;AsobiMemogaki&quot; style=&quot;font-size: 25px;&quot;&gt;&lt;b style=&quot;&quot;&gt;開始(Start)&lt;/b&gt;&lt;/font&gt;" style="strokeWidth=3;html=1;shape=mxgraph.flowchart.terminator;whiteSpace=wrap;rounded=0;shadow=0;glass=0;comic=0;aspect=fixed;" parent="1" vertex="1">
          <mxGeometry x="-501" y="80" width="175" height="58.33" as="geometry" />
        </mxCell>
        <mxCell id="gLAf9XCd8Vt8i7-jjPqV-45" style="edgeStyle=orthogonalEdgeStyle;rounded=0;orthogonalLoop=1;jettySize=auto;html=1;exitX=0.477;exitY=1.032;exitDx=0;exitDy=0;exitPerimeter=0;entryX=0.445;entryY=0.012;entryDx=0;entryDy=0;entryPerimeter=0;strokeWidth=3;endArrow=block;endFill=0;jumpSize=6;" parent="1" source="oexPa3vgfGNYkKnhhj2G-53" target="oexPa3vgfGNYkKnhhj2G-56" edge="1">
          <mxGeometry relative="1" as="geometry" />
        </mxCell>
        <mxCell id="oexPa3vgfGNYkKnhhj2G-53" value="&lt;b&gt;&lt;font face=&quot;AsobiMemogaki&quot; style=&quot;font-size: 25px;&quot;&gt;処理:&lt;/font&gt;&lt;font face=&quot;AsobiMemogaki&quot;&gt;&lt;span style=&quot;font-size: 25px;&quot;&gt;初期化(Init)&lt;/span&gt;&lt;/font&gt;&lt;/b&gt;" style="strokeWidth=3;html=1;shape=mxgraph.flowchart.process;whiteSpace=wrap;rounded=0;shadow=0;glass=0;comic=0;" parent="1" vertex="1">
          <mxGeometry x="-500" y="180.33" width="185" height="40" as="geometry" />
        </mxCell>
        <mxCell id="oexPa3vgfGNYkKnhhj2G-48" value="" style="rounded=0;whiteSpace=wrap;html=1;absoluteArcSize=1;arcSize=14;strokeWidth=3;aspect=fixed;fillColor=#ffe6cc;strokeColor=#d79b00;" parent="1" vertex="1">
          <mxGeometry x="-490" y="138.33000000000004" width="42" height="42" as="geometry" />
        </mxCell>
        <mxCell id="oexPa3vgfGNYkKnhhj2G-65" style="edgeStyle=none;rounded=0;orthogonalLoop=1;jettySize=auto;html=1;exitX=0.446;exitY=0.999;exitDx=0;exitDy=0;exitPerimeter=0;entryX=0.5;entryY=0;entryDx=0;entryDy=0;entryPerimeter=0;fontFamily=AsobiMemogaki;fontSize=25;strokeWidth=3;endArrow=block;endFill=0;" parent="1" source="oexPa3vgfGNYkKnhhj2G-56" target="oexPa3vgfGNYkKnhhj2G-55" edge="1">
          <mxGeometry relative="1" as="geometry" />
        </mxCell>
        <mxCell id="oexPa3vgfGNYkKnhhj2G-72" style="edgeStyle=orthogonalEdgeStyle;rounded=0;orthogonalLoop=1;jettySize=auto;html=1;exitX=1;exitY=0.5;exitDx=0;exitDy=0;exitPerimeter=0;fontFamily=AsobiMemogaki;fontSize=25;strokeWidth=3;entryX=0.5;entryY=0;entryDx=0;entryDy=0;endArrow=block;endFill=0;" parent="1" source="oexPa3vgfGNYkKnhhj2G-55" target="oexPa3vgfGNYkKnhhj2G-67" edge="1">
          <mxGeometry relative="1" as="geometry">
            <mxPoint x="-280" y="440" as="targetPoint" />
          </mxGeometry>
        </mxCell>
        <mxCell id="5joyLFY6nevB4MXao6UH-37" style="edgeStyle=orthogonalEdgeStyle;rounded=0;orthogonalLoop=1;jettySize=auto;html=1;exitX=0;exitY=0.5;exitDx=0;exitDy=0;exitPerimeter=0;fontFamily=AsobiMemogaki;fontSize=25;strokeWidth=3;entryX=0.473;entryY=-0.035;entryDx=0;entryDy=0;entryPerimeter=0;endArrow=block;endFill=0;" parent="1" source="oexPa3vgfGNYkKnhhj2G-55" target="oexPa3vgfGNYkKnhhj2G-75" edge="1">
          <mxGeometry relative="1" as="geometry">
            <mxPoint x="-570" y="373.6268656716418" as="targetPoint" />
            <Array as="points">
              <mxPoint x="-569" y="374" />
            </Array>
          </mxGeometry>
        </mxCell>
        <mxCell id="oexPa3vgfGNYkKnhhj2G-55" value="&lt;font face=&quot;AsobiMemogaki&quot; style=&quot;font-size: 25px;&quot;&gt;&lt;b&gt;判断:入力(Input)&lt;/b&gt;&lt;/font&gt;" style="strokeWidth=3;html=1;shape=mxgraph.flowchart.decision;whiteSpace=wrap;rounded=0;shadow=0;glass=0;comic=0;aspect=fixed;" parent="1" vertex="1">
          <mxGeometry x="-501" y="344.33" width="175" height="58.33" as="geometry" />
        </mxCell>
        <mxCell id="oexPa3vgfGNYkKnhhj2G-56" value="" style="verticalLabelPosition=bottom;verticalAlign=top;html=1;strokeWidth=3;shape=process;whiteSpace=wrap;rounded=0;size=0.14;arcSize=6;shadow=0;glass=0;comic=0;" parent="1" vertex="1">
          <mxGeometry x="-490" y="262.33" width="175" height="40" as="geometry" />
        </mxCell>
        <mxCell id="oexPa3vgfGNYkKnhhj2G-57" value="&lt;font face=&quot;AsobiMemogaki&quot; style=&quot;font-size: 25px;&quot;&gt;&lt;b&gt;定義済処理：更新(Update)&lt;/b&gt;&lt;/font&gt;" style="text;html=1;resizable=0;points=[];autosize=1;align=left;verticalAlign=top;spacingTop=-4;rounded=0;" parent="1" vertex="1">
          <mxGeometry x="-520" y="270" width="270" height="20" as="geometry" />
        </mxCell>
        <mxCell id="oexPa3vgfGNYkKnhhj2G-58" value="" style="rounded=0;whiteSpace=wrap;html=1;absoluteArcSize=1;arcSize=14;strokeWidth=3;aspect=fixed;fillColor=#ffe6cc;strokeColor=#d79b00;" parent="1" vertex="1">
          <mxGeometry x="-490" y="220.33000000000004" width="42" height="42" as="geometry" />
        </mxCell>
        <mxCell id="oexPa3vgfGNYkKnhhj2G-64" value="" style="rounded=0;whiteSpace=wrap;html=1;absoluteArcSize=1;arcSize=14;strokeWidth=3;aspect=fixed;fillColor=#ffe6cc;strokeColor=#d79b00;" parent="1" vertex="1">
          <mxGeometry x="-490" y="302.33000000000004" width="42" height="42" as="geometry" />
        </mxCell>
        <mxCell id="oexPa3vgfGNYkKnhhj2G-67" value="" style="verticalLabelPosition=bottom;verticalAlign=top;html=1;strokeWidth=3;shape=process;whiteSpace=wrap;rounded=0;size=0.14;arcSize=6;shadow=0;glass=0;comic=0;" parent="1" vertex="1">
          <mxGeometry x="-350.5" y="446.66" width="175" height="40" as="geometry" />
        </mxCell>
        <mxCell id="oexPa3vgfGNYkKnhhj2G-68" value="&lt;font face=&quot;AsobiMemogaki&quot; style=&quot;font-size: 25px;&quot;&gt;&lt;b&gt;定義済処理:攻撃(Attack)&lt;/b&gt;&lt;/font&gt;" style="text;html=1;resizable=0;points=[];autosize=1;align=left;verticalAlign=top;spacingTop=-4;rounded=0;" parent="1" vertex="1">
          <mxGeometry x="-420" y="450" width="270" height="20" as="geometry" />
        </mxCell>
        <mxCell id="oexPa3vgfGNYkKnhhj2G-69" value="" style="rounded=0;whiteSpace=wrap;html=1;absoluteArcSize=1;arcSize=14;strokeWidth=3;aspect=fixed;fillColor=#ffe6cc;strokeColor=#d79b00;" parent="1" vertex="1">
          <mxGeometry x="-434.5" y="402.66" width="42" height="42" as="geometry" />
        </mxCell>
        <mxCell id="oexPa3vgfGNYkKnhhj2G-75" value="" style="verticalLabelPosition=bottom;verticalAlign=top;html=1;strokeWidth=3;shape=process;whiteSpace=wrap;rounded=0;size=0.14;arcSize=6;shadow=0;glass=0;comic=0;" parent="1" vertex="1">
          <mxGeometry x="-651.5" y="446.66" width="175" height="40" as="geometry" />
        </mxCell>
        <mxCell id="oexPa3vgfGNYkKnhhj2G-76" value="&lt;font face=&quot;AsobiMemogaki&quot; style=&quot;font-size: 25px;&quot;&gt;&lt;b&gt;定義済処理:移動(Move)&lt;/b&gt;&lt;/font&gt;" style="text;html=1;resizable=0;points=[];autosize=1;align=left;verticalAlign=top;spacingTop=-4;rounded=0;" parent="1" vertex="1">
          <mxGeometry x="-651.5" y="450" width="250" height="20" as="geometry" />
        </mxCell>
        <mxCell id="5joyLFY6nevB4MXao6UH-38" value="&lt;font face=&quot;AsobiMemogaki&quot; style=&quot;font-size: 25px;&quot;&gt;&lt;b&gt;定義済処理：更新(Update)&lt;/b&gt;&lt;/font&gt;" style="text;html=1;resizable=0;points=[];autosize=1;align=left;verticalAlign=top;spacingTop=-4;rounded=0;" parent="1" vertex="1">
          <mxGeometry x="-560" y="551" width="270" height="20" as="geometry" />
        </mxCell>
        <mxCell id="oexPa3vgfGNYkKnhhj2G-70" value="" style="rounded=0;whiteSpace=wrap;html=1;absoluteArcSize=1;arcSize=14;strokeWidth=3;aspect=fixed;fillColor=#ffe6cc;strokeColor=#d79b00;" parent="1" vertex="1">
          <mxGeometry x="-434.5" y="444.6600000000001" width="42" height="42" as="geometry" />
        </mxCell>
        <mxCell id="5joyLFY6nevB4MXao6UH-50" value="" style="verticalLabelPosition=bottom;verticalAlign=top;html=1;strokeWidth=3;shape=process;whiteSpace=wrap;rounded=0;size=0.14;arcSize=6;shadow=0;glass=0;comic=0;" parent="1" vertex="1">
          <mxGeometry x="-513" y="630" width="175" height="40" as="geometry" />
        </mxCell>
        <mxCell id="5joyLFY6nevB4MXao6UH-51" value="&lt;font face=&quot;AsobiMemogaki&quot; style=&quot;font-size: 25px;&quot;&gt;&lt;b&gt;定義済処理:レンダリング(Render)&lt;/b&gt;&lt;/font&gt;" style="text;html=1;resizable=0;points=[];autosize=1;align=left;verticalAlign=top;spacingTop=-4;rounded=0;" parent="1" vertex="1">
          <mxGeometry x="-556" y="634" width="310" height="20" as="geometry" />
        </mxCell>
        <mxCell id="5joyLFY6nevB4MXao6UH-52" value="" style="rounded=0;whiteSpace=wrap;html=1;absoluteArcSize=1;arcSize=14;strokeWidth=2;aspect=fixed;fillColor=#ffe6cc;strokeColor=#d79b00;" parent="1" vertex="1">
          <mxGeometry x="-513" y="588.0000000000001" width="42" height="42" as="geometry" />
        </mxCell>
        <mxCell id="gLAf9XCd8Vt8i7-jjPqV-48" value="" style="rounded=0;whiteSpace=wrap;html=1;absoluteArcSize=1;arcSize=14;strokeWidth=3;fillColor=#ffe6cc;strokeColor=#d79b00;" parent="1" vertex="1">
          <mxGeometry x="-902" y="780" width="42" height="62" as="geometry" />
        </mxCell>
        <mxCell id="gLAf9XCd8Vt8i7-jjPqV-49" value="" style="rounded=0;whiteSpace=wrap;html=1;absoluteArcSize=1;arcSize=14;strokeWidth=3;fillColor=#ffe6cc;strokeColor=#d79b00;" parent="1" vertex="1">
          <mxGeometry x="-620" y="485.66" width="42" height="62" as="geometry" />
        </mxCell>
        <mxCell id="gLAf9XCd8Vt8i7-jjPqV-58" value="" style="endArrow=block;startArrow=none;html=1;rounded=0;strokeWidth=3;jumpSize=6;entryX=0.413;entryY=0.011;entryDx=0;entryDy=0;entryPerimeter=0;startFill=0;endFill=0;" parent="1" target="5joyLFY6nevB4MXao6UH-39" edge="1">
          <mxGeometry width="50" height="50" relative="1" as="geometry">
            <mxPoint x="-440" y="520" as="sourcePoint" />
            <mxPoint x="-410" y="570" as="targetPoint" />
          </mxGeometry>
        </mxCell>
        <mxCell id="gLAf9XCd8Vt8i7-jjPqV-59" value="" style="endArrow=none;html=1;rounded=0;strokeWidth=3;jumpSize=6;edgeStyle=orthogonalEdgeStyle;entryX=0.456;entryY=1.03;entryDx=0;entryDy=0;entryPerimeter=0;" parent="1" target="oexPa3vgfGNYkKnhhj2G-75" edge="1">
          <mxGeometry width="50" height="50" relative="1" as="geometry">
            <mxPoint x="-440" y="520" as="sourcePoint" />
            <mxPoint x="-570" y="520" as="targetPoint" />
            <Array as="points">
              <mxPoint x="-572" y="520" />
            </Array>
          </mxGeometry>
        </mxCell>
        <mxCell id="gLAf9XCd8Vt8i7-jjPqV-63" value="" style="endArrow=none;html=1;rounded=0;strokeWidth=3;jumpSize=6;edgeStyle=orthogonalEdgeStyle;exitX=0.504;exitY=1.035;exitDx=0;exitDy=0;exitPerimeter=0;" parent="1" source="oexPa3vgfGNYkKnhhj2G-67" edge="1">
          <mxGeometry width="50" height="50" relative="1" as="geometry">
            <mxPoint x="-262.79" y="500" as="sourcePoint" />
            <mxPoint x="-440" y="520" as="targetPoint" />
            <Array as="points">
              <mxPoint x="-262" y="520" />
            </Array>
          </mxGeometry>
        </mxCell>
        <mxCell id="vJ3IjZ5agWpm-erSKB4o-39" value="Start" style="swimlane;rounded=0;fontSize=50;strokeWidth=3;fontFamily=AsobiMemogaki;startSize=67;verticalAlign=middle;arcSize=19;swimlaneFillColor=none;glass=0;shadow=0;aspect=fixed;" parent="1" vertex="1">
          <mxGeometry x="-158" y="43.25" width="600" height="1200" as="geometry">
            <mxRectangle x="-158" y="43.25" width="450" height="66.75" as="alternateBounds" />
          </mxGeometry>
        </mxCell>
        <mxCell id="XRpvKPtvbMjDZEpKlGo3-51" value="" style="rounded=0;whiteSpace=wrap;html=1;absoluteArcSize=1;arcSize=14;strokeWidth=3;aspect=fixed;fillColor=#ffe6cc;strokeColor=#d79b00;" parent="vJ3IjZ5agWpm-erSKB4o-39" vertex="1">
          <mxGeometry x="190.5" y="510.75000000000006" width="42" height="42" as="geometry" />
        </mxCell>
        <mxCell id="XRpvKPtvbMjDZEpKlGo3-37" value="" style="rounded=0;whiteSpace=wrap;html=1;absoluteArcSize=1;arcSize=14;strokeWidth=3;aspect=fixed;fillColor=#ffe6cc;strokeColor=#d79b00;" parent="vJ3IjZ5agWpm-erSKB4o-39" vertex="1">
          <mxGeometry x="190.5" y="428.75000000000006" width="42" height="42" as="geometry" />
        </mxCell>
        <mxCell id="vJ3IjZ5agWpm-erSKB4o-43" value="" style="rounded=0;whiteSpace=wrap;html=1;absoluteArcSize=1;arcSize=14;strokeWidth=3;fillColor=#ffe6cc;strokeColor=#d79b00;" parent="vJ3IjZ5agWpm-erSKB4o-39" vertex="1">
          <mxGeometry x="286.5" y="68.5" width="42" height="63" as="geometry" />
        </mxCell>
        <mxCell id="vJ3IjZ5agWpm-erSKB4o-42" value="" style="rounded=0;whiteSpace=wrap;html=1;absoluteArcSize=1;arcSize=14;strokeWidth=3;aspect=fixed;fillColor=#ffe6cc;strokeColor=#d79b00;" parent="vJ3IjZ5agWpm-erSKB4o-39" vertex="1">
          <mxGeometry x="190.5" y="186.83000000000004" width="42" height="42" as="geometry" />
        </mxCell>
        <mxCell id="vJ3IjZ5agWpm-erSKB4o-157" value="" style="rounded=0;whiteSpace=wrap;html=1;absoluteArcSize=1;arcSize=14;strokeWidth=3;aspect=fixed;fillColor=#ffe6cc;strokeColor=#d79b00;" parent="vJ3IjZ5agWpm-erSKB4o-39" vertex="1">
          <mxGeometry x="188" y="266.75000000000006" width="42" height="42" as="geometry" />
        </mxCell>
        <mxCell id="vJ3IjZ5agWpm-erSKB4o-158" value="" style="rounded=0;whiteSpace=wrap;html=1;absoluteArcSize=1;arcSize=14;strokeWidth=3;aspect=fixed;fillColor=#ffe6cc;strokeColor=#d79b00;" parent="vJ3IjZ5agWpm-erSKB4o-39" vertex="1">
          <mxGeometry x="188" y="346.75000000000006" width="42" height="42" as="geometry" />
        </mxCell>
        <mxCell id="vJ3IjZ5agWpm-erSKB4o-160" style="edgeStyle=orthogonalEdgeStyle;rounded=0;orthogonalLoop=1;jettySize=auto;html=1;exitX=0.5;exitY=1;exitDx=0;exitDy=0;exitPerimeter=0;entryX=0.491;entryY=0.041;entryDx=0;entryDy=0;entryPerimeter=0;fontFamily=AsobiMemogaki;fontSize=30;endArrow=block;endFill=0;strokeWidth=3;" parent="vJ3IjZ5agWpm-erSKB4o-39" source="vJ3IjZ5agWpm-erSKB4o-41" target="vJ3IjZ5agWpm-erSKB4o-155" edge="1">
          <mxGeometry relative="1" as="geometry" />
        </mxCell>
        <mxCell id="vJ3IjZ5agWpm-erSKB4o-41" value="&lt;b style=&quot;font-family: AsobiMemogaki; font-size: 25px;&quot;&gt;開始(Start)&lt;/b&gt;" style="strokeWidth=3;html=1;shape=mxgraph.flowchart.terminator;whiteSpace=wrap;rounded=0;shadow=0;glass=0;comic=0;aspect=fixed;" parent="vJ3IjZ5agWpm-erSKB4o-39" vertex="1">
          <mxGeometry x="222.5" y="131.5" width="175" height="58.33" as="geometry" />
        </mxCell>
        <mxCell id="vJ3IjZ5agWpm-erSKB4o-44" value="" style="verticalLabelPosition=bottom;verticalAlign=top;html=1;strokeWidth=3;shape=process;whiteSpace=wrap;rounded=0;size=0.14;arcSize=6;shadow=0;glass=0;comic=0;" parent="vJ3IjZ5agWpm-erSKB4o-39" vertex="1">
          <mxGeometry x="200" y="470.75" width="240" height="40" as="geometry" />
        </mxCell>
        <mxCell id="vJ3IjZ5agWpm-erSKB4o-45" value="&lt;font size=&quot;1&quot; face=&quot;AsobiMemogaki&quot; style=&quot;&quot;&gt;&lt;b style=&quot;font-size: 25px;&quot;&gt;Player :&amp;nbsp;&lt;/b&gt;&lt;/font&gt;" style="text;html=1;resizable=0;points=[];autosize=1;align=left;verticalAlign=top;spacingTop=-4;rounded=0;" parent="vJ3IjZ5agWpm-erSKB4o-39" vertex="1">
          <mxGeometry x="232.5" y="470.75" width="100" height="20" as="geometry" />
        </mxCell>
        <mxCell id="vJ3IjZ5agWpm-erSKB4o-162" style="edgeStyle=orthogonalEdgeStyle;orthogonalLoop=1;jettySize=auto;html=1;exitX=0.5;exitY=1;exitDx=0;exitDy=0;exitPerimeter=0;fontFamily=AsobiMemogaki;fontSize=30;endArrow=block;endFill=0;strokeWidth=3;rounded=0;" parent="vJ3IjZ5agWpm-erSKB4o-39" source="vJ3IjZ5agWpm-erSKB4o-155" target="vJ3IjZ5agWpm-erSKB4o-156" edge="1">
          <mxGeometry relative="1" as="geometry" />
        </mxCell>
        <mxCell id="vJ3IjZ5agWpm-erSKB4o-155" value="&lt;font face=&quot;AsobiMemogaki&quot; style=&quot;font-size: 25px;&quot;&gt;&lt;b&gt;Stage(filename.json)&lt;/b&gt;&lt;/font&gt;" style="strokeWidth=3;html=1;shape=mxgraph.flowchart.process;whiteSpace=wrap;rounded=0;shadow=0;glass=0;comic=0;" parent="vJ3IjZ5agWpm-erSKB4o-39" vertex="1">
          <mxGeometry x="222.5" y="228.82999999999998" width="180" height="40" as="geometry" />
        </mxCell>
        <mxCell id="XRpvKPtvbMjDZEpKlGo3-39" style="edgeStyle=orthogonalEdgeStyle;rounded=0;orthogonalLoop=1;jettySize=auto;html=1;exitX=0.5;exitY=1;exitDx=0;exitDy=0;exitPerimeter=0;entryX=0.461;entryY=0.042;entryDx=0;entryDy=0;entryPerimeter=0;endArrow=block;endFill=0;strokeWidth=3;" parent="vJ3IjZ5agWpm-erSKB4o-39" source="vJ3IjZ5agWpm-erSKB4o-156" target="XRpvKPtvbMjDZEpKlGo3-36" edge="1">
          <mxGeometry relative="1" as="geometry" />
        </mxCell>
        <mxCell id="vJ3IjZ5agWpm-erSKB4o-156" value="&lt;font face=&quot;AsobiMemogaki&quot; style=&quot;font-size: 25px;&quot;&gt;&lt;b&gt;Player()&lt;/b&gt;&lt;/font&gt;" style="strokeWidth=3;html=1;shape=mxgraph.flowchart.process;whiteSpace=wrap;rounded=0;shadow=0;glass=0;comic=0;" parent="vJ3IjZ5agWpm-erSKB4o-39" vertex="1">
          <mxGeometry x="222.5" y="308.75" width="180" height="40" as="geometry" />
        </mxCell>
        <mxCell id="XRpvKPtvbMjDZEpKlGo3-36" value="&lt;font face=&quot;AsobiMemogaki&quot; style=&quot;font-size: 25px;&quot;&gt;&lt;b&gt;Enemy()&lt;/b&gt;&lt;/font&gt;" style="strokeWidth=3;html=1;shape=mxgraph.flowchart.process;whiteSpace=wrap;rounded=0;shadow=0;glass=0;comic=0;" parent="vJ3IjZ5agWpm-erSKB4o-39" vertex="1">
          <mxGeometry x="230" y="388.75" width="180" height="40" as="geometry" />
        </mxCell>
        <mxCell id="XRpvKPtvbMjDZEpKlGo3-47" value="" style="endArrow=none;html=1;rounded=0;entryX=0.467;entryY=1;entryDx=0;entryDy=0;entryPerimeter=0;exitX=0.477;exitY=0.007;exitDx=0;exitDy=0;exitPerimeter=0;endFill=0;startArrow=block;startFill=0;strokeWidth=3;" parent="vJ3IjZ5agWpm-erSKB4o-39" source="vJ3IjZ5agWpm-erSKB4o-44" target="XRpvKPtvbMjDZEpKlGo3-36" edge="1">
          <mxGeometry width="50" height="50" relative="1" as="geometry">
            <mxPoint x="328" y="456.75" as="sourcePoint" />
            <mxPoint x="378" y="406.75" as="targetPoint" />
          </mxGeometry>
        </mxCell>
        <mxCell id="vJ3IjZ5agWpm-erSKB4o-54" value="Init" style="swimlane;rounded=0;fontSize=50;strokeColor=#000000;strokeWidth=3;fontFamily=AsobiMemogaki;startSize=67;verticalAlign=middle;arcSize=19;fillColor=default;gradientColor=none;swimlaneFillColor=none;glass=0;shadow=0;aspect=fixed;" parent="1" vertex="1">
          <mxGeometry x="484" y="43.25" width="600" height="1200" as="geometry">
            <mxRectangle x="484" y="43.25" width="450" height="66.75" as="alternateBounds" />
          </mxGeometry>
        </mxCell>
        <mxCell id="vJ3IjZ5agWpm-erSKB4o-57" value="" style="rounded=0;whiteSpace=wrap;html=1;absoluteArcSize=1;arcSize=14;strokeWidth=3;aspect=fixed;fillColor=#ffe6cc;strokeColor=#d79b00;" parent="vJ3IjZ5agWpm-erSKB4o-54" vertex="1">
          <mxGeometry x="202.5" y="186.83000000000004" width="42" height="42" as="geometry" />
        </mxCell>
        <mxCell id="vJ3IjZ5agWpm-erSKB4o-58" value="" style="rounded=0;whiteSpace=wrap;html=1;absoluteArcSize=1;arcSize=14;strokeWidth=3;fillColor=#ffe6cc;strokeColor=#d79b00;" parent="vJ3IjZ5agWpm-erSKB4o-54" vertex="1">
          <mxGeometry x="286.5" y="68.5" width="42" height="63" as="geometry" />
        </mxCell>
        <mxCell id="vJ3IjZ5agWpm-erSKB4o-56" value="&lt;b style=&quot;font-family: AsobiMemogaki; font-size: 25px;&quot;&gt;開始(Start)&lt;/b&gt;" style="strokeWidth=3;html=1;shape=mxgraph.flowchart.terminator;whiteSpace=wrap;rounded=0;shadow=0;glass=0;comic=0;aspect=fixed;" parent="vJ3IjZ5agWpm-erSKB4o-54" vertex="1">
          <mxGeometry x="222.5" y="131.5" width="175" height="58.33" as="geometry" />
        </mxCell>
        <mxCell id="vJ3IjZ5agWpm-erSKB4o-81" value="Title:Update" style="swimlane;rounded=0;fontSize=50;strokeColor=#000000;strokeWidth=3;fontFamily=AsobiMemogaki;startSize=67;verticalAlign=middle;arcSize=19;fillColor=default;gradientColor=none;swimlaneFillColor=none;glass=0;shadow=0;aspect=fixed;" parent="1" vertex="1" collapsed="1">
          <mxGeometry x="1126" y="43.25" width="450" height="66.75" as="geometry">
            <mxRectangle x="1126" y="43.25" width="600" height="1200" as="alternateBounds" />
          </mxGeometry>
        </mxCell>
        <mxCell id="vJ3IjZ5agWpm-erSKB4o-118" style="edgeStyle=orthogonalEdgeStyle;rounded=0;orthogonalLoop=1;jettySize=auto;html=1;exitX=0.5;exitY=1;exitDx=0;exitDy=0;exitPerimeter=0;entryX=0.5;entryY=0;entryDx=0;entryDy=0;fontFamily=AsobiMemogaki;fontSize=30;endArrow=block;endFill=0;" parent="vJ3IjZ5agWpm-erSKB4o-81" source="vJ3IjZ5agWpm-erSKB4o-83" target="vJ3IjZ5agWpm-erSKB4o-86" edge="1">
          <mxGeometry relative="1" as="geometry" />
        </mxCell>
        <mxCell id="vJ3IjZ5agWpm-erSKB4o-83" value="&lt;b style=&quot;font-family: AsobiMemogaki; font-size: 25px;&quot;&gt;開始(Start)&lt;/b&gt;" style="strokeWidth=3;html=1;shape=mxgraph.flowchart.terminator;whiteSpace=wrap;rounded=0;shadow=0;glass=0;comic=0;aspect=fixed;" parent="vJ3IjZ5agWpm-erSKB4o-81" vertex="1">
          <mxGeometry x="222.5" y="131.5" width="175" height="58.33" as="geometry" />
        </mxCell>
        <mxCell id="vJ3IjZ5agWpm-erSKB4o-84" value="" style="rounded=0;whiteSpace=wrap;html=1;absoluteArcSize=1;arcSize=14;strokeWidth=3;aspect=fixed;fillColor=#ffe6cc;strokeColor=#d79b00;" parent="vJ3IjZ5agWpm-erSKB4o-81" vertex="1">
          <mxGeometry x="202.5" y="186.83000000000004" width="42" height="42" as="geometry" />
        </mxCell>
        <mxCell id="vJ3IjZ5agWpm-erSKB4o-85" value="" style="rounded=0;whiteSpace=wrap;html=1;absoluteArcSize=1;arcSize=14;strokeWidth=3;fillColor=#ffe6cc;strokeColor=#d79b00;" parent="vJ3IjZ5agWpm-erSKB4o-81" vertex="1">
          <mxGeometry x="286.5" y="68.5" width="42" height="63" as="geometry" />
        </mxCell>
        <mxCell id="vJ3IjZ5agWpm-erSKB4o-86" value="" style="verticalLabelPosition=bottom;verticalAlign=top;html=1;strokeWidth=3;shape=process;whiteSpace=wrap;rounded=0;size=0.14;arcSize=6;shadow=0;glass=0;comic=0;" parent="vJ3IjZ5agWpm-erSKB4o-81" vertex="1">
          <mxGeometry x="187.5" y="228.82999999999998" width="240" height="40" as="geometry" />
        </mxCell>
        <mxCell id="vJ3IjZ5agWpm-erSKB4o-87" value="&lt;font face=&quot;AsobiMemogaki&quot; style=&quot;font-size: 25px;&quot;&gt;&lt;b&gt;定義済処理:Init&lt;/b&gt;&lt;/font&gt;" style="text;html=1;resizable=0;points=[];autosize=1;align=left;verticalAlign=top;spacingTop=-4;rounded=0;" parent="vJ3IjZ5agWpm-erSKB4o-81" vertex="1">
          <mxGeometry x="217.5" y="233" width="180" height="20" as="geometry" />
        </mxCell>
        <mxCell id="vJ3IjZ5agWpm-erSKB4o-88" value="Title:Input" style="swimlane;rounded=0;fontSize=50;strokeColor=#000000;strokeWidth=3;fontFamily=AsobiMemogaki;startSize=67;verticalAlign=middle;arcSize=19;fillColor=default;gradientColor=none;swimlaneFillColor=none;glass=0;shadow=0;aspect=fixed;" parent="1" vertex="1" collapsed="1">
          <mxGeometry x="1768" y="44" width="450" height="66.75" as="geometry">
            <mxRectangle x="1768" y="44" width="600" height="1200" as="alternateBounds" />
          </mxGeometry>
        </mxCell>
        <mxCell id="vJ3IjZ5agWpm-erSKB4o-90" value="&lt;b style=&quot;font-family: AsobiMemogaki; font-size: 25px;&quot;&gt;開始(Start)&lt;/b&gt;" style="strokeWidth=3;html=1;shape=mxgraph.flowchart.terminator;whiteSpace=wrap;rounded=0;shadow=0;glass=0;comic=0;aspect=fixed;" parent="vJ3IjZ5agWpm-erSKB4o-88" vertex="1">
          <mxGeometry x="222.5" y="131.5" width="175" height="58.33" as="geometry" />
        </mxCell>
        <mxCell id="vJ3IjZ5agWpm-erSKB4o-91" value="" style="rounded=0;whiteSpace=wrap;html=1;absoluteArcSize=1;arcSize=14;strokeWidth=3;aspect=fixed;fillColor=#ffe6cc;strokeColor=#d79b00;" parent="vJ3IjZ5agWpm-erSKB4o-88" vertex="1">
          <mxGeometry x="202.5" y="186.83000000000004" width="42" height="42" as="geometry" />
        </mxCell>
        <mxCell id="vJ3IjZ5agWpm-erSKB4o-92" value="" style="rounded=0;whiteSpace=wrap;html=1;absoluteArcSize=1;arcSize=14;strokeWidth=3;fillColor=#ffe6cc;strokeColor=#d79b00;" parent="vJ3IjZ5agWpm-erSKB4o-88" vertex="1">
          <mxGeometry x="286.5" y="68.5" width="42" height="63" as="geometry" />
        </mxCell>
        <mxCell id="vJ3IjZ5agWpm-erSKB4o-93" value="" style="verticalLabelPosition=bottom;verticalAlign=top;html=1;strokeWidth=3;shape=process;whiteSpace=wrap;rounded=0;size=0.14;arcSize=6;shadow=0;glass=0;comic=0;" parent="vJ3IjZ5agWpm-erSKB4o-88" vertex="1">
          <mxGeometry x="187.5" y="228.82999999999998" width="240" height="40" as="geometry" />
        </mxCell>
        <mxCell id="vJ3IjZ5agWpm-erSKB4o-94" value="&lt;font face=&quot;AsobiMemogaki&quot; style=&quot;font-size: 25px;&quot;&gt;&lt;b&gt;定義済処理:Init&lt;/b&gt;&lt;/font&gt;" style="text;html=1;resizable=0;points=[];autosize=1;align=left;verticalAlign=top;spacingTop=-4;rounded=0;" parent="vJ3IjZ5agWpm-erSKB4o-88" vertex="1">
          <mxGeometry x="217.5" y="233" width="180" height="20" as="geometry" />
        </mxCell>
        <mxCell id="vJ3IjZ5agWpm-erSKB4o-96" value="Title:Attack" style="swimlane;rounded=0;fontSize=50;strokeColor=#000000;strokeWidth=3;fontFamily=AsobiMemogaki;startSize=67;verticalAlign=middle;arcSize=19;fillColor=default;gradientColor=none;swimlaneFillColor=none;glass=0;shadow=0;aspect=fixed;" parent="1" vertex="1" collapsed="1">
          <mxGeometry x="2410" y="44" width="450" height="66.75" as="geometry">
            <mxRectangle x="2410" y="44" width="600" height="1200" as="alternateBounds" />
          </mxGeometry>
        </mxCell>
        <mxCell id="vJ3IjZ5agWpm-erSKB4o-112" style="edgeStyle=orthogonalEdgeStyle;rounded=0;orthogonalLoop=1;jettySize=auto;html=1;exitX=0.5;exitY=1;exitDx=0;exitDy=0;exitPerimeter=0;entryX=0.5;entryY=0;entryDx=0;entryDy=0;fontFamily=AsobiMemogaki;fontSize=30;endArrow=block;endFill=0;" parent="vJ3IjZ5agWpm-erSKB4o-96" source="vJ3IjZ5agWpm-erSKB4o-98" target="vJ3IjZ5agWpm-erSKB4o-101" edge="1">
          <mxGeometry relative="1" as="geometry" />
        </mxCell>
        <mxCell id="vJ3IjZ5agWpm-erSKB4o-98" value="&lt;b style=&quot;font-family: AsobiMemogaki; font-size: 25px;&quot;&gt;開始(Start)&lt;/b&gt;" style="strokeWidth=3;html=1;shape=mxgraph.flowchart.terminator;whiteSpace=wrap;rounded=0;shadow=0;glass=0;comic=0;aspect=fixed;" parent="vJ3IjZ5agWpm-erSKB4o-96" vertex="1">
          <mxGeometry x="222.5" y="131.5" width="175" height="58.33" as="geometry" />
        </mxCell>
        <mxCell id="vJ3IjZ5agWpm-erSKB4o-99" value="" style="rounded=0;whiteSpace=wrap;html=1;absoluteArcSize=1;arcSize=14;strokeWidth=3;aspect=fixed;fillColor=#ffe6cc;strokeColor=#d79b00;" parent="vJ3IjZ5agWpm-erSKB4o-96" vertex="1">
          <mxGeometry x="202.5" y="186.83000000000004" width="42" height="42" as="geometry" />
        </mxCell>
        <mxCell id="vJ3IjZ5agWpm-erSKB4o-100" value="" style="rounded=0;whiteSpace=wrap;html=1;absoluteArcSize=1;arcSize=14;strokeWidth=3;fillColor=#ffe6cc;strokeColor=#d79b00;" parent="vJ3IjZ5agWpm-erSKB4o-96" vertex="1">
          <mxGeometry x="286.5" y="68.5" width="42" height="63" as="geometry" />
        </mxCell>
        <mxCell id="vJ3IjZ5agWpm-erSKB4o-101" value="" style="verticalLabelPosition=bottom;verticalAlign=top;html=1;strokeWidth=3;shape=process;whiteSpace=wrap;rounded=0;size=0.14;arcSize=6;shadow=0;glass=0;comic=0;" parent="vJ3IjZ5agWpm-erSKB4o-96" vertex="1">
          <mxGeometry x="187.5" y="228.82999999999998" width="240" height="40" as="geometry" />
        </mxCell>
        <mxCell id="vJ3IjZ5agWpm-erSKB4o-102" value="&lt;font face=&quot;AsobiMemogaki&quot; style=&quot;font-size: 25px;&quot;&gt;&lt;b&gt;定義済処理:Init&lt;/b&gt;&lt;/font&gt;" style="text;html=1;resizable=0;points=[];autosize=1;align=left;verticalAlign=top;spacingTop=-4;rounded=0;" parent="vJ3IjZ5agWpm-erSKB4o-96" vertex="1">
          <mxGeometry x="222.5" y="228.83" width="180" height="20" as="geometry" />
        </mxCell>
        <mxCell id="vJ3IjZ5agWpm-erSKB4o-104" value="Title:Move" style="swimlane;rounded=0;fontSize=50;strokeColor=#000000;strokeWidth=3;fontFamily=AsobiMemogaki;startSize=67;verticalAlign=middle;arcSize=19;fillColor=default;gradientColor=none;swimlaneFillColor=none;glass=0;shadow=0;aspect=fixed;" parent="1" vertex="1" collapsed="1">
          <mxGeometry x="3052" y="41.67" width="450" height="66.75" as="geometry">
            <mxRectangle x="3052" y="41.67" width="600" height="1200" as="alternateBounds" />
          </mxGeometry>
        </mxCell>
        <mxCell id="vJ3IjZ5agWpm-erSKB4o-106" value="&lt;b style=&quot;font-family: AsobiMemogaki; font-size: 25px;&quot;&gt;開始(Start)&lt;/b&gt;" style="strokeWidth=3;html=1;shape=mxgraph.flowchart.terminator;whiteSpace=wrap;rounded=0;shadow=0;glass=0;comic=0;aspect=fixed;" parent="vJ3IjZ5agWpm-erSKB4o-104" vertex="1">
          <mxGeometry x="222.5" y="131.5" width="175" height="58.33" as="geometry" />
        </mxCell>
        <mxCell id="vJ3IjZ5agWpm-erSKB4o-107" value="" style="rounded=0;whiteSpace=wrap;html=1;absoluteArcSize=1;arcSize=14;strokeWidth=3;aspect=fixed;fillColor=#ffe6cc;strokeColor=#d79b00;" parent="vJ3IjZ5agWpm-erSKB4o-104" vertex="1">
          <mxGeometry x="202.5" y="186.83000000000004" width="42" height="42" as="geometry" />
        </mxCell>
        <mxCell id="vJ3IjZ5agWpm-erSKB4o-108" value="" style="rounded=0;whiteSpace=wrap;html=1;absoluteArcSize=1;arcSize=14;strokeWidth=3;fillColor=#ffe6cc;strokeColor=#d79b00;" parent="vJ3IjZ5agWpm-erSKB4o-104" vertex="1">
          <mxGeometry x="286.5" y="68.5" width="42" height="63" as="geometry" />
        </mxCell>
        <mxCell id="vJ3IjZ5agWpm-erSKB4o-109" value="" style="verticalLabelPosition=bottom;verticalAlign=top;html=1;strokeWidth=3;shape=process;whiteSpace=wrap;rounded=0;size=0.14;arcSize=6;shadow=0;glass=0;comic=0;" parent="vJ3IjZ5agWpm-erSKB4o-104" vertex="1">
          <mxGeometry x="187.5" y="228.82999999999998" width="240" height="40" as="geometry" />
        </mxCell>
        <mxCell id="vJ3IjZ5agWpm-erSKB4o-110" value="&lt;font face=&quot;AsobiMemogaki&quot; style=&quot;font-size: 25px;&quot;&gt;&lt;b&gt;定義済処理:Init&lt;/b&gt;&lt;/font&gt;" style="text;html=1;resizable=0;points=[];autosize=1;align=left;verticalAlign=top;spacingTop=-4;rounded=0;" parent="vJ3IjZ5agWpm-erSKB4o-104" vertex="1">
          <mxGeometry x="217.5" y="233" width="180" height="20" as="geometry" />
        </mxCell>
        <mxCell id="vJ3IjZ5agWpm-erSKB4o-121" value="Title:Render" style="swimlane;rounded=0;fontSize=50;strokeColor=#000000;strokeWidth=3;fontFamily=AsobiMemogaki;startSize=67;verticalAlign=middle;arcSize=19;fillColor=default;gradientColor=none;swimlaneFillColor=none;glass=0;shadow=0;aspect=fixed;" parent="1" vertex="1" collapsed="1">
          <mxGeometry x="3694" y="43.25" width="450" height="66.75" as="geometry">
            <mxRectangle x="3694" y="43.25" width="600" height="1200" as="alternateBounds" />
          </mxGeometry>
        </mxCell>
        <mxCell id="vJ3IjZ5agWpm-erSKB4o-127" style="edgeStyle=orthogonalEdgeStyle;rounded=0;orthogonalLoop=1;jettySize=auto;html=1;exitX=0.5;exitY=1;exitDx=0;exitDy=0;exitPerimeter=0;entryX=0.519;entryY=-0.013;entryDx=0;entryDy=0;entryPerimeter=0;fontFamily=AsobiMemogaki;fontSize=30;endArrow=block;endFill=0;" parent="vJ3IjZ5agWpm-erSKB4o-121" source="vJ3IjZ5agWpm-erSKB4o-122" target="vJ3IjZ5agWpm-erSKB4o-125" edge="1">
          <mxGeometry relative="1" as="geometry" />
        </mxCell>
        <mxCell id="vJ3IjZ5agWpm-erSKB4o-122" value="&lt;b style=&quot;font-family: AsobiMemogaki; font-size: 25px;&quot;&gt;開始(Start)&lt;/b&gt;" style="strokeWidth=3;html=1;shape=mxgraph.flowchart.terminator;whiteSpace=wrap;rounded=0;shadow=0;glass=0;comic=0;aspect=fixed;" parent="vJ3IjZ5agWpm-erSKB4o-121" vertex="1">
          <mxGeometry x="222.5" y="131.5" width="175" height="58.33" as="geometry" />
        </mxCell>
        <mxCell id="vJ3IjZ5agWpm-erSKB4o-123" value="" style="rounded=0;whiteSpace=wrap;html=1;absoluteArcSize=1;arcSize=14;strokeWidth=3;aspect=fixed;fillColor=#ffe6cc;strokeColor=#d79b00;" parent="vJ3IjZ5agWpm-erSKB4o-121" vertex="1">
          <mxGeometry x="202.5" y="186.83000000000004" width="42" height="42" as="geometry" />
        </mxCell>
        <mxCell id="vJ3IjZ5agWpm-erSKB4o-124" value="" style="rounded=0;whiteSpace=wrap;html=1;absoluteArcSize=1;arcSize=14;strokeWidth=3;fillColor=#ffe6cc;strokeColor=#d79b00;" parent="vJ3IjZ5agWpm-erSKB4o-121" vertex="1">
          <mxGeometry x="286.5" y="68.5" width="42" height="63" as="geometry" />
        </mxCell>
        <mxCell id="vJ3IjZ5agWpm-erSKB4o-125" value="" style="verticalLabelPosition=bottom;verticalAlign=top;html=1;strokeWidth=3;shape=process;whiteSpace=wrap;rounded=0;size=0.14;arcSize=6;shadow=0;glass=0;comic=0;" parent="vJ3IjZ5agWpm-erSKB4o-121" vertex="1">
          <mxGeometry x="187.5" y="228.82999999999998" width="240" height="40" as="geometry" />
        </mxCell>
        <mxCell id="vJ3IjZ5agWpm-erSKB4o-126" value="&lt;font face=&quot;AsobiMemogaki&quot; style=&quot;font-size: 25px;&quot;&gt;&lt;b&gt;定義済処理:Init&lt;/b&gt;&lt;/font&gt;" style="text;html=1;resizable=0;points=[];autosize=1;align=left;verticalAlign=top;spacingTop=-4;rounded=0;" parent="vJ3IjZ5agWpm-erSKB4o-121" vertex="1">
          <mxGeometry x="217.5" y="233" width="180" height="20" as="geometry" />
        </mxCell>
        <mxCell id="vJ3IjZ5agWpm-erSKB4o-134" value="Title:" style="swimlane;rounded=0;fontSize=50;strokeColor=#000000;strokeWidth=3;fontFamily=AsobiMemogaki;startSize=67;verticalAlign=middle;arcSize=19;fillColor=default;gradientColor=none;swimlaneFillColor=none;glass=0;shadow=0;aspect=fixed;" parent="1" vertex="1" collapsed="1">
          <mxGeometry x="-1145" y="13.25" width="450" height="66.75" as="geometry">
            <mxRectangle x="-2210" width="600" height="1200" as="alternateBounds" />
          </mxGeometry>
        </mxCell>
      </root>
    </mxGraphModel>
  </diagram>
  <diagram id="SIBR8JVRIrvBicc1WjG_" name="Sequence Chart">
    <mxGraphModel dx="1422" dy="875" grid="1" gridSize="10" guides="1" tooltips="1" connect="1" arrows="1" fold="1" page="1" pageScale="1" pageWidth="827" pageHeight="1169" background="#ffffff" math="0" shadow="0">
      <root>
        <mxCell id="0" />
        <mxCell id="1" parent="0" />
      </root>
    </mxGraphModel>
  </diagram>
  <diagram id="DHMqi2kpycABYLg0SRsI" name="Activity Chart">
    <mxGraphModel dx="1422" dy="875" grid="1" gridSize="10" guides="1" tooltips="1" connect="1" arrows="1" fold="1" page="1" pageScale="1" pageWidth="827" pageHeight="1169" background="#ffffff" math="0" shadow="0">
      <root>
        <mxCell id="0" />
        <mxCell id="1" parent="0" />
      </root>
    </mxGraphModel>
  </diagram>
  <diagram id="byK9zjGDSTQlV0NVsNNI" name="Class Chart">
    <mxGraphModel dx="1422" dy="875" grid="1" gridSize="10" guides="1" tooltips="1" connect="1" arrows="1" fold="1" page="1" pageScale="1" pageWidth="827" pageHeight="1169" background="#ffffff" math="0" shadow="0">
      <root>
        <mxCell id="0" />
        <mxCell id="1" parent="0" />
        <mxCell id="vRAII94xCJ6-noor-me1-6" value="Classname" style="swimlane;fontStyle=1;align=center;verticalAlign=top;childLayout=stackLayout;horizontal=1;startSize=26;horizontalStack=0;resizeParent=1;resizeParentMax=0;resizeLast=0;collapsible=1;marginBottom=0;rounded=0;" parent="1" vertex="1">
          <mxGeometry x="20" y="10" width="160" height="86" as="geometry" />
        </mxCell>
        <mxCell id="vRAII94xCJ6-noor-me1-7" value="+ field: type" style="text;strokeColor=none;fillColor=none;align=left;verticalAlign=top;spacingLeft=4;spacingRight=4;overflow=hidden;rotatable=0;points=[[0,0.5],[1,0.5]];portConstraint=eastwest;rounded=0;" parent="vRAII94xCJ6-noor-me1-6" vertex="1">
          <mxGeometry y="26" width="160" height="26" as="geometry" />
        </mxCell>
        <mxCell id="vRAII94xCJ6-noor-me1-8" value="" style="line;strokeWidth=1;fillColor=none;align=left;verticalAlign=middle;spacingTop=-1;spacingLeft=3;spacingRight=3;rotatable=0;labelPosition=right;points=[];portConstraint=eastwest;rounded=0;" parent="vRAII94xCJ6-noor-me1-6" vertex="1">
          <mxGeometry y="52" width="160" height="8" as="geometry" />
        </mxCell>
        <mxCell id="vRAII94xCJ6-noor-me1-9" value="+ method(type): type" style="text;strokeColor=none;fillColor=none;align=left;verticalAlign=top;spacingLeft=4;spacingRight=4;overflow=hidden;rotatable=0;points=[[0,0.5],[1,0.5]];portConstraint=eastwest;rounded=0;" parent="vRAII94xCJ6-noor-me1-6" vertex="1">
          <mxGeometry y="60" width="160" height="26" as="geometry" />
        </mxCell>
      </root>
    </mxGraphModel>
  </diagram>
  <diagram id="HYEKNNbzPxQlusysOU6j" name="Object Chart">
    <mxGraphModel dx="1422" dy="875" grid="1" gridSize="10" guides="1" tooltips="1" connect="1" arrows="1" fold="1" page="1" pageScale="1" pageWidth="827" pageHeight="1169" background="#ffffff" math="0" shadow="0">
      <root>
        <mxCell id="0" />
        <mxCell id="1" parent="0" />
      </root>
    </mxGraphModel>
  </diagram>
  <diagram id="8Feo2pbNz3kHHalTPfX5" name="Component Charts">
    <mxGraphModel dx="1422" dy="875" grid="1" gridSize="10" guides="1" tooltips="1" connect="1" arrows="1" fold="1" page="1" pageScale="1" pageWidth="827" pageHeight="1169" background="#ffffff" math="0" shadow="0">
      <root>
        <mxCell id="0" />
        <mxCell id="1" parent="0" />
      </root>
    </mxGraphModel>
  </diagram>
  <diagram id="8anw3CSdZ9RILgqmspnl" name="State Transition Charts">
    <mxGraphModel dx="1422" dy="875" grid="1" gridSize="10" guides="1" tooltips="1" connect="1" arrows="1" fold="1" page="1" pageScale="1" pageWidth="827" pageHeight="1169" background="#ffffff" math="0" shadow="0">
      <root>
        <mxCell id="0" />
        <mxCell id="1" parent="0" />
      </root>
    </mxGraphModel>
  </diagram>
  <diagram id="hjJhLCi5dbCxMtqOYE69" name="Timing Charts">
    <mxGraphModel dx="1422" dy="875" grid="1" gridSize="10" guides="1" tooltips="1" connect="1" arrows="1" fold="1" page="1" pageScale="1" pageWidth="827" pageHeight="1169" background="#ffffff" math="0" shadow="0">
      <root>
        <mxCell id="0" />
        <mxCell id="1" parent="0" />
      </root>
    </mxGraphModel>
  </diagram>
  <diagram id="JB3AgxIc4yroFPAjxAPV" name="BD">
    <mxGraphModel dx="3008" dy="2002" grid="1" gridSize="10" guides="1" tooltips="1" connect="1" arrows="1" fold="1" page="1" pageScale="1" pageWidth="827" pageHeight="1169" math="0" shadow="0">
      <root>
        <mxCell id="0" />
        <mxCell id="1" parent="0" />
        <mxCell id="PERNU21UyIzNQEn90QrN-120" value="" style="whiteSpace=wrap;html=1;aspect=fixed;rounded=0;shadow=0;glass=0;labelBackgroundColor=none;labelBorderColor=none;fontFamily=Helvetica;fontSize=25;strokeWidth=2;" vertex="1" parent="1">
          <mxGeometry x="-535" y="-340" width="40" height="40" as="geometry" />
        </mxCell>
        <mxCell id="N6tzWt-QyrFrygqP_91J-2" value="Human" style="swimlane;fontStyle=1;childLayout=stackLayout;horizontal=1;startSize=26;horizontalStack=0;resizeParent=1;resizeParentMax=0;resizeLast=0;collapsible=1;marginBottom=0;align=center;fontSize=25;shadow=0;glass=0;labelBackgroundColor=none;labelBorderColor=none;fontFamily=Helvetica;strokeColor=default;strokeWidth=2;fillColor=#999999;rounded=0;swimlaneFillColor=#CCCCCC;" vertex="1" parent="1">
          <mxGeometry x="-1110" y="-792" width="250" height="266" as="geometry">
            <mxRectangle x="-1020" y="88" width="120" height="40" as="alternateBounds" />
          </mxGeometry>
        </mxCell>
        <mxCell id="N6tzWt-QyrFrygqP_91J-6" value="" style="shape=table;startSize=0;container=1;collapsible=1;childLayout=tableLayout;fixedRows=1;rowLines=0;fontStyle=0;align=center;resizeLast=1;strokeColor=default;fillColor=none;collapsible=0;rounded=0;shadow=0;glass=0;labelBackgroundColor=none;labelBorderColor=none;fontFamily=AsobiMemogaki;fontSize=16;strokeWidth=2;" vertex="1" parent="N6tzWt-QyrFrygqP_91J-2">
          <mxGeometry y="26" width="250" height="30" as="geometry" />
        </mxCell>
        <mxCell id="N6tzWt-QyrFrygqP_91J-7" value="" style="shape=tableRow;horizontal=0;startSize=0;swimlaneHead=0;swimlaneBody=0;fillColor=none;collapsible=0;dropTarget=0;points=[[0,0.5],[1,0.5]];portConstraint=eastwest;top=0;left=0;right=0;bottom=0;rounded=0;shadow=0;glass=0;labelBackgroundColor=none;labelBorderColor=none;fontFamily=AsobiMemogaki;fontSize=16;strokeColor=default;strokeWidth=0;swimlaneFillColor=none;" vertex="1" parent="N6tzWt-QyrFrygqP_91J-6">
          <mxGeometry width="250" height="30" as="geometry" />
        </mxCell>
        <mxCell id="N6tzWt-QyrFrygqP_91J-8" value="firstName" style="shape=partialRectangle;connectable=0;fillColor=none;top=0;left=0;bottom=0;right=0;editable=1;overflow=hidden;rounded=0;shadow=0;glass=0;labelBackgroundColor=none;labelBorderColor=none;fontFamily=Helvetica;fontSize=15;strokeColor=default;strokeWidth=0;fontStyle=1;" vertex="1" parent="N6tzWt-QyrFrygqP_91J-7">
          <mxGeometry width="120" height="30" as="geometry">
            <mxRectangle width="120" height="30" as="alternateBounds" />
          </mxGeometry>
        </mxCell>
        <mxCell id="N6tzWt-QyrFrygqP_91J-9" value="John" style="shape=partialRectangle;connectable=0;fillColor=none;top=0;left=0;bottom=0;right=0;align=left;spacingLeft=6;overflow=hidden;rounded=0;shadow=0;glass=0;labelBackgroundColor=none;labelBorderColor=none;fontFamily=Helvetica;fontSize=15;strokeColor=default;strokeWidth=0;fontStyle=0;" vertex="1" parent="N6tzWt-QyrFrygqP_91J-7">
          <mxGeometry x="120" width="130" height="30" as="geometry">
            <mxRectangle width="130" height="30" as="alternateBounds" />
          </mxGeometry>
        </mxCell>
        <mxCell id="N6tzWt-QyrFrygqP_91J-10" value="" style="shape=table;startSize=0;container=1;collapsible=1;childLayout=tableLayout;fixedRows=1;rowLines=0;fontStyle=0;align=center;resizeLast=1;strokeColor=default;fillColor=none;collapsible=0;rounded=0;shadow=0;glass=0;labelBackgroundColor=none;labelBorderColor=none;fontFamily=AsobiMemogaki;fontSize=16;strokeWidth=2;" vertex="1" parent="N6tzWt-QyrFrygqP_91J-2">
          <mxGeometry y="56" width="250" height="30" as="geometry" />
        </mxCell>
        <mxCell id="N6tzWt-QyrFrygqP_91J-11" value="" style="shape=tableRow;horizontal=0;startSize=0;swimlaneHead=0;swimlaneBody=0;fillColor=none;collapsible=0;dropTarget=0;points=[[0,0.5],[1,0.5]];portConstraint=eastwest;top=0;left=0;right=0;bottom=0;rounded=0;shadow=0;glass=0;labelBackgroundColor=none;labelBorderColor=none;fontFamily=AsobiMemogaki;fontSize=16;strokeColor=default;strokeWidth=0;swimlaneFillColor=none;" vertex="1" parent="N6tzWt-QyrFrygqP_91J-10">
          <mxGeometry width="250" height="30" as="geometry" />
        </mxCell>
        <mxCell id="N6tzWt-QyrFrygqP_91J-12" value="lastName" style="shape=partialRectangle;connectable=0;fillColor=none;top=0;left=0;bottom=0;right=0;editable=1;overflow=hidden;rounded=0;shadow=0;glass=0;labelBackgroundColor=none;labelBorderColor=none;fontFamily=Helvetica;fontSize=15;strokeColor=default;strokeWidth=0;fontStyle=1;" vertex="1" parent="N6tzWt-QyrFrygqP_91J-11">
          <mxGeometry width="120" height="30" as="geometry">
            <mxRectangle width="120" height="30" as="alternateBounds" />
          </mxGeometry>
        </mxCell>
        <mxCell id="N6tzWt-QyrFrygqP_91J-13" value="Smith" style="shape=partialRectangle;connectable=0;fillColor=none;top=0;left=0;bottom=0;right=0;align=left;spacingLeft=6;overflow=hidden;rounded=0;shadow=0;glass=0;labelBackgroundColor=none;labelBorderColor=none;fontFamily=Helvetica;fontSize=15;strokeColor=default;strokeWidth=0;fontStyle=0;" vertex="1" parent="N6tzWt-QyrFrygqP_91J-11">
          <mxGeometry x="120" width="130" height="30" as="geometry">
            <mxRectangle width="130" height="30" as="alternateBounds" />
          </mxGeometry>
        </mxCell>
        <mxCell id="N6tzWt-QyrFrygqP_91J-14" value="" style="shape=table;startSize=0;container=1;collapsible=1;childLayout=tableLayout;fixedRows=1;rowLines=0;fontStyle=0;align=center;resizeLast=1;strokeColor=default;fillColor=none;collapsible=0;rounded=0;shadow=0;glass=0;labelBackgroundColor=none;labelBorderColor=none;fontFamily=AsobiMemogaki;fontSize=16;strokeWidth=2;" vertex="1" parent="N6tzWt-QyrFrygqP_91J-2">
          <mxGeometry y="86" width="250" height="30" as="geometry" />
        </mxCell>
        <mxCell id="N6tzWt-QyrFrygqP_91J-15" value="" style="shape=tableRow;horizontal=0;startSize=0;swimlaneHead=0;swimlaneBody=0;fillColor=none;collapsible=0;dropTarget=0;points=[[0,0.5],[1,0.5]];portConstraint=eastwest;top=0;left=0;right=0;bottom=0;rounded=0;shadow=0;glass=0;labelBackgroundColor=none;labelBorderColor=none;fontFamily=AsobiMemogaki;fontSize=16;strokeColor=default;strokeWidth=0;swimlaneFillColor=none;" vertex="1" parent="N6tzWt-QyrFrygqP_91J-14">
          <mxGeometry width="250" height="30" as="geometry" />
        </mxCell>
        <mxCell id="N6tzWt-QyrFrygqP_91J-16" value="isAlive" style="shape=partialRectangle;connectable=0;fillColor=none;top=0;left=0;bottom=0;right=0;editable=1;overflow=hidden;rounded=0;shadow=0;glass=0;labelBackgroundColor=none;labelBorderColor=none;fontFamily=Helvetica;fontSize=15;strokeColor=default;strokeWidth=0;fontStyle=1;" vertex="1" parent="N6tzWt-QyrFrygqP_91J-15">
          <mxGeometry width="120" height="30" as="geometry">
            <mxRectangle width="120" height="30" as="alternateBounds" />
          </mxGeometry>
        </mxCell>
        <mxCell id="N6tzWt-QyrFrygqP_91J-17" value="true" style="shape=partialRectangle;connectable=0;fillColor=none;top=0;left=0;bottom=0;right=0;align=left;spacingLeft=6;overflow=hidden;rounded=0;shadow=0;glass=0;labelBackgroundColor=none;labelBorderColor=none;fontFamily=Helvetica;fontSize=15;strokeColor=default;strokeWidth=0;fontStyle=0;" vertex="1" parent="N6tzWt-QyrFrygqP_91J-15">
          <mxGeometry x="120" width="130" height="30" as="geometry">
            <mxRectangle width="130" height="30" as="alternateBounds" />
          </mxGeometry>
        </mxCell>
        <mxCell id="N6tzWt-QyrFrygqP_91J-18" value="" style="shape=table;startSize=0;container=1;collapsible=1;childLayout=tableLayout;fixedRows=1;rowLines=0;fontStyle=0;align=center;resizeLast=1;strokeColor=default;fillColor=none;collapsible=0;rounded=0;shadow=0;glass=0;labelBackgroundColor=none;labelBorderColor=none;fontFamily=AsobiMemogaki;fontSize=16;strokeWidth=2;" vertex="1" parent="N6tzWt-QyrFrygqP_91J-2">
          <mxGeometry y="116" width="250" height="30" as="geometry" />
        </mxCell>
        <mxCell id="N6tzWt-QyrFrygqP_91J-19" value="" style="shape=tableRow;horizontal=0;startSize=0;swimlaneHead=0;swimlaneBody=0;fillColor=none;collapsible=0;dropTarget=0;points=[[0,0.5],[1,0.5]];portConstraint=eastwest;top=0;left=0;right=0;bottom=0;rounded=0;shadow=0;glass=0;labelBackgroundColor=none;labelBorderColor=none;fontFamily=AsobiMemogaki;fontSize=16;strokeColor=default;strokeWidth=0;swimlaneFillColor=none;" vertex="1" parent="N6tzWt-QyrFrygqP_91J-18">
          <mxGeometry width="250" height="30" as="geometry" />
        </mxCell>
        <mxCell id="N6tzWt-QyrFrygqP_91J-20" value="age" style="shape=partialRectangle;connectable=0;fillColor=none;top=0;left=0;bottom=0;right=0;editable=1;overflow=hidden;rounded=0;shadow=0;glass=0;labelBackgroundColor=none;labelBorderColor=none;fontFamily=Helvetica;fontSize=15;strokeColor=default;strokeWidth=0;fontStyle=1;" vertex="1" parent="N6tzWt-QyrFrygqP_91J-19">
          <mxGeometry width="120" height="30" as="geometry">
            <mxRectangle width="120" height="30" as="alternateBounds" />
          </mxGeometry>
        </mxCell>
        <mxCell id="N6tzWt-QyrFrygqP_91J-21" value="27" style="shape=partialRectangle;connectable=0;fillColor=none;top=0;left=0;bottom=0;right=0;align=left;spacingLeft=6;overflow=hidden;rounded=0;shadow=0;glass=0;labelBackgroundColor=none;labelBorderColor=none;fontFamily=Helvetica;fontSize=15;strokeColor=default;strokeWidth=0;fontStyle=0;" vertex="1" parent="N6tzWt-QyrFrygqP_91J-19">
          <mxGeometry x="120" width="130" height="30" as="geometry">
            <mxRectangle width="130" height="30" as="alternateBounds" />
          </mxGeometry>
        </mxCell>
        <mxCell id="N6tzWt-QyrFrygqP_91J-33" value="" style="shape=table;startSize=0;container=1;collapsible=1;childLayout=tableLayout;fixedRows=1;rowLines=0;fontStyle=0;align=center;resizeLast=1;strokeColor=default;fillColor=none;collapsible=0;rounded=0;shadow=0;glass=0;labelBackgroundColor=none;labelBorderColor=none;fontFamily=AsobiMemogaki;fontSize=16;strokeWidth=2;" vertex="1" parent="N6tzWt-QyrFrygqP_91J-2">
          <mxGeometry y="146" width="250" height="30" as="geometry" />
        </mxCell>
        <mxCell id="N6tzWt-QyrFrygqP_91J-34" value="" style="shape=tableRow;horizontal=0;startSize=0;swimlaneHead=0;swimlaneBody=0;fillColor=none;collapsible=0;dropTarget=0;points=[[0,0.5],[1,0.5]];portConstraint=eastwest;top=0;left=0;right=0;bottom=0;rounded=0;shadow=0;glass=0;labelBackgroundColor=none;labelBorderColor=none;fontFamily=AsobiMemogaki;fontSize=16;strokeColor=default;strokeWidth=0;swimlaneFillColor=none;" vertex="1" parent="N6tzWt-QyrFrygqP_91J-33">
          <mxGeometry width="250" height="30" as="geometry" />
        </mxCell>
        <mxCell id="N6tzWt-QyrFrygqP_91J-35" value="address" style="shape=partialRectangle;connectable=0;fillColor=none;top=0;left=0;bottom=0;right=0;editable=1;overflow=hidden;rounded=0;shadow=0;glass=0;labelBackgroundColor=none;labelBorderColor=none;fontFamily=Helvetica;fontSize=15;strokeColor=default;strokeWidth=0;fontStyle=1;" vertex="1" parent="N6tzWt-QyrFrygqP_91J-34">
          <mxGeometry width="120" height="30" as="geometry">
            <mxRectangle width="120" height="30" as="alternateBounds" />
          </mxGeometry>
        </mxCell>
        <mxCell id="N6tzWt-QyrFrygqP_91J-36" value="" style="shape=partialRectangle;connectable=0;fillColor=none;top=0;left=0;bottom=0;right=0;align=left;spacingLeft=6;overflow=hidden;rounded=0;shadow=0;glass=0;labelBackgroundColor=none;labelBorderColor=none;fontFamily=AsobiMemogaki;fontSize=20;strokeColor=default;strokeWidth=0;fontStyle=1;" vertex="1" parent="N6tzWt-QyrFrygqP_91J-34">
          <mxGeometry x="120" width="130" height="30" as="geometry">
            <mxRectangle width="130" height="30" as="alternateBounds" />
          </mxGeometry>
        </mxCell>
        <mxCell id="N6tzWt-QyrFrygqP_91J-37" value="" style="shape=table;startSize=0;container=1;collapsible=1;childLayout=tableLayout;fixedRows=1;rowLines=0;fontStyle=0;align=center;resizeLast=1;strokeColor=default;fillColor=none;collapsible=0;rounded=0;shadow=0;glass=0;labelBackgroundColor=none;labelBorderColor=none;fontFamily=AsobiMemogaki;fontSize=16;strokeWidth=2;" vertex="1" parent="N6tzWt-QyrFrygqP_91J-2">
          <mxGeometry y="176" width="250" height="30" as="geometry" />
        </mxCell>
        <mxCell id="N6tzWt-QyrFrygqP_91J-38" value="" style="shape=tableRow;horizontal=0;startSize=0;swimlaneHead=0;swimlaneBody=0;fillColor=none;collapsible=0;dropTarget=0;points=[[0,0.5],[1,0.5]];portConstraint=eastwest;top=0;left=0;right=0;bottom=0;rounded=0;shadow=0;glass=0;labelBackgroundColor=none;labelBorderColor=none;fontFamily=AsobiMemogaki;fontSize=16;strokeColor=default;strokeWidth=0;swimlaneFillColor=none;" vertex="1" parent="N6tzWt-QyrFrygqP_91J-37">
          <mxGeometry width="250" height="30" as="geometry" />
        </mxCell>
        <mxCell id="N6tzWt-QyrFrygqP_91J-39" value="phoneNumbers" style="shape=partialRectangle;connectable=0;fillColor=none;top=0;left=0;bottom=0;right=0;editable=1;overflow=hidden;rounded=0;shadow=0;glass=0;labelBackgroundColor=none;labelBorderColor=none;fontFamily=Helvetica;fontSize=15;strokeColor=default;strokeWidth=0;fontStyle=1;" vertex="1" parent="N6tzWt-QyrFrygqP_91J-38">
          <mxGeometry width="120" height="30" as="geometry">
            <mxRectangle width="120" height="30" as="alternateBounds" />
          </mxGeometry>
        </mxCell>
        <mxCell id="N6tzWt-QyrFrygqP_91J-40" value="" style="shape=partialRectangle;connectable=0;fillColor=none;top=0;left=0;bottom=0;right=0;align=left;spacingLeft=6;overflow=hidden;rounded=0;shadow=0;glass=0;labelBackgroundColor=none;labelBorderColor=none;fontFamily=AsobiMemogaki;fontSize=20;strokeColor=default;strokeWidth=0;fontStyle=1;" vertex="1" parent="N6tzWt-QyrFrygqP_91J-38">
          <mxGeometry x="120" width="130" height="30" as="geometry">
            <mxRectangle width="130" height="30" as="alternateBounds" />
          </mxGeometry>
        </mxCell>
        <mxCell id="N6tzWt-QyrFrygqP_91J-55" style="rounded=0;orthogonalLoop=1;jettySize=auto;html=1;dashed=1;fontFamily=AsobiMemogaki;fontSize=16;startArrow=oval;startFill=1;endArrow=classicThin;endFill=1;strokeWidth=2;edgeStyle=entityRelationEdgeStyle;curved=1;entryX=0;entryY=0.5;entryDx=0;entryDy=0;" edge="1" parent="N6tzWt-QyrFrygqP_91J-2" target="N6tzWt-QyrFrygqP_91J-56">
          <mxGeometry relative="1" as="geometry">
            <mxPoint x="450" y="260" as="targetPoint" />
            <mxPoint x="250" y="220" as="sourcePoint" />
          </mxGeometry>
        </mxCell>
        <mxCell id="N6tzWt-QyrFrygqP_91J-44" value="" style="shape=table;startSize=0;container=1;collapsible=1;childLayout=tableLayout;fixedRows=1;rowLines=0;fontStyle=0;align=center;resizeLast=1;strokeColor=default;fillColor=none;collapsible=0;rounded=0;shadow=0;glass=0;labelBackgroundColor=none;labelBorderColor=none;fontFamily=AsobiMemogaki;fontSize=16;strokeWidth=2;" vertex="1" parent="N6tzWt-QyrFrygqP_91J-2">
          <mxGeometry y="206" width="250" height="30" as="geometry" />
        </mxCell>
        <mxCell id="N6tzWt-QyrFrygqP_91J-45" value="" style="shape=tableRow;horizontal=0;startSize=0;swimlaneHead=0;swimlaneBody=0;fillColor=none;collapsible=0;dropTarget=0;points=[[0,0.5],[1,0.5]];portConstraint=eastwest;top=0;left=0;right=0;bottom=0;rounded=0;shadow=0;glass=0;labelBackgroundColor=none;labelBorderColor=none;fontFamily=AsobiMemogaki;fontSize=16;strokeColor=default;strokeWidth=0;swimlaneFillColor=none;" vertex="1" parent="N6tzWt-QyrFrygqP_91J-44">
          <mxGeometry width="250" height="30" as="geometry" />
        </mxCell>
        <mxCell id="N6tzWt-QyrFrygqP_91J-46" value="children" style="shape=partialRectangle;connectable=0;fillColor=none;top=0;left=0;bottom=0;right=0;editable=1;overflow=hidden;rounded=0;shadow=0;glass=0;labelBackgroundColor=none;labelBorderColor=none;fontFamily=Helvetica;fontSize=15;strokeColor=default;strokeWidth=0;fontStyle=1;" vertex="1" parent="N6tzWt-QyrFrygqP_91J-45">
          <mxGeometry width="120" height="30" as="geometry">
            <mxRectangle width="120" height="30" as="alternateBounds" />
          </mxGeometry>
        </mxCell>
        <mxCell id="N6tzWt-QyrFrygqP_91J-47" value="" style="shape=partialRectangle;connectable=0;fillColor=none;top=0;left=0;bottom=0;right=0;align=left;spacingLeft=6;overflow=hidden;rounded=0;shadow=0;glass=0;labelBackgroundColor=none;labelBorderColor=none;fontFamily=AsobiMemogaki;fontSize=20;strokeColor=default;strokeWidth=0;fontStyle=1;" vertex="1" parent="N6tzWt-QyrFrygqP_91J-45">
          <mxGeometry x="120" width="130" height="30" as="geometry">
            <mxRectangle width="130" height="30" as="alternateBounds" />
          </mxGeometry>
        </mxCell>
        <mxCell id="N6tzWt-QyrFrygqP_91J-51" value="" style="shape=table;startSize=0;container=1;collapsible=1;childLayout=tableLayout;fixedRows=1;rowLines=0;fontStyle=0;align=center;resizeLast=1;strokeColor=default;fillColor=none;collapsible=0;rounded=0;shadow=0;glass=0;labelBackgroundColor=none;labelBorderColor=none;fontFamily=AsobiMemogaki;fontSize=16;strokeWidth=2;" vertex="1" parent="N6tzWt-QyrFrygqP_91J-2">
          <mxGeometry y="236" width="250" height="30" as="geometry" />
        </mxCell>
        <mxCell id="N6tzWt-QyrFrygqP_91J-52" value="" style="shape=tableRow;horizontal=0;startSize=0;swimlaneHead=0;swimlaneBody=0;fillColor=none;collapsible=0;dropTarget=0;points=[[0,0.5],[1,0.5]];portConstraint=eastwest;top=0;left=0;right=0;bottom=0;rounded=0;shadow=0;glass=0;labelBackgroundColor=none;labelBorderColor=none;fontFamily=AsobiMemogaki;fontSize=16;strokeColor=default;strokeWidth=0;swimlaneFillColor=none;" vertex="1" parent="N6tzWt-QyrFrygqP_91J-51">
          <mxGeometry width="250" height="30" as="geometry" />
        </mxCell>
        <mxCell id="N6tzWt-QyrFrygqP_91J-53" value="spouse" style="shape=partialRectangle;connectable=0;fillColor=none;top=0;left=0;bottom=0;right=0;editable=1;overflow=hidden;rounded=0;shadow=0;glass=0;labelBackgroundColor=none;labelBorderColor=none;fontFamily=Helvetica;fontSize=15;strokeColor=default;strokeWidth=0;fontStyle=1;" vertex="1" parent="N6tzWt-QyrFrygqP_91J-52">
          <mxGeometry width="120" height="30" as="geometry">
            <mxRectangle width="120" height="30" as="alternateBounds" />
          </mxGeometry>
        </mxCell>
        <mxCell id="N6tzWt-QyrFrygqP_91J-54" value="null" style="shape=partialRectangle;connectable=0;fillColor=none;top=0;left=0;bottom=0;right=0;align=left;spacingLeft=6;overflow=hidden;rounded=0;shadow=0;glass=0;labelBackgroundColor=none;labelBorderColor=none;fontFamily=Helvetica;fontSize=15;strokeColor=default;strokeWidth=0;fontStyle=1;" vertex="1" parent="N6tzWt-QyrFrygqP_91J-52">
          <mxGeometry x="120" width="130" height="30" as="geometry">
            <mxRectangle width="130" height="30" as="alternateBounds" />
          </mxGeometry>
        </mxCell>
        <mxCell id="N6tzWt-QyrFrygqP_91J-56" value="" style="rounded=0;arcSize=10;whiteSpace=wrap;html=1;align=center;shadow=0;glass=0;labelBackgroundColor=none;labelBorderColor=none;fontFamily=AsobiMemogaki;fontSize=16;strokeColor=default;strokeWidth=2;fillColor=#CCCCCC;" vertex="1" parent="1">
          <mxGeometry x="-650" y="-552" width="80" height="40" as="geometry" />
        </mxCell>
        <mxCell id="KifoNkAVJgC77Ydg2W3O-1" value="" style="rounded=0;arcSize=10;whiteSpace=wrap;html=1;align=center;shadow=0;glass=0;labelBackgroundColor=none;labelBorderColor=none;fontFamily=AsobiMemogaki;fontSize=16;strokeColor=default;strokeWidth=2;fillColor=#CCCCCC;" vertex="1" parent="1">
          <mxGeometry x="-610" y="-642" width="40" height="80" as="geometry" />
        </mxCell>
        <mxCell id="KifoNkAVJgC77Ydg2W3O-2" style="edgeStyle=entityRelationEdgeStyle;orthogonalLoop=1;jettySize=auto;html=1;exitX=1;exitY=0.5;exitDx=0;exitDy=0;entryX=0;entryY=0.5;entryDx=0;entryDy=0;fontFamily=AsobiMemogaki;fontSize=22;startArrow=none;startFill=0;endArrow=none;endFill=0;strokeWidth=2;elbow=vertical;curved=1;rounded=0;" edge="1" parent="1" source="KifoNkAVJgC77Ydg2W3O-1" target="KifoNkAVJgC77Ydg2W3O-1">
          <mxGeometry relative="1" as="geometry" />
        </mxCell>
        <mxCell id="KifoNkAVJgC77Ydg2W3O-5" value="" style="endArrow=classic;html=1;fontFamily=AsobiMemogaki;fontSize=22;targetPerimeterSpacing=100;strokeWidth=2;elbow=vertical;entryX=0;entryY=0.5;entryDx=0;entryDy=0;startArrow=oval;startFill=1;endFill=1;dashed=1;curved=1;exitX=1;exitY=0.5;exitDx=0;exitDy=0;rounded=0;" edge="1" parent="1" source="N6tzWt-QyrFrygqP_91J-38" target="KifoNkAVJgC77Ydg2W3O-1">
          <mxGeometry width="50" height="50" relative="1" as="geometry">
            <mxPoint x="-860" y="-602" as="sourcePoint" />
            <mxPoint x="-680" y="-632" as="targetPoint" />
          </mxGeometry>
        </mxCell>
        <mxCell id="KifoNkAVJgC77Ydg2W3O-6" value="address" style="swimlane;fontStyle=1;childLayout=stackLayout;horizontal=1;startSize=26;horizontalStack=0;resizeParent=1;resizeParentMax=0;resizeLast=0;collapsible=1;marginBottom=0;align=center;fontSize=25;rounded=0;shadow=0;glass=0;labelBackgroundColor=none;fontFamily=Helvetica;strokeColor=default;strokeWidth=2;fillColor=#B3B3B3;swimlaneFillColor=#CCCCCC;" vertex="1" parent="1">
          <mxGeometry x="-740" y="-840" width="224.5" height="146" as="geometry">
            <mxRectangle x="-650" y="40" width="130" height="40" as="alternateBounds" />
          </mxGeometry>
        </mxCell>
        <mxCell id="KifoNkAVJgC77Ydg2W3O-12" value="" style="shape=table;startSize=0;container=1;collapsible=1;childLayout=tableLayout;fixedRows=1;rowLines=0;fontStyle=0;align=center;resizeLast=1;strokeColor=default;fillColor=none;collapsible=0;rounded=0;shadow=0;glass=0;labelBackgroundColor=none;labelBorderColor=none;fontFamily=AsobiMemogaki;fontSize=16;strokeWidth=2;" vertex="1" parent="KifoNkAVJgC77Ydg2W3O-6">
          <mxGeometry y="26" width="224.5" height="30" as="geometry" />
        </mxCell>
        <mxCell id="KifoNkAVJgC77Ydg2W3O-13" value="" style="shape=tableRow;horizontal=0;startSize=0;swimlaneHead=0;swimlaneBody=0;fillColor=none;collapsible=0;dropTarget=0;points=[[0,0.5],[1,0.5]];portConstraint=eastwest;top=0;left=0;right=0;bottom=0;rounded=0;shadow=0;glass=0;labelBackgroundColor=none;labelBorderColor=none;fontFamily=AsobiMemogaki;fontSize=16;strokeColor=default;strokeWidth=0;swimlaneFillColor=none;" vertex="1" parent="KifoNkAVJgC77Ydg2W3O-12">
          <mxGeometry width="224.5" height="30" as="geometry" />
        </mxCell>
        <mxCell id="KifoNkAVJgC77Ydg2W3O-14" value="streetAddress" style="shape=partialRectangle;connectable=0;fillColor=none;top=0;left=0;bottom=0;right=0;editable=1;overflow=hidden;rounded=0;shadow=0;glass=0;labelBackgroundColor=none;labelBorderColor=none;fontFamily=Helvetica;fontSize=15;strokeColor=default;strokeWidth=0;fontStyle=1;" vertex="1" parent="KifoNkAVJgC77Ydg2W3O-13">
          <mxGeometry width="109.99999999999977" height="30" as="geometry">
            <mxRectangle width="109.99999999999977" height="30" as="alternateBounds" />
          </mxGeometry>
        </mxCell>
        <mxCell id="KifoNkAVJgC77Ydg2W3O-15" value="21 2nd Steet" style="shape=partialRectangle;connectable=0;fillColor=none;top=0;left=0;bottom=0;right=0;align=left;spacingLeft=6;overflow=hidden;rounded=0;shadow=0;glass=0;labelBackgroundColor=none;labelBorderColor=none;fontFamily=Helvetica;fontSize=15;strokeColor=default;strokeWidth=0;fontStyle=0;" vertex="1" parent="KifoNkAVJgC77Ydg2W3O-13">
          <mxGeometry x="109.99999999999977" width="114.50000000000023" height="30" as="geometry">
            <mxRectangle width="114.50000000000023" height="30" as="alternateBounds" />
          </mxGeometry>
        </mxCell>
        <mxCell id="KifoNkAVJgC77Ydg2W3O-16" value="" style="shape=table;startSize=0;container=1;collapsible=1;childLayout=tableLayout;fixedRows=1;rowLines=0;fontStyle=0;align=center;resizeLast=1;strokeColor=default;fillColor=none;collapsible=0;rounded=0;shadow=0;glass=0;labelBackgroundColor=none;labelBorderColor=none;fontFamily=AsobiMemogaki;fontSize=16;strokeWidth=2;" vertex="1" parent="KifoNkAVJgC77Ydg2W3O-6">
          <mxGeometry y="56" width="224.5" height="30" as="geometry" />
        </mxCell>
        <mxCell id="KifoNkAVJgC77Ydg2W3O-17" value="" style="shape=tableRow;horizontal=0;startSize=0;swimlaneHead=0;swimlaneBody=0;fillColor=none;collapsible=0;dropTarget=0;points=[[0,0.5],[1,0.5]];portConstraint=eastwest;top=0;left=0;right=0;bottom=0;rounded=0;shadow=0;glass=0;labelBackgroundColor=none;labelBorderColor=none;fontFamily=AsobiMemogaki;fontSize=16;strokeColor=default;strokeWidth=0;swimlaneFillColor=none;" vertex="1" parent="KifoNkAVJgC77Ydg2W3O-16">
          <mxGeometry width="224.5" height="30" as="geometry" />
        </mxCell>
        <mxCell id="KifoNkAVJgC77Ydg2W3O-18" value="city" style="shape=partialRectangle;connectable=0;fillColor=none;top=0;left=0;bottom=0;right=0;editable=1;overflow=hidden;rounded=0;shadow=0;glass=0;labelBackgroundColor=none;labelBorderColor=none;fontFamily=Helvetica;fontSize=15;strokeColor=default;strokeWidth=0;fontStyle=1;" vertex="1" parent="KifoNkAVJgC77Ydg2W3O-17">
          <mxGeometry width="109.99999999999977" height="30" as="geometry">
            <mxRectangle width="109.99999999999977" height="30" as="alternateBounds" />
          </mxGeometry>
        </mxCell>
        <mxCell id="KifoNkAVJgC77Ydg2W3O-19" value="New York" style="shape=partialRectangle;connectable=0;fillColor=none;top=0;left=0;bottom=0;right=0;align=left;spacingLeft=6;overflow=hidden;rounded=0;shadow=0;glass=0;labelBackgroundColor=none;labelBorderColor=none;fontFamily=Helvetica;fontSize=15;strokeColor=default;strokeWidth=0;fontStyle=0;" vertex="1" parent="KifoNkAVJgC77Ydg2W3O-17">
          <mxGeometry x="109.99999999999977" width="114.50000000000023" height="30" as="geometry">
            <mxRectangle width="114.50000000000023" height="30" as="alternateBounds" />
          </mxGeometry>
        </mxCell>
        <mxCell id="KifoNkAVJgC77Ydg2W3O-20" value="" style="shape=table;startSize=0;container=1;collapsible=1;childLayout=tableLayout;fixedRows=1;rowLines=0;fontStyle=0;align=center;resizeLast=1;strokeColor=default;fillColor=none;collapsible=0;rounded=0;shadow=0;glass=0;labelBackgroundColor=none;labelBorderColor=none;fontFamily=AsobiMemogaki;fontSize=16;strokeWidth=2;" vertex="1" parent="KifoNkAVJgC77Ydg2W3O-6">
          <mxGeometry y="86" width="224.5" height="30" as="geometry" />
        </mxCell>
        <mxCell id="KifoNkAVJgC77Ydg2W3O-21" value="" style="shape=tableRow;horizontal=0;startSize=0;swimlaneHead=0;swimlaneBody=0;fillColor=none;collapsible=0;dropTarget=0;points=[[0,0.5],[1,0.5]];portConstraint=eastwest;top=0;left=0;right=0;bottom=0;rounded=0;shadow=0;glass=0;labelBackgroundColor=none;labelBorderColor=none;fontFamily=AsobiMemogaki;fontSize=16;strokeColor=default;strokeWidth=0;swimlaneFillColor=none;" vertex="1" parent="KifoNkAVJgC77Ydg2W3O-20">
          <mxGeometry width="224.5" height="30" as="geometry" />
        </mxCell>
        <mxCell id="KifoNkAVJgC77Ydg2W3O-22" value="state" style="shape=partialRectangle;connectable=0;fillColor=none;top=0;left=0;bottom=0;right=0;editable=1;overflow=hidden;rounded=0;shadow=0;glass=0;labelBackgroundColor=none;labelBorderColor=none;fontFamily=Helvetica;fontSize=15;strokeColor=default;strokeWidth=0;fontStyle=1;" vertex="1" parent="KifoNkAVJgC77Ydg2W3O-21">
          <mxGeometry width="109.99999999999977" height="30" as="geometry">
            <mxRectangle width="109.99999999999977" height="30" as="alternateBounds" />
          </mxGeometry>
        </mxCell>
        <mxCell id="KifoNkAVJgC77Ydg2W3O-23" value="NY" style="shape=partialRectangle;connectable=0;fillColor=none;top=0;left=0;bottom=0;right=0;align=left;spacingLeft=6;overflow=hidden;rounded=0;shadow=0;glass=0;labelBackgroundColor=none;labelBorderColor=none;fontFamily=Helvetica;fontSize=15;strokeColor=default;strokeWidth=0;fontStyle=0;" vertex="1" parent="KifoNkAVJgC77Ydg2W3O-21">
          <mxGeometry x="109.99999999999977" width="114.50000000000023" height="30" as="geometry">
            <mxRectangle width="114.50000000000023" height="30" as="alternateBounds" />
          </mxGeometry>
        </mxCell>
        <mxCell id="KifoNkAVJgC77Ydg2W3O-30" value="" style="shape=table;startSize=0;container=1;collapsible=1;childLayout=tableLayout;fixedRows=1;rowLines=0;fontStyle=0;align=center;resizeLast=1;strokeColor=default;fillColor=none;collapsible=0;rounded=0;shadow=0;glass=0;labelBackgroundColor=none;labelBorderColor=none;fontFamily=AsobiMemogaki;fontSize=16;strokeWidth=2;" vertex="1" parent="KifoNkAVJgC77Ydg2W3O-6">
          <mxGeometry y="116" width="224.5" height="30" as="geometry" />
        </mxCell>
        <mxCell id="KifoNkAVJgC77Ydg2W3O-31" value="" style="shape=tableRow;horizontal=0;startSize=0;swimlaneHead=0;swimlaneBody=0;fillColor=none;collapsible=0;dropTarget=0;points=[[0,0.5],[1,0.5]];portConstraint=eastwest;top=0;left=0;right=0;bottom=0;rounded=0;shadow=0;glass=0;labelBackgroundColor=none;labelBorderColor=none;fontFamily=AsobiMemogaki;fontSize=16;strokeColor=default;strokeWidth=0;swimlaneFillColor=none;" vertex="1" parent="KifoNkAVJgC77Ydg2W3O-30">
          <mxGeometry width="224.5" height="30" as="geometry" />
        </mxCell>
        <mxCell id="KifoNkAVJgC77Ydg2W3O-32" value=" postalCode" style="shape=partialRectangle;connectable=0;fillColor=none;top=0;left=0;bottom=0;right=0;editable=1;overflow=hidden;rounded=0;shadow=0;glass=0;labelBackgroundColor=none;labelBorderColor=none;fontFamily=Helvetica;fontSize=15;strokeColor=default;strokeWidth=0;fontStyle=1;" vertex="1" parent="KifoNkAVJgC77Ydg2W3O-31">
          <mxGeometry width="109.99999999999977" height="30" as="geometry">
            <mxRectangle width="109.99999999999977" height="30" as="alternateBounds" />
          </mxGeometry>
        </mxCell>
        <mxCell id="KifoNkAVJgC77Ydg2W3O-33" value="10021-3100" style="shape=partialRectangle;connectable=0;fillColor=none;top=0;left=0;bottom=0;right=0;align=left;spacingLeft=6;overflow=hidden;rounded=0;shadow=0;glass=0;labelBackgroundColor=none;labelBorderColor=none;fontFamily=Helvetica;fontSize=15;strokeColor=default;strokeWidth=0;fontStyle=0;" vertex="1" parent="KifoNkAVJgC77Ydg2W3O-31">
          <mxGeometry x="109.99999999999977" width="114.50000000000023" height="30" as="geometry">
            <mxRectangle width="114.50000000000023" height="30" as="alternateBounds" />
          </mxGeometry>
        </mxCell>
        <mxCell id="KifoNkAVJgC77Ydg2W3O-34" value="" style="endArrow=classic;html=1;fontFamily=AsobiMemogaki;fontSize=22;targetPerimeterSpacing=100;strokeWidth=2;elbow=vertical;startArrow=oval;startFill=1;endFill=1;dashed=1;edgeStyle=orthogonalEdgeStyle;rounded=0;entryX=0.223;entryY=1.024;entryDx=0;entryDy=0;entryPerimeter=0;exitX=1;exitY=0.5;exitDx=0;exitDy=0;" edge="1" parent="1" source="N6tzWt-QyrFrygqP_91J-34" target="KifoNkAVJgC77Ydg2W3O-31">
          <mxGeometry width="50" height="50" relative="1" as="geometry">
            <mxPoint x="-850" y="-630" as="sourcePoint" />
            <mxPoint x="-690" y="-690" as="targetPoint" />
            <Array as="points">
              <mxPoint x="-860" y="-630" />
              <mxPoint x="-690" y="-630" />
            </Array>
          </mxGeometry>
        </mxCell>
        <mxCell id="KifoNkAVJgC77Ydg2W3O-35" value="Home" style="swimlane;fontStyle=1;childLayout=stackLayout;horizontal=1;startSize=26;horizontalStack=0;resizeParent=1;resizeParentMax=0;resizeLast=0;collapsible=1;marginBottom=0;align=center;fontSize=25;rounded=0;shadow=0;glass=0;labelBackgroundColor=none;labelBorderColor=none;fontFamily=Helvetica;strokeColor=default;strokeWidth=2;fillColor=#999999;swimlaneFillColor=#B3B3B3;" vertex="1" parent="1">
          <mxGeometry x="-370" y="-718" width="210" height="86" as="geometry" />
        </mxCell>
        <mxCell id="KifoNkAVJgC77Ydg2W3O-41" value="" style="shape=table;startSize=0;container=1;collapsible=1;childLayout=tableLayout;fixedRows=1;rowLines=0;fontStyle=0;align=center;resizeLast=1;strokeColor=default;fillColor=none;collapsible=0;rounded=0;shadow=0;glass=0;labelBackgroundColor=none;labelBorderColor=none;fontFamily=AsobiMemogaki;fontSize=16;strokeWidth=2;" vertex="1" parent="KifoNkAVJgC77Ydg2W3O-35">
          <mxGeometry y="26" width="210" height="30" as="geometry" />
        </mxCell>
        <mxCell id="KifoNkAVJgC77Ydg2W3O-42" value="" style="shape=tableRow;horizontal=0;startSize=0;swimlaneHead=0;swimlaneBody=0;fillColor=none;collapsible=0;dropTarget=0;points=[[0,0.5],[1,0.5]];portConstraint=eastwest;top=0;left=0;right=0;bottom=0;rounded=0;shadow=0;glass=0;labelBackgroundColor=none;labelBorderColor=none;fontFamily=AsobiMemogaki;fontSize=16;strokeColor=default;strokeWidth=0;swimlaneFillColor=none;" vertex="1" parent="KifoNkAVJgC77Ydg2W3O-41">
          <mxGeometry width="210" height="30" as="geometry" />
        </mxCell>
        <mxCell id="KifoNkAVJgC77Ydg2W3O-43" value="type" style="shape=partialRectangle;connectable=0;fillColor=none;top=0;left=0;bottom=0;right=0;editable=1;overflow=hidden;rounded=0;shadow=0;glass=0;labelBackgroundColor=none;labelBorderColor=none;fontFamily=Helvetica;fontSize=15;strokeColor=default;strokeWidth=0;fontStyle=1;" vertex="1" parent="KifoNkAVJgC77Ydg2W3O-42">
          <mxGeometry width="90" height="30" as="geometry">
            <mxRectangle width="90" height="30" as="alternateBounds" />
          </mxGeometry>
        </mxCell>
        <mxCell id="KifoNkAVJgC77Ydg2W3O-44" value="Home" style="shape=partialRectangle;connectable=0;fillColor=none;top=0;left=0;bottom=0;right=0;align=left;spacingLeft=6;overflow=hidden;rounded=0;shadow=0;glass=0;labelBackgroundColor=none;labelBorderColor=none;fontFamily=Helvetica;fontSize=15;strokeColor=default;strokeWidth=0;fontStyle=0;" vertex="1" parent="KifoNkAVJgC77Ydg2W3O-42">
          <mxGeometry x="90" width="120" height="30" as="geometry">
            <mxRectangle width="120" height="30" as="alternateBounds" />
          </mxGeometry>
        </mxCell>
        <mxCell id="KifoNkAVJgC77Ydg2W3O-45" value="" style="shape=table;startSize=0;container=1;collapsible=1;childLayout=tableLayout;fixedRows=1;rowLines=0;fontStyle=0;align=center;resizeLast=1;strokeColor=default;fillColor=none;collapsible=0;rounded=0;shadow=0;glass=0;labelBackgroundColor=none;labelBorderColor=none;fontFamily=AsobiMemogaki;fontSize=16;strokeWidth=2;" vertex="1" parent="KifoNkAVJgC77Ydg2W3O-35">
          <mxGeometry y="56" width="210" height="30" as="geometry" />
        </mxCell>
        <mxCell id="KifoNkAVJgC77Ydg2W3O-46" value="" style="shape=tableRow;horizontal=0;startSize=0;swimlaneHead=0;swimlaneBody=0;fillColor=none;collapsible=0;dropTarget=0;points=[[0,0.5],[1,0.5]];portConstraint=eastwest;top=0;left=0;right=0;bottom=0;rounded=0;shadow=0;glass=0;labelBackgroundColor=none;labelBorderColor=none;fontFamily=AsobiMemogaki;fontSize=16;strokeColor=none;strokeWidth=0;swimlaneFillColor=none;" vertex="1" parent="KifoNkAVJgC77Ydg2W3O-45">
          <mxGeometry width="210" height="30" as="geometry" />
        </mxCell>
        <mxCell id="KifoNkAVJgC77Ydg2W3O-47" value="number" style="shape=partialRectangle;connectable=0;fillColor=none;top=0;left=0;bottom=0;right=0;editable=1;overflow=hidden;rounded=0;shadow=0;glass=0;labelBackgroundColor=none;labelBorderColor=none;fontFamily=Helvetica;fontSize=15;strokeColor=default;strokeWidth=0;fontStyle=1;" vertex="1" parent="KifoNkAVJgC77Ydg2W3O-46">
          <mxGeometry width="90" height="30" as="geometry">
            <mxRectangle width="90" height="30" as="alternateBounds" />
          </mxGeometry>
        </mxCell>
        <mxCell id="KifoNkAVJgC77Ydg2W3O-48" value="212 555-1234" style="shape=partialRectangle;connectable=0;fillColor=none;top=0;left=0;bottom=0;right=0;align=left;spacingLeft=6;overflow=hidden;rounded=0;shadow=0;glass=0;labelBackgroundColor=none;labelBorderColor=none;fontFamily=Helvetica;fontSize=15;strokeColor=none;strokeWidth=0;fontStyle=0;" vertex="1" parent="KifoNkAVJgC77Ydg2W3O-46">
          <mxGeometry x="90" width="120" height="30" as="geometry">
            <mxRectangle width="120" height="30" as="alternateBounds" />
          </mxGeometry>
        </mxCell>
        <mxCell id="KifoNkAVJgC77Ydg2W3O-49" value="Office" style="swimlane;fontStyle=1;childLayout=stackLayout;horizontal=1;startSize=26;horizontalStack=0;resizeParent=1;resizeParentMax=0;resizeLast=0;collapsible=1;marginBottom=0;align=center;fontSize=25;rounded=0;shadow=0;glass=0;labelBackgroundColor=none;labelBorderColor=none;fontFamily=Helvetica;strokeColor=default;strokeWidth=2;fillColor=#999999;swimlaneFillColor=#CCCCCC;" vertex="1" parent="1">
          <mxGeometry x="-370" y="-612" width="220" height="86" as="geometry" />
        </mxCell>
        <mxCell id="KifoNkAVJgC77Ydg2W3O-50" value="" style="shape=table;startSize=0;container=1;collapsible=1;childLayout=tableLayout;fixedRows=1;rowLines=0;fontStyle=0;align=center;resizeLast=1;strokeColor=default;fillColor=none;collapsible=0;rounded=0;shadow=0;glass=0;labelBackgroundColor=none;labelBorderColor=none;fontFamily=AsobiMemogaki;fontSize=16;strokeWidth=2;" vertex="1" parent="KifoNkAVJgC77Ydg2W3O-49">
          <mxGeometry y="26" width="220" height="30" as="geometry" />
        </mxCell>
        <mxCell id="KifoNkAVJgC77Ydg2W3O-51" value="" style="shape=tableRow;horizontal=0;startSize=0;swimlaneHead=0;swimlaneBody=0;fillColor=none;collapsible=0;dropTarget=0;points=[[0,0.5],[1,0.5]];portConstraint=eastwest;top=0;left=0;right=0;bottom=0;rounded=0;shadow=0;glass=0;labelBackgroundColor=none;labelBorderColor=none;fontFamily=AsobiMemogaki;fontSize=16;strokeColor=default;strokeWidth=0;swimlaneFillColor=none;" vertex="1" parent="KifoNkAVJgC77Ydg2W3O-50">
          <mxGeometry width="220" height="30" as="geometry" />
        </mxCell>
        <mxCell id="KifoNkAVJgC77Ydg2W3O-52" value="type" style="shape=partialRectangle;connectable=0;fillColor=none;top=0;left=0;bottom=0;right=0;editable=1;overflow=hidden;rounded=0;shadow=0;glass=0;labelBackgroundColor=none;labelBorderColor=none;fontFamily=Helvetica;fontSize=15;strokeColor=default;strokeWidth=0;fontStyle=1;" vertex="1" parent="KifoNkAVJgC77Ydg2W3O-51">
          <mxGeometry width="100" height="30" as="geometry">
            <mxRectangle width="100" height="30" as="alternateBounds" />
          </mxGeometry>
        </mxCell>
        <mxCell id="KifoNkAVJgC77Ydg2W3O-53" value="Office" style="shape=partialRectangle;connectable=0;fillColor=none;top=0;left=0;bottom=0;right=0;align=left;spacingLeft=6;overflow=hidden;rounded=0;shadow=0;glass=0;labelBackgroundColor=none;labelBorderColor=none;fontFamily=AsobiMemogaki;fontSize=20;strokeColor=default;strokeWidth=0;fontStyle=1;" vertex="1" parent="KifoNkAVJgC77Ydg2W3O-51">
          <mxGeometry x="100" width="120" height="30" as="geometry">
            <mxRectangle width="120" height="30" as="alternateBounds" />
          </mxGeometry>
        </mxCell>
        <mxCell id="KifoNkAVJgC77Ydg2W3O-54" value="" style="shape=table;startSize=0;container=1;collapsible=1;childLayout=tableLayout;fixedRows=1;rowLines=0;fontStyle=0;align=center;resizeLast=1;strokeColor=default;fillColor=none;collapsible=0;rounded=0;shadow=0;glass=0;labelBackgroundColor=none;labelBorderColor=none;fontFamily=AsobiMemogaki;fontSize=16;strokeWidth=2;" vertex="1" parent="KifoNkAVJgC77Ydg2W3O-49">
          <mxGeometry y="56" width="220" height="30" as="geometry" />
        </mxCell>
        <mxCell id="KifoNkAVJgC77Ydg2W3O-55" value="" style="shape=tableRow;horizontal=0;startSize=0;swimlaneHead=0;swimlaneBody=0;fillColor=none;collapsible=0;dropTarget=0;points=[[0,0.5],[1,0.5]];portConstraint=eastwest;top=0;left=0;right=0;bottom=0;rounded=0;shadow=0;glass=0;labelBackgroundColor=none;labelBorderColor=none;fontFamily=AsobiMemogaki;fontSize=16;strokeColor=default;strokeWidth=0;swimlaneFillColor=none;" vertex="1" parent="KifoNkAVJgC77Ydg2W3O-54">
          <mxGeometry width="220" height="30" as="geometry" />
        </mxCell>
        <mxCell id="KifoNkAVJgC77Ydg2W3O-56" value="number" style="shape=partialRectangle;connectable=0;fillColor=none;top=0;left=0;bottom=0;right=0;editable=1;overflow=hidden;rounded=0;shadow=0;glass=0;labelBackgroundColor=none;labelBorderColor=none;fontFamily=AsobiMemogaki;fontSize=20;strokeColor=default;strokeWidth=0;fontStyle=1;" vertex="1" parent="KifoNkAVJgC77Ydg2W3O-55">
          <mxGeometry width="100" height="30" as="geometry">
            <mxRectangle width="100" height="30" as="alternateBounds" />
          </mxGeometry>
        </mxCell>
        <mxCell id="KifoNkAVJgC77Ydg2W3O-57" value="646 555-4567 " style="shape=partialRectangle;connectable=0;fillColor=none;top=0;left=0;bottom=0;right=0;align=left;spacingLeft=6;overflow=hidden;rounded=0;shadow=0;glass=0;labelBackgroundColor=none;labelBorderColor=none;fontFamily=AsobiMemogaki;fontSize=20;strokeColor=default;strokeWidth=0;fontStyle=1;" vertex="1" parent="KifoNkAVJgC77Ydg2W3O-55">
          <mxGeometry x="100" width="120" height="30" as="geometry">
            <mxRectangle width="120" height="30" as="alternateBounds" />
          </mxGeometry>
        </mxCell>
        <mxCell id="KifoNkAVJgC77Ydg2W3O-58" style="rounded=0;orthogonalLoop=1;jettySize=auto;html=1;dashed=1;fontFamily=AsobiMemogaki;fontSize=16;startArrow=oval;startFill=1;endArrow=classicThin;endFill=1;strokeWidth=2;edgeStyle=entityRelationEdgeStyle;curved=1;entryX=0;entryY=0.5;entryDx=0;entryDy=0;exitX=1;exitY=0.75;exitDx=0;exitDy=0;" edge="1" parent="1" source="KifoNkAVJgC77Ydg2W3O-1" target="KifoNkAVJgC77Ydg2W3O-51">
          <mxGeometry relative="1" as="geometry">
            <mxPoint x="-370" y="-573" as="targetPoint" />
            <mxPoint x="-580.88" y="-582" as="sourcePoint" />
          </mxGeometry>
        </mxCell>
        <mxCell id="KifoNkAVJgC77Ydg2W3O-59" style="rounded=0;orthogonalLoop=1;jettySize=auto;html=1;dashed=1;fontFamily=AsobiMemogaki;fontSize=16;startArrow=oval;startFill=1;endArrow=classicThin;endFill=1;strokeWidth=2;entryX=0;entryY=0.5;entryDx=0;entryDy=0;curved=1;" edge="1" parent="1" target="KifoNkAVJgC77Ydg2W3O-46">
          <mxGeometry relative="1" as="geometry">
            <mxPoint x="-370" y="-652" as="targetPoint" />
            <mxPoint x="-570" y="-622" as="sourcePoint" />
          </mxGeometry>
        </mxCell>
        <mxCell id="KifoNkAVJgC77Ydg2W3O-122" value="&lt;b style=&quot;font-size: 30px;&quot;&gt;&lt;span style=&quot;text-align: start; background-color: rgb(255, 255, 255);&quot;&gt;外部キー :&amp;nbsp;&lt;/span&gt;FK :&amp;nbsp;&lt;span style=&quot;text-align: start; background-color: rgb(255, 255, 255);&quot;&gt;Foreign Key&lt;/span&gt;&lt;/b&gt;&amp;nbsp;" style="text;html=1;align=center;verticalAlign=middle;resizable=0;points=[];autosize=1;strokeColor=none;fillColor=none;fontSize=15;fontFamily=Helvetica;rounded=0;" vertex="1" parent="1">
          <mxGeometry x="-1340" y="-470" width="410" height="30" as="geometry" />
        </mxCell>
        <mxCell id="KifoNkAVJgC77Ydg2W3O-123" value="&lt;b style=&quot;font-size: 30px;&quot;&gt;&lt;span style=&quot;color: rgb(24, 12, 12); letter-spacing: 0.4px; text-align: start;&quot;&gt;主キー :&amp;nbsp;&lt;/span&gt;PK :&amp;nbsp;&lt;span style=&quot;color: rgb(24, 12, 12); letter-spacing: 0.4px; text-align: start;&quot;&gt;Primary Key&lt;/span&gt;&lt;/b&gt;" style="text;html=1;align=center;verticalAlign=middle;resizable=0;points=[];autosize=1;strokeColor=none;fillColor=none;fontSize=15;fontFamily=Helvetica;rounded=0;" vertex="1" parent="1">
          <mxGeometry x="-1310" y="-440" width="380" height="30" as="geometry" />
        </mxCell>
        <mxCell id="PERNU21UyIzNQEn90QrN-71" value="address" style="shape=table;startSize=30;container=1;collapsible=1;childLayout=tableLayout;fixedRows=1;rowLines=0;fontStyle=1;align=center;resizeLast=1;rounded=0;shadow=0;glass=0;labelBackgroundColor=none;labelBorderColor=none;fontFamily=Helvetica;fontSize=25;strokeColor=#FF0000;strokeWidth=2;fillColor=#FFFF99;" vertex="1" parent="1">
          <mxGeometry x="-725" y="-460" width="190" height="160" as="geometry">
            <mxRectangle x="-660" y="400" width="130" height="40" as="alternateBounds" />
          </mxGeometry>
        </mxCell>
        <mxCell id="PERNU21UyIzNQEn90QrN-72" value="" style="shape=tableRow;horizontal=0;startSize=0;swimlaneHead=0;swimlaneBody=0;fillColor=none;collapsible=0;dropTarget=0;points=[[0,0.5],[1,0.5]];portConstraint=eastwest;top=0;left=0;right=0;bottom=1;rounded=0;shadow=0;glass=0;labelBackgroundColor=none;labelBorderColor=none;fontFamily=Helvetica;fontSize=25;strokeColor=#FF0000;strokeWidth=2;" vertex="1" parent="PERNU21UyIzNQEn90QrN-71">
          <mxGeometry y="30" width="190" height="30" as="geometry" />
        </mxCell>
        <mxCell id="PERNU21UyIzNQEn90QrN-73" value="PK" style="shape=partialRectangle;connectable=0;fillColor=none;top=0;left=0;bottom=0;right=0;fontStyle=1;overflow=hidden;rounded=0;shadow=0;glass=0;labelBackgroundColor=none;labelBorderColor=none;fontFamily=Helvetica;fontSize=25;strokeColor=#FF0000;strokeWidth=2;" vertex="1" parent="PERNU21UyIzNQEn90QrN-72">
          <mxGeometry width="85" height="30" as="geometry">
            <mxRectangle width="85" height="30" as="alternateBounds" />
          </mxGeometry>
        </mxCell>
        <mxCell id="PERNU21UyIzNQEn90QrN-74" value="id" style="shape=partialRectangle;connectable=0;fillColor=none;top=0;left=0;bottom=0;right=0;align=left;spacingLeft=6;fontStyle=1;overflow=hidden;rounded=0;shadow=0;glass=0;labelBackgroundColor=none;labelBorderColor=none;fontFamily=Helvetica;fontSize=25;strokeColor=#FF0000;strokeWidth=2;" vertex="1" parent="PERNU21UyIzNQEn90QrN-72">
          <mxGeometry x="85" width="105" height="30" as="geometry">
            <mxRectangle width="105" height="30" as="alternateBounds" />
          </mxGeometry>
        </mxCell>
        <mxCell id="PERNU21UyIzNQEn90QrN-75" value="" style="shape=tableRow;horizontal=0;startSize=0;swimlaneHead=0;swimlaneBody=0;fillColor=none;collapsible=0;dropTarget=0;points=[[0,0.5],[1,0.5]];portConstraint=eastwest;top=0;left=0;right=0;bottom=0;rounded=0;shadow=0;glass=0;labelBackgroundColor=none;labelBorderColor=none;fontFamily=Helvetica;fontSize=25;strokeColor=#FF0000;strokeWidth=2;" vertex="1" parent="PERNU21UyIzNQEn90QrN-71">
          <mxGeometry y="60" width="190" height="30" as="geometry" />
        </mxCell>
        <mxCell id="PERNU21UyIzNQEn90QrN-76" value="" style="shape=partialRectangle;connectable=0;fillColor=none;top=0;left=0;bottom=0;right=0;editable=1;overflow=hidden;rounded=0;shadow=0;glass=0;labelBackgroundColor=none;labelBorderColor=none;fontFamily=Helvetica;fontSize=25;strokeColor=#FF0000;strokeWidth=2;" vertex="1" parent="PERNU21UyIzNQEn90QrN-75">
          <mxGeometry width="85" height="30" as="geometry">
            <mxRectangle width="85" height="30" as="alternateBounds" />
          </mxGeometry>
        </mxCell>
        <mxCell id="PERNU21UyIzNQEn90QrN-77" value="Row 1" style="shape=partialRectangle;connectable=0;fillColor=none;top=0;left=0;bottom=0;right=0;align=left;spacingLeft=6;overflow=hidden;rounded=0;shadow=0;glass=0;labelBackgroundColor=none;labelBorderColor=none;fontFamily=Helvetica;fontSize=25;strokeColor=#FF0000;strokeWidth=2;" vertex="1" parent="PERNU21UyIzNQEn90QrN-75">
          <mxGeometry x="85" width="105" height="30" as="geometry">
            <mxRectangle width="105" height="30" as="alternateBounds" />
          </mxGeometry>
        </mxCell>
        <mxCell id="PERNU21UyIzNQEn90QrN-78" value="" style="shape=tableRow;horizontal=0;startSize=0;swimlaneHead=0;swimlaneBody=0;fillColor=none;collapsible=0;dropTarget=0;points=[[0,0.5],[1,0.5]];portConstraint=eastwest;top=0;left=0;right=0;bottom=0;rounded=0;shadow=0;glass=0;labelBackgroundColor=none;labelBorderColor=none;fontFamily=Helvetica;fontSize=25;strokeColor=#FF0000;strokeWidth=2;" vertex="1" parent="PERNU21UyIzNQEn90QrN-71">
          <mxGeometry y="90" width="190" height="30" as="geometry" />
        </mxCell>
        <mxCell id="PERNU21UyIzNQEn90QrN-79" value="" style="shape=partialRectangle;connectable=0;fillColor=none;top=0;left=0;bottom=0;right=0;editable=1;overflow=hidden;rounded=0;shadow=0;glass=0;labelBackgroundColor=none;labelBorderColor=none;fontFamily=Helvetica;fontSize=25;strokeColor=#FF0000;strokeWidth=2;" vertex="1" parent="PERNU21UyIzNQEn90QrN-78">
          <mxGeometry width="85" height="30" as="geometry">
            <mxRectangle width="85" height="30" as="alternateBounds" />
          </mxGeometry>
        </mxCell>
        <mxCell id="PERNU21UyIzNQEn90QrN-80" value="Row 2" style="shape=partialRectangle;connectable=0;fillColor=none;top=0;left=0;bottom=0;right=0;align=left;spacingLeft=6;overflow=hidden;rounded=0;shadow=0;glass=0;labelBackgroundColor=none;labelBorderColor=none;fontFamily=Helvetica;fontSize=25;strokeColor=#FF0000;strokeWidth=2;" vertex="1" parent="PERNU21UyIzNQEn90QrN-78">
          <mxGeometry x="85" width="105" height="30" as="geometry">
            <mxRectangle width="105" height="30" as="alternateBounds" />
          </mxGeometry>
        </mxCell>
        <mxCell id="PERNU21UyIzNQEn90QrN-81" value="" style="shape=tableRow;horizontal=0;startSize=0;swimlaneHead=0;swimlaneBody=0;fillColor=none;collapsible=0;dropTarget=0;points=[[0,0.5],[1,0.5]];portConstraint=eastwest;top=0;left=0;right=0;bottom=0;rounded=0;shadow=0;glass=0;labelBackgroundColor=none;labelBorderColor=none;fontFamily=Helvetica;fontSize=25;strokeColor=#FF0000;strokeWidth=2;" vertex="1" parent="PERNU21UyIzNQEn90QrN-71">
          <mxGeometry y="120" width="190" height="30" as="geometry" />
        </mxCell>
        <mxCell id="PERNU21UyIzNQEn90QrN-82" value="" style="shape=partialRectangle;connectable=0;fillColor=none;top=0;left=0;bottom=0;right=0;editable=1;overflow=hidden;rounded=0;shadow=0;glass=0;labelBackgroundColor=none;labelBorderColor=none;fontFamily=Helvetica;fontSize=25;strokeColor=#FF0000;strokeWidth=2;" vertex="1" parent="PERNU21UyIzNQEn90QrN-81">
          <mxGeometry width="85" height="30" as="geometry">
            <mxRectangle width="85" height="30" as="alternateBounds" />
          </mxGeometry>
        </mxCell>
        <mxCell id="PERNU21UyIzNQEn90QrN-83" value="Row 3" style="shape=partialRectangle;connectable=0;fillColor=none;top=0;left=0;bottom=0;right=0;align=left;spacingLeft=6;overflow=hidden;rounded=0;shadow=0;glass=0;labelBackgroundColor=none;labelBorderColor=none;fontFamily=Helvetica;fontSize=25;strokeColor=#FF0000;strokeWidth=2;" vertex="1" parent="PERNU21UyIzNQEn90QrN-81">
          <mxGeometry x="85" width="105" height="30" as="geometry">
            <mxRectangle width="105" height="30" as="alternateBounds" />
          </mxGeometry>
        </mxCell>
        <mxCell id="PERNU21UyIzNQEn90QrN-84" value="Hone" style="shape=table;startSize=30;container=1;collapsible=1;childLayout=tableLayout;fixedRows=1;rowLines=0;fontStyle=1;align=center;resizeLast=1;rounded=0;shadow=0;glass=0;labelBackgroundColor=none;labelBorderColor=none;fontFamily=Helvetica;fontSize=25;strokeColor=#FF0000;strokeWidth=2;fillColor=#FFFF99;" vertex="1" parent="1">
          <mxGeometry x="-495" y="-380" width="190" height="160" as="geometry">
            <mxRectangle x="-430" y="520" width="100" height="40" as="alternateBounds" />
          </mxGeometry>
        </mxCell>
        <mxCell id="PERNU21UyIzNQEn90QrN-85" value="" style="shape=tableRow;horizontal=0;startSize=0;swimlaneHead=0;swimlaneBody=0;fillColor=none;collapsible=0;dropTarget=0;points=[[0,0.5],[1,0.5]];portConstraint=eastwest;top=0;left=0;right=0;bottom=1;rounded=0;shadow=0;glass=0;labelBackgroundColor=none;labelBorderColor=none;fontFamily=Helvetica;fontSize=25;strokeColor=#FF0000;strokeWidth=2;" vertex="1" parent="PERNU21UyIzNQEn90QrN-84">
          <mxGeometry y="30" width="190" height="30" as="geometry" />
        </mxCell>
        <mxCell id="PERNU21UyIzNQEn90QrN-86" value="PK" style="shape=partialRectangle;connectable=0;fillColor=none;top=0;left=0;bottom=0;right=0;fontStyle=1;overflow=hidden;rounded=0;shadow=0;glass=0;labelBackgroundColor=none;labelBorderColor=none;fontFamily=Helvetica;fontSize=25;strokeColor=#FF0000;strokeWidth=2;" vertex="1" parent="PERNU21UyIzNQEn90QrN-85">
          <mxGeometry width="40.00000000000023" height="30" as="geometry">
            <mxRectangle width="40.00000000000023" height="30" as="alternateBounds" />
          </mxGeometry>
        </mxCell>
        <mxCell id="PERNU21UyIzNQEn90QrN-87" value="id" style="shape=partialRectangle;connectable=0;fillColor=none;top=0;left=0;bottom=0;right=0;align=left;spacingLeft=6;fontStyle=1;overflow=hidden;rounded=0;shadow=0;glass=0;labelBackgroundColor=none;labelBorderColor=none;fontFamily=Helvetica;fontSize=25;strokeColor=#FF0000;strokeWidth=2;" vertex="1" parent="PERNU21UyIzNQEn90QrN-85">
          <mxGeometry x="40.00000000000023" width="149.99999999999977" height="30" as="geometry">
            <mxRectangle width="149.99999999999977" height="30" as="alternateBounds" />
          </mxGeometry>
        </mxCell>
        <mxCell id="PERNU21UyIzNQEn90QrN-88" value="" style="shape=tableRow;horizontal=0;startSize=0;swimlaneHead=0;swimlaneBody=0;fillColor=none;collapsible=0;dropTarget=0;points=[[0,0.5],[1,0.5]];portConstraint=eastwest;top=0;left=0;right=0;bottom=0;rounded=0;shadow=0;glass=0;labelBackgroundColor=none;labelBorderColor=none;fontFamily=Helvetica;fontSize=25;strokeColor=#FF0000;strokeWidth=2;" vertex="1" parent="PERNU21UyIzNQEn90QrN-84">
          <mxGeometry y="60" width="190" height="30" as="geometry" />
        </mxCell>
        <mxCell id="PERNU21UyIzNQEn90QrN-89" value="" style="shape=partialRectangle;connectable=0;fillColor=none;top=0;left=0;bottom=0;right=0;editable=1;overflow=hidden;rounded=0;shadow=0;glass=0;labelBackgroundColor=none;labelBorderColor=none;fontFamily=Helvetica;fontSize=25;strokeColor=#FF0000;strokeWidth=2;" vertex="1" parent="PERNU21UyIzNQEn90QrN-88">
          <mxGeometry width="40.00000000000023" height="30" as="geometry">
            <mxRectangle width="40.00000000000023" height="30" as="alternateBounds" />
          </mxGeometry>
        </mxCell>
        <mxCell id="PERNU21UyIzNQEn90QrN-90" value="Row 1" style="shape=partialRectangle;connectable=0;fillColor=none;top=0;left=0;bottom=0;right=0;align=left;spacingLeft=6;overflow=hidden;rounded=0;shadow=0;glass=0;labelBackgroundColor=none;labelBorderColor=none;fontFamily=Helvetica;fontSize=25;strokeColor=#FF0000;strokeWidth=2;" vertex="1" parent="PERNU21UyIzNQEn90QrN-88">
          <mxGeometry x="40.00000000000023" width="149.99999999999977" height="30" as="geometry">
            <mxRectangle width="149.99999999999977" height="30" as="alternateBounds" />
          </mxGeometry>
        </mxCell>
        <mxCell id="PERNU21UyIzNQEn90QrN-91" value="" style="shape=tableRow;horizontal=0;startSize=0;swimlaneHead=0;swimlaneBody=0;fillColor=none;collapsible=0;dropTarget=0;points=[[0,0.5],[1,0.5]];portConstraint=eastwest;top=0;left=0;right=0;bottom=0;rounded=0;shadow=0;glass=0;labelBackgroundColor=none;labelBorderColor=none;fontFamily=Helvetica;fontSize=25;strokeColor=#FF0000;strokeWidth=2;" vertex="1" parent="PERNU21UyIzNQEn90QrN-84">
          <mxGeometry y="90" width="190" height="30" as="geometry" />
        </mxCell>
        <mxCell id="PERNU21UyIzNQEn90QrN-92" value="" style="shape=partialRectangle;connectable=0;fillColor=none;top=0;left=0;bottom=0;right=0;editable=1;overflow=hidden;rounded=0;shadow=0;glass=0;labelBackgroundColor=none;labelBorderColor=none;fontFamily=Helvetica;fontSize=25;strokeColor=#FF0000;strokeWidth=2;" vertex="1" parent="PERNU21UyIzNQEn90QrN-91">
          <mxGeometry width="40.00000000000023" height="30" as="geometry">
            <mxRectangle width="40.00000000000023" height="30" as="alternateBounds" />
          </mxGeometry>
        </mxCell>
        <mxCell id="PERNU21UyIzNQEn90QrN-93" value="Row 2" style="shape=partialRectangle;connectable=0;fillColor=none;top=0;left=0;bottom=0;right=0;align=left;spacingLeft=6;overflow=hidden;rounded=0;shadow=0;glass=0;labelBackgroundColor=none;labelBorderColor=none;fontFamily=Helvetica;fontSize=25;strokeColor=#FF0000;strokeWidth=2;" vertex="1" parent="PERNU21UyIzNQEn90QrN-91">
          <mxGeometry x="40.00000000000023" width="149.99999999999977" height="30" as="geometry">
            <mxRectangle width="149.99999999999977" height="30" as="alternateBounds" />
          </mxGeometry>
        </mxCell>
        <mxCell id="PERNU21UyIzNQEn90QrN-94" value="" style="shape=tableRow;horizontal=0;startSize=0;swimlaneHead=0;swimlaneBody=0;fillColor=none;collapsible=0;dropTarget=0;points=[[0,0.5],[1,0.5]];portConstraint=eastwest;top=0;left=0;right=0;bottom=0;rounded=0;shadow=0;glass=0;labelBackgroundColor=none;labelBorderColor=none;fontFamily=Helvetica;fontSize=25;strokeColor=#FF0000;strokeWidth=2;" vertex="1" parent="PERNU21UyIzNQEn90QrN-84">
          <mxGeometry y="120" width="190" height="30" as="geometry" />
        </mxCell>
        <mxCell id="PERNU21UyIzNQEn90QrN-95" value="" style="shape=partialRectangle;connectable=0;fillColor=none;top=0;left=0;bottom=0;right=0;editable=1;overflow=hidden;rounded=0;shadow=0;glass=0;labelBackgroundColor=none;labelBorderColor=none;fontFamily=Helvetica;fontSize=25;strokeColor=#FF0000;strokeWidth=2;" vertex="1" parent="PERNU21UyIzNQEn90QrN-94">
          <mxGeometry width="40.00000000000023" height="30" as="geometry">
            <mxRectangle width="40.00000000000023" height="30" as="alternateBounds" />
          </mxGeometry>
        </mxCell>
        <mxCell id="PERNU21UyIzNQEn90QrN-96" value="Row 3" style="shape=partialRectangle;connectable=0;fillColor=none;top=0;left=0;bottom=0;right=0;align=left;spacingLeft=6;overflow=hidden;rounded=0;shadow=0;glass=0;labelBackgroundColor=none;labelBorderColor=none;fontFamily=Helvetica;fontSize=25;strokeColor=#FF0000;strokeWidth=2;" vertex="1" parent="PERNU21UyIzNQEn90QrN-94">
          <mxGeometry x="40.00000000000023" width="149.99999999999977" height="30" as="geometry">
            <mxRectangle width="149.99999999999977" height="30" as="alternateBounds" />
          </mxGeometry>
        </mxCell>
        <mxCell id="PERNU21UyIzNQEn90QrN-97" value="Office" style="shape=table;startSize=30;container=1;collapsible=1;childLayout=tableLayout;fixedRows=1;rowLines=0;fontStyle=1;align=center;resizeLast=1;rounded=0;shadow=0;glass=0;labelBackgroundColor=none;labelBorderColor=none;fontFamily=Helvetica;fontSize=25;strokeColor=#FF0000;strokeWidth=2;fillColor=#FFFF99;" vertex="1" parent="1">
          <mxGeometry x="-495" y="-180" width="200" height="160" as="geometry">
            <mxRectangle x="-430" y="720" width="100" height="40" as="alternateBounds" />
          </mxGeometry>
        </mxCell>
        <mxCell id="PERNU21UyIzNQEn90QrN-98" value="" style="shape=tableRow;horizontal=0;startSize=0;swimlaneHead=0;swimlaneBody=0;fillColor=none;collapsible=0;dropTarget=0;points=[[0,0.5],[1,0.5]];portConstraint=eastwest;top=0;left=0;right=0;bottom=1;rounded=0;shadow=0;glass=0;labelBackgroundColor=none;labelBorderColor=none;fontFamily=Helvetica;fontSize=25;strokeColor=#FF0000;strokeWidth=2;" vertex="1" parent="PERNU21UyIzNQEn90QrN-97">
          <mxGeometry y="30" width="200" height="30" as="geometry" />
        </mxCell>
        <mxCell id="PERNU21UyIzNQEn90QrN-99" value="PK" style="shape=partialRectangle;connectable=0;fillColor=none;top=0;left=0;bottom=0;right=0;fontStyle=1;overflow=hidden;rounded=0;shadow=0;glass=0;labelBackgroundColor=none;labelBorderColor=none;fontFamily=Helvetica;fontSize=25;strokeColor=#FF0000;strokeWidth=2;" vertex="1" parent="PERNU21UyIzNQEn90QrN-98">
          <mxGeometry width="40.00000000000023" height="30" as="geometry">
            <mxRectangle width="40.00000000000023" height="30" as="alternateBounds" />
          </mxGeometry>
        </mxCell>
        <mxCell id="PERNU21UyIzNQEn90QrN-100" value="id" style="shape=partialRectangle;connectable=0;fillColor=none;top=0;left=0;bottom=0;right=0;align=left;spacingLeft=6;fontStyle=1;overflow=hidden;rounded=0;shadow=0;glass=0;labelBackgroundColor=none;labelBorderColor=none;fontFamily=Helvetica;fontSize=25;strokeColor=#FF0000;strokeWidth=2;" vertex="1" parent="PERNU21UyIzNQEn90QrN-98">
          <mxGeometry x="40.00000000000023" width="159.99999999999977" height="30" as="geometry">
            <mxRectangle width="159.99999999999977" height="30" as="alternateBounds" />
          </mxGeometry>
        </mxCell>
        <mxCell id="PERNU21UyIzNQEn90QrN-101" value="" style="shape=tableRow;horizontal=0;startSize=0;swimlaneHead=0;swimlaneBody=0;fillColor=none;collapsible=0;dropTarget=0;points=[[0,0.5],[1,0.5]];portConstraint=eastwest;top=0;left=0;right=0;bottom=0;rounded=0;shadow=0;glass=0;labelBackgroundColor=none;labelBorderColor=none;fontFamily=Helvetica;fontSize=25;strokeColor=#FF0000;strokeWidth=2;" vertex="1" parent="PERNU21UyIzNQEn90QrN-97">
          <mxGeometry y="60" width="200" height="30" as="geometry" />
        </mxCell>
        <mxCell id="PERNU21UyIzNQEn90QrN-102" value="" style="shape=partialRectangle;connectable=0;fillColor=none;top=0;left=0;bottom=0;right=0;editable=1;overflow=hidden;rounded=0;shadow=0;glass=0;labelBackgroundColor=none;labelBorderColor=none;fontFamily=Helvetica;fontSize=25;strokeColor=#FF0000;strokeWidth=2;" vertex="1" parent="PERNU21UyIzNQEn90QrN-101">
          <mxGeometry width="40.00000000000023" height="30" as="geometry">
            <mxRectangle width="40.00000000000023" height="30" as="alternateBounds" />
          </mxGeometry>
        </mxCell>
        <mxCell id="PERNU21UyIzNQEn90QrN-103" value="Row 1" style="shape=partialRectangle;connectable=0;fillColor=none;top=0;left=0;bottom=0;right=0;align=left;spacingLeft=6;overflow=hidden;rounded=0;shadow=0;glass=0;labelBackgroundColor=none;labelBorderColor=none;fontFamily=Helvetica;fontSize=25;strokeColor=#FF0000;strokeWidth=2;" vertex="1" parent="PERNU21UyIzNQEn90QrN-101">
          <mxGeometry x="40.00000000000023" width="159.99999999999977" height="30" as="geometry">
            <mxRectangle width="159.99999999999977" height="30" as="alternateBounds" />
          </mxGeometry>
        </mxCell>
        <mxCell id="PERNU21UyIzNQEn90QrN-104" value="" style="shape=tableRow;horizontal=0;startSize=0;swimlaneHead=0;swimlaneBody=0;fillColor=none;collapsible=0;dropTarget=0;points=[[0,0.5],[1,0.5]];portConstraint=eastwest;top=0;left=0;right=0;bottom=0;rounded=0;shadow=0;glass=0;labelBackgroundColor=none;labelBorderColor=none;fontFamily=Helvetica;fontSize=25;strokeColor=#FF0000;strokeWidth=2;" vertex="1" parent="PERNU21UyIzNQEn90QrN-97">
          <mxGeometry y="90" width="200" height="30" as="geometry" />
        </mxCell>
        <mxCell id="PERNU21UyIzNQEn90QrN-105" value="" style="shape=partialRectangle;connectable=0;fillColor=none;top=0;left=0;bottom=0;right=0;editable=1;overflow=hidden;rounded=0;shadow=0;glass=0;labelBackgroundColor=none;labelBorderColor=none;fontFamily=Helvetica;fontSize=25;strokeColor=#FF0000;strokeWidth=2;" vertex="1" parent="PERNU21UyIzNQEn90QrN-104">
          <mxGeometry width="40.00000000000023" height="30" as="geometry">
            <mxRectangle width="40.00000000000023" height="30" as="alternateBounds" />
          </mxGeometry>
        </mxCell>
        <mxCell id="PERNU21UyIzNQEn90QrN-106" value="Row 2" style="shape=partialRectangle;connectable=0;fillColor=none;top=0;left=0;bottom=0;right=0;align=left;spacingLeft=6;overflow=hidden;rounded=0;shadow=0;glass=0;labelBackgroundColor=none;labelBorderColor=none;fontFamily=Helvetica;fontSize=25;strokeColor=#FF0000;strokeWidth=2;" vertex="1" parent="PERNU21UyIzNQEn90QrN-104">
          <mxGeometry x="40.00000000000023" width="159.99999999999977" height="30" as="geometry">
            <mxRectangle width="159.99999999999977" height="30" as="alternateBounds" />
          </mxGeometry>
        </mxCell>
        <mxCell id="PERNU21UyIzNQEn90QrN-107" value="" style="shape=tableRow;horizontal=0;startSize=0;swimlaneHead=0;swimlaneBody=0;fillColor=none;collapsible=0;dropTarget=0;points=[[0,0.5],[1,0.5]];portConstraint=eastwest;top=0;left=0;right=0;bottom=0;rounded=0;shadow=0;glass=0;labelBackgroundColor=none;labelBorderColor=none;fontFamily=Helvetica;fontSize=25;strokeColor=#FF0000;strokeWidth=2;" vertex="1" parent="PERNU21UyIzNQEn90QrN-97">
          <mxGeometry y="120" width="200" height="30" as="geometry" />
        </mxCell>
        <mxCell id="PERNU21UyIzNQEn90QrN-108" value="" style="shape=partialRectangle;connectable=0;fillColor=none;top=0;left=0;bottom=0;right=0;editable=1;overflow=hidden;rounded=0;shadow=0;glass=0;labelBackgroundColor=none;labelBorderColor=none;fontFamily=Helvetica;fontSize=25;strokeColor=#FF0000;strokeWidth=2;" vertex="1" parent="PERNU21UyIzNQEn90QrN-107">
          <mxGeometry width="40.00000000000023" height="30" as="geometry">
            <mxRectangle width="40.00000000000023" height="30" as="alternateBounds" />
          </mxGeometry>
        </mxCell>
        <mxCell id="PERNU21UyIzNQEn90QrN-109" value="Row 3" style="shape=partialRectangle;connectable=0;fillColor=none;top=0;left=0;bottom=0;right=0;align=left;spacingLeft=6;overflow=hidden;rounded=0;shadow=0;glass=0;labelBackgroundColor=none;labelBorderColor=none;fontFamily=Helvetica;fontSize=25;strokeColor=#FF0000;strokeWidth=2;" vertex="1" parent="PERNU21UyIzNQEn90QrN-107">
          <mxGeometry x="40.00000000000023" width="159.99999999999977" height="30" as="geometry">
            <mxRectangle width="159.99999999999977" height="30" as="alternateBounds" />
          </mxGeometry>
        </mxCell>
        <mxCell id="PERNU21UyIzNQEn90QrN-119" value="" style="whiteSpace=wrap;html=1;aspect=fixed;rounded=0;shadow=0;glass=0;labelBackgroundColor=none;labelBorderColor=none;fontFamily=Helvetica;fontSize=25;strokeWidth=2;" vertex="1" parent="1">
          <mxGeometry x="-495" y="-220" width="40" height="40" as="geometry" />
        </mxCell>
        <mxCell id="PERNU21UyIzNQEn90QrN-121" value="" style="whiteSpace=wrap;html=1;aspect=fixed;rounded=0;shadow=0;glass=0;labelBackgroundColor=none;labelBorderColor=none;fontFamily=Helvetica;fontSize=25;strokeWidth=2;" vertex="1" parent="1">
          <mxGeometry x="-765" y="-340" width="40" height="40" as="geometry" />
        </mxCell>
        <mxCell id="PERNU21UyIzNQEn90QrN-125" value="Human" style="shape=table;startSize=30;container=1;collapsible=1;childLayout=tableLayout;fixedRows=1;rowLines=0;fontStyle=1;align=center;resizeLast=1;rounded=0;shadow=0;glass=0;labelBackgroundColor=none;labelBorderColor=none;fontFamily=Helvetica;fontSize=25;strokeColor=#FF0000;strokeWidth=2;fillColor=#FFFF99;" vertex="1" parent="1">
          <mxGeometry x="-1005" y="-340" width="240" height="320" as="geometry">
            <mxRectangle x="-930" y="530" width="120" height="40" as="alternateBounds" />
          </mxGeometry>
        </mxCell>
        <mxCell id="PERNU21UyIzNQEn90QrN-126" value="" style="shape=tableRow;horizontal=0;startSize=0;swimlaneHead=0;swimlaneBody=0;fillColor=none;collapsible=0;dropTarget=0;points=[[0,0.5],[1,0.5]];portConstraint=eastwest;top=0;left=0;right=0;bottom=1;rounded=0;shadow=0;glass=0;labelBackgroundColor=none;labelBorderColor=none;fontFamily=Helvetica;fontSize=25;strokeColor=#FF0000;strokeWidth=2;" vertex="1" parent="PERNU21UyIzNQEn90QrN-125">
          <mxGeometry y="30" width="240" height="30" as="geometry" />
        </mxCell>
        <mxCell id="PERNU21UyIzNQEn90QrN-127" value="PK" style="shape=partialRectangle;connectable=0;fillColor=none;top=0;left=0;bottom=0;right=0;fontStyle=1;overflow=hidden;rounded=0;shadow=0;glass=0;labelBackgroundColor=none;labelBorderColor=none;fontFamily=Helvetica;fontSize=25;strokeColor=#FF0000;strokeWidth=2;" vertex="1" parent="PERNU21UyIzNQEn90QrN-126">
          <mxGeometry width="40.00000000000023" height="30" as="geometry">
            <mxRectangle width="40.00000000000023" height="30" as="alternateBounds" />
          </mxGeometry>
        </mxCell>
        <mxCell id="PERNU21UyIzNQEn90QrN-128" value="id" style="shape=partialRectangle;connectable=0;fillColor=none;top=0;left=0;bottom=0;right=0;align=left;spacingLeft=6;fontStyle=1;overflow=hidden;rounded=0;shadow=0;glass=0;labelBackgroundColor=none;labelBorderColor=none;fontFamily=Helvetica;fontSize=25;strokeColor=default;strokeWidth=2;" vertex="1" parent="PERNU21UyIzNQEn90QrN-126">
          <mxGeometry x="40.00000000000023" width="199.99999999999977" height="30" as="geometry">
            <mxRectangle width="199.99999999999977" height="30" as="alternateBounds" />
          </mxGeometry>
        </mxCell>
        <mxCell id="PERNU21UyIzNQEn90QrN-129" value="" style="shape=tableRow;horizontal=0;startSize=0;swimlaneHead=0;swimlaneBody=0;fillColor=none;collapsible=0;dropTarget=0;points=[[0,0.5],[1,0.5]];portConstraint=eastwest;top=0;left=0;right=0;bottom=0;rounded=0;shadow=0;glass=0;labelBackgroundColor=none;labelBorderColor=none;fontFamily=Helvetica;fontSize=25;strokeColor=#FF0000;strokeWidth=2;" vertex="1" parent="PERNU21UyIzNQEn90QrN-125">
          <mxGeometry y="60" width="240" height="30" as="geometry" />
        </mxCell>
        <mxCell id="PERNU21UyIzNQEn90QrN-130" value="" style="shape=partialRectangle;connectable=0;fillColor=none;top=0;left=0;bottom=0;right=0;editable=1;overflow=hidden;rounded=0;shadow=0;glass=0;labelBackgroundColor=none;labelBorderColor=none;fontFamily=Helvetica;fontSize=25;strokeColor=#FF0000;strokeWidth=2;" vertex="1" parent="PERNU21UyIzNQEn90QrN-129">
          <mxGeometry width="40.00000000000023" height="30" as="geometry">
            <mxRectangle width="40.00000000000023" height="30" as="alternateBounds" />
          </mxGeometry>
        </mxCell>
        <mxCell id="PERNU21UyIzNQEn90QrN-131" value="firstName" style="shape=partialRectangle;connectable=0;fillColor=none;top=0;left=0;bottom=0;right=0;align=left;spacingLeft=6;overflow=hidden;rounded=0;shadow=0;glass=0;labelBackgroundColor=none;labelBorderColor=none;fontFamily=Helvetica;fontSize=25;strokeColor=default;strokeWidth=2;gradientColor=#ffffff;" vertex="1" parent="PERNU21UyIzNQEn90QrN-129">
          <mxGeometry x="40.00000000000023" width="199.99999999999977" height="30" as="geometry">
            <mxRectangle width="199.99999999999977" height="30" as="alternateBounds" />
          </mxGeometry>
        </mxCell>
        <mxCell id="PERNU21UyIzNQEn90QrN-132" value="" style="shape=tableRow;horizontal=0;startSize=0;swimlaneHead=0;swimlaneBody=0;fillColor=none;collapsible=0;dropTarget=0;points=[[0,0.5],[1,0.5]];portConstraint=eastwest;top=0;left=0;right=0;bottom=0;rounded=0;shadow=0;glass=0;labelBackgroundColor=none;labelBorderColor=none;fontFamily=Helvetica;fontSize=25;strokeColor=#FF0000;strokeWidth=2;" vertex="1" parent="PERNU21UyIzNQEn90QrN-125">
          <mxGeometry y="90" width="240" height="30" as="geometry" />
        </mxCell>
        <mxCell id="PERNU21UyIzNQEn90QrN-133" value="" style="shape=partialRectangle;connectable=0;fillColor=none;top=0;left=0;bottom=0;right=0;editable=1;overflow=hidden;rounded=0;shadow=0;glass=0;labelBackgroundColor=none;labelBorderColor=none;fontFamily=Helvetica;fontSize=25;strokeColor=#FF0000;strokeWidth=2;" vertex="1" parent="PERNU21UyIzNQEn90QrN-132">
          <mxGeometry width="40.00000000000023" height="30" as="geometry">
            <mxRectangle width="40.00000000000023" height="30" as="alternateBounds" />
          </mxGeometry>
        </mxCell>
        <mxCell id="PERNU21UyIzNQEn90QrN-134" value="lastName" style="shape=partialRectangle;connectable=0;fillColor=none;top=0;left=0;bottom=0;right=0;align=left;spacingLeft=6;overflow=hidden;rounded=0;shadow=0;glass=0;labelBackgroundColor=none;labelBorderColor=none;fontFamily=Helvetica;fontSize=25;strokeColor=#FF0000;strokeWidth=2;" vertex="1" parent="PERNU21UyIzNQEn90QrN-132">
          <mxGeometry x="40.00000000000023" width="199.99999999999977" height="30" as="geometry">
            <mxRectangle width="199.99999999999977" height="30" as="alternateBounds" />
          </mxGeometry>
        </mxCell>
        <mxCell id="PERNU21UyIzNQEn90QrN-135" value="" style="shape=tableRow;horizontal=0;startSize=0;swimlaneHead=0;swimlaneBody=0;fillColor=none;collapsible=0;dropTarget=0;points=[[0,0.5],[1,0.5]];portConstraint=eastwest;top=0;left=0;right=0;bottom=0;rounded=0;shadow=0;glass=0;labelBackgroundColor=none;labelBorderColor=none;fontFamily=Helvetica;fontSize=25;strokeColor=#FF0000;strokeWidth=2;" vertex="1" parent="PERNU21UyIzNQEn90QrN-125">
          <mxGeometry y="120" width="240" height="30" as="geometry" />
        </mxCell>
        <mxCell id="PERNU21UyIzNQEn90QrN-136" value="" style="shape=partialRectangle;connectable=0;fillColor=none;top=0;left=0;bottom=0;right=0;editable=1;overflow=hidden;rounded=0;shadow=0;glass=0;labelBackgroundColor=none;labelBorderColor=none;fontFamily=Helvetica;fontSize=25;strokeColor=#FF0000;strokeWidth=2;" vertex="1" parent="PERNU21UyIzNQEn90QrN-135">
          <mxGeometry width="40.00000000000023" height="30" as="geometry">
            <mxRectangle width="40.00000000000023" height="30" as="alternateBounds" />
          </mxGeometry>
        </mxCell>
        <mxCell id="PERNU21UyIzNQEn90QrN-137" value="isAlive" style="shape=partialRectangle;connectable=0;fillColor=none;top=0;left=0;bottom=0;right=0;align=left;spacingLeft=6;overflow=hidden;rounded=0;shadow=0;glass=0;labelBackgroundColor=none;labelBorderColor=none;fontFamily=Helvetica;fontSize=25;strokeColor=#FF0000;strokeWidth=2;" vertex="1" parent="PERNU21UyIzNQEn90QrN-135">
          <mxGeometry x="40.00000000000023" width="199.99999999999977" height="30" as="geometry">
            <mxRectangle width="199.99999999999977" height="30" as="alternateBounds" />
          </mxGeometry>
        </mxCell>
        <mxCell id="PERNU21UyIzNQEn90QrN-138" value="" style="shape=tableRow;horizontal=0;startSize=0;swimlaneHead=0;swimlaneBody=0;fillColor=none;collapsible=0;dropTarget=0;points=[[0,0.5],[1,0.5]];portConstraint=eastwest;top=0;left=0;right=0;bottom=0;rounded=0;shadow=0;glass=0;labelBackgroundColor=none;labelBorderColor=none;fontFamily=Helvetica;fontSize=25;strokeColor=#FF0000;strokeWidth=2;" vertex="1" parent="PERNU21UyIzNQEn90QrN-125">
          <mxGeometry y="150" width="240" height="36" as="geometry" />
        </mxCell>
        <mxCell id="PERNU21UyIzNQEn90QrN-139" value="" style="shape=partialRectangle;connectable=0;fillColor=none;top=0;left=0;bottom=0;right=0;editable=1;overflow=hidden;rounded=0;shadow=0;glass=0;labelBackgroundColor=none;labelBorderColor=none;fontFamily=Helvetica;fontSize=25;strokeColor=#FF0000;strokeWidth=2;" vertex="1" parent="PERNU21UyIzNQEn90QrN-138">
          <mxGeometry width="40.00000000000023" height="36" as="geometry">
            <mxRectangle width="40.00000000000023" height="36" as="alternateBounds" />
          </mxGeometry>
        </mxCell>
        <mxCell id="PERNU21UyIzNQEn90QrN-140" value="age" style="shape=partialRectangle;connectable=0;fillColor=none;top=0;left=0;bottom=0;right=0;align=left;spacingLeft=6;overflow=hidden;rounded=0;shadow=0;glass=0;labelBackgroundColor=none;labelBorderColor=none;fontFamily=Helvetica;fontSize=25;strokeColor=#FF0000;strokeWidth=2;" vertex="1" parent="PERNU21UyIzNQEn90QrN-138">
          <mxGeometry x="40.00000000000023" width="199.99999999999977" height="36" as="geometry">
            <mxRectangle width="199.99999999999977" height="36" as="alternateBounds" />
          </mxGeometry>
        </mxCell>
        <mxCell id="PERNU21UyIzNQEn90QrN-141" value="" style="shape=tableRow;horizontal=0;startSize=0;swimlaneHead=0;swimlaneBody=0;fillColor=none;collapsible=0;dropTarget=0;points=[[0,0.5],[1,0.5]];portConstraint=eastwest;top=0;left=0;right=0;bottom=0;rounded=0;shadow=0;glass=0;labelBackgroundColor=none;labelBorderColor=none;fontFamily=Helvetica;fontSize=25;strokeColor=#FF0000;strokeWidth=2;" vertex="1" parent="PERNU21UyIzNQEn90QrN-125">
          <mxGeometry y="186" width="240" height="30" as="geometry" />
        </mxCell>
        <mxCell id="PERNU21UyIzNQEn90QrN-142" value="" style="shape=partialRectangle;connectable=0;fillColor=none;top=0;left=0;bottom=0;right=0;editable=1;overflow=hidden;rounded=0;shadow=0;glass=0;labelBackgroundColor=none;labelBorderColor=none;fontFamily=Helvetica;fontSize=25;strokeColor=#FF0000;strokeWidth=2;" vertex="1" parent="PERNU21UyIzNQEn90QrN-141">
          <mxGeometry width="40.00000000000023" height="30" as="geometry">
            <mxRectangle width="40.00000000000023" height="30" as="alternateBounds" />
          </mxGeometry>
        </mxCell>
        <mxCell id="PERNU21UyIzNQEn90QrN-143" value="address" style="shape=partialRectangle;connectable=0;fillColor=none;top=0;left=0;bottom=0;right=0;align=left;spacingLeft=6;overflow=hidden;rounded=0;shadow=0;glass=0;labelBackgroundColor=none;labelBorderColor=none;fontFamily=Helvetica;fontSize=25;strokeColor=#FF0000;strokeWidth=2;" vertex="1" parent="PERNU21UyIzNQEn90QrN-141">
          <mxGeometry x="40.00000000000023" width="199.99999999999977" height="30" as="geometry">
            <mxRectangle width="199.99999999999977" height="30" as="alternateBounds" />
          </mxGeometry>
        </mxCell>
        <mxCell id="PERNU21UyIzNQEn90QrN-144" value="" style="shape=tableRow;horizontal=0;startSize=0;swimlaneHead=0;swimlaneBody=0;fillColor=none;collapsible=0;dropTarget=0;points=[[0,0.5],[1,0.5]];portConstraint=eastwest;top=0;left=0;right=0;bottom=0;rounded=0;shadow=0;glass=0;labelBackgroundColor=none;labelBorderColor=none;fontFamily=Helvetica;fontSize=25;strokeColor=#FF0000;strokeWidth=2;" vertex="1" parent="PERNU21UyIzNQEn90QrN-125">
          <mxGeometry y="216" width="240" height="30" as="geometry" />
        </mxCell>
        <mxCell id="PERNU21UyIzNQEn90QrN-145" value="" style="shape=partialRectangle;connectable=0;fillColor=none;top=0;left=0;bottom=0;right=0;editable=1;overflow=hidden;rounded=0;shadow=0;glass=0;labelBackgroundColor=none;labelBorderColor=none;fontFamily=Helvetica;fontSize=25;strokeColor=#FF0000;strokeWidth=2;" vertex="1" parent="PERNU21UyIzNQEn90QrN-144">
          <mxGeometry width="40.00000000000023" height="30" as="geometry">
            <mxRectangle width="40.00000000000023" height="30" as="alternateBounds" />
          </mxGeometry>
        </mxCell>
        <mxCell id="PERNU21UyIzNQEn90QrN-146" value="phoneNumbers" style="shape=partialRectangle;connectable=0;fillColor=none;top=0;left=0;bottom=0;right=0;align=left;spacingLeft=6;overflow=hidden;rounded=0;shadow=0;glass=0;labelBackgroundColor=none;labelBorderColor=none;fontFamily=Helvetica;fontSize=25;strokeColor=#FF0000;strokeWidth=2;" vertex="1" parent="PERNU21UyIzNQEn90QrN-144">
          <mxGeometry x="40.00000000000023" width="199.99999999999977" height="30" as="geometry">
            <mxRectangle width="199.99999999999977" height="30" as="alternateBounds" />
          </mxGeometry>
        </mxCell>
        <mxCell id="PERNU21UyIzNQEn90QrN-147" value="" style="shape=tableRow;horizontal=0;startSize=0;swimlaneHead=0;swimlaneBody=0;fillColor=none;collapsible=0;dropTarget=0;points=[[0,0.5],[1,0.5]];portConstraint=eastwest;top=0;left=0;right=0;bottom=0;rounded=0;shadow=0;glass=0;labelBackgroundColor=none;labelBorderColor=none;fontFamily=Helvetica;fontSize=25;strokeColor=#FF0000;strokeWidth=2;" vertex="1" parent="PERNU21UyIzNQEn90QrN-125">
          <mxGeometry y="246" width="240" height="30" as="geometry" />
        </mxCell>
        <mxCell id="PERNU21UyIzNQEn90QrN-148" value="" style="shape=partialRectangle;connectable=0;fillColor=none;top=0;left=0;bottom=0;right=0;editable=1;overflow=hidden;rounded=0;shadow=0;glass=0;labelBackgroundColor=none;labelBorderColor=none;fontFamily=Helvetica;fontSize=25;strokeColor=#FF0000;strokeWidth=2;" vertex="1" parent="PERNU21UyIzNQEn90QrN-147">
          <mxGeometry width="40.00000000000023" height="30" as="geometry">
            <mxRectangle width="40.00000000000023" height="30" as="alternateBounds" />
          </mxGeometry>
        </mxCell>
        <mxCell id="PERNU21UyIzNQEn90QrN-149" value="children" style="shape=partialRectangle;connectable=0;fillColor=none;top=0;left=0;bottom=0;right=0;align=left;spacingLeft=6;overflow=hidden;rounded=0;shadow=0;glass=0;labelBackgroundColor=none;labelBorderColor=none;fontFamily=Helvetica;fontSize=25;strokeColor=#FF0000;strokeWidth=2;" vertex="1" parent="PERNU21UyIzNQEn90QrN-147">
          <mxGeometry x="40.00000000000023" width="199.99999999999977" height="30" as="geometry">
            <mxRectangle width="199.99999999999977" height="30" as="alternateBounds" />
          </mxGeometry>
        </mxCell>
        <mxCell id="PERNU21UyIzNQEn90QrN-150" value="" style="shape=tableRow;horizontal=0;startSize=0;swimlaneHead=0;swimlaneBody=0;fillColor=none;collapsible=0;dropTarget=0;points=[[0,0.5],[1,0.5]];portConstraint=eastwest;top=0;left=0;right=0;bottom=0;rounded=0;shadow=0;glass=0;labelBackgroundColor=none;labelBorderColor=none;fontFamily=Helvetica;fontSize=25;strokeColor=#FF0000;strokeWidth=2;" vertex="1" parent="PERNU21UyIzNQEn90QrN-125">
          <mxGeometry y="276" width="240" height="30" as="geometry" />
        </mxCell>
        <mxCell id="PERNU21UyIzNQEn90QrN-151" value="" style="shape=partialRectangle;connectable=0;fillColor=none;top=0;left=0;bottom=0;right=0;editable=1;overflow=hidden;rounded=0;shadow=0;glass=0;labelBackgroundColor=none;labelBorderColor=none;fontFamily=Helvetica;fontSize=25;strokeColor=#FF0000;strokeWidth=2;" vertex="1" parent="PERNU21UyIzNQEn90QrN-150">
          <mxGeometry width="40.00000000000023" height="30" as="geometry">
            <mxRectangle width="40.00000000000023" height="30" as="alternateBounds" />
          </mxGeometry>
        </mxCell>
        <mxCell id="PERNU21UyIzNQEn90QrN-152" value="spouse" style="shape=partialRectangle;connectable=0;fillColor=none;top=0;left=0;bottom=0;right=0;align=left;spacingLeft=6;overflow=hidden;rounded=0;shadow=0;glass=0;labelBackgroundColor=none;labelBorderColor=none;fontFamily=Helvetica;fontSize=25;strokeColor=#FF0000;strokeWidth=2;" vertex="1" parent="PERNU21UyIzNQEn90QrN-150">
          <mxGeometry x="40.00000000000023" width="199.99999999999977" height="30" as="geometry">
            <mxRectangle width="199.99999999999977" height="30" as="alternateBounds" />
          </mxGeometry>
        </mxCell>
        <mxCell id="PERNU21UyIzNQEn90QrN-156" style="rounded=0;orthogonalLoop=1;jettySize=auto;html=1;fontFamily=Helvetica;fontSize=25;startArrow=ERmandOne;startFill=0;endArrow=ERone;endFill=0;targetPerimeterSpacing=100;strokeColor=#FF0000;strokeWidth=2;elbow=vertical;entryX=0.5;entryY=1;entryDx=0;entryDy=0;exitX=1;exitY=0.5;exitDx=0;exitDy=0;" edge="1" parent="1" source="PERNU21UyIzNQEn90QrN-141" target="PERNU21UyIzNQEn90QrN-71">
          <mxGeometry relative="1" as="geometry">
            <mxPoint x="-705" y="-300" as="targetPoint" />
          </mxGeometry>
        </mxCell>
        <mxCell id="PERNU21UyIzNQEn90QrN-157" style="rounded=0;orthogonalLoop=1;jettySize=auto;html=1;fontFamily=Helvetica;fontSize=25;startArrow=ERone;startFill=0;endArrow=ERoneToMany;endFill=0;strokeColor=#FF0000;strokeWidth=2;elbow=vertical;sourcePerimeterSpacing=100;exitX=-0.009;exitY=0.416;exitDx=0;exitDy=0;exitPerimeter=0;entryX=1.005;entryY=0.572;entryDx=0;entryDy=0;entryPerimeter=0;" edge="1" parent="1" source="PERNU21UyIzNQEn90QrN-84" target="PERNU21UyIzNQEn90QrN-144">
          <mxGeometry relative="1" as="geometry">
            <mxPoint x="-775" y="-99" as="targetPoint" />
            <mxPoint x="-505" y="-280" as="sourcePoint" />
          </mxGeometry>
        </mxCell>
        <mxCell id="PERNU21UyIzNQEn90QrN-163" value="" style="endArrow=ERone;html=1;rounded=0;fontFamily=Helvetica;fontSize=25;targetPerimeterSpacing=100;strokeColor=#FF0000;strokeWidth=2;elbow=vertical;entryX=0;entryY=0.5;entryDx=0;entryDy=0;endFill=0;" edge="1" parent="1" target="PERNU21UyIzNQEn90QrN-97">
          <mxGeometry width="50" height="50" relative="1" as="geometry">
            <mxPoint x="-756" y="-102" as="sourcePoint" />
            <mxPoint x="-560" y="-240" as="targetPoint" />
          </mxGeometry>
        </mxCell>
        <mxCell id="PERNU21UyIzNQEn90QrN-164" value="Enemy" style="shape=table;startSize=41;container=1;collapsible=1;childLayout=tableLayout;fixedRows=1;rowLines=0;fontStyle=1;align=center;resizeLast=1;rounded=0;shadow=0;glass=0;labelBackgroundColor=none;labelBorderColor=none;fontFamily=Helvetica;fontSize=25;strokeColor=#FF0000;strokeWidth=2;fillColor=#FFFF99;" vertex="1" parent="1">
          <mxGeometry x="-230" y="181" width="225" height="201" as="geometry">
            <mxRectangle x="-660" y="400" width="130" height="40" as="alternateBounds" />
          </mxGeometry>
        </mxCell>
        <mxCell id="PERNU21UyIzNQEn90QrN-165" value="" style="shape=tableRow;horizontal=0;startSize=0;swimlaneHead=0;swimlaneBody=0;fillColor=none;collapsible=0;dropTarget=0;points=[[0,0.5],[1,0.5]];portConstraint=eastwest;top=0;left=0;right=0;bottom=1;rounded=0;shadow=0;glass=0;labelBackgroundColor=none;labelBorderColor=none;fontFamily=Helvetica;fontSize=25;strokeColor=#FF0000;strokeWidth=2;" vertex="1" parent="PERNU21UyIzNQEn90QrN-164">
          <mxGeometry y="41" width="225" height="40" as="geometry" />
        </mxCell>
        <mxCell id="PERNU21UyIzNQEn90QrN-166" value="PK" style="shape=partialRectangle;connectable=0;fillColor=none;top=0;left=0;bottom=0;right=0;fontStyle=1;overflow=hidden;rounded=0;shadow=0;glass=0;labelBackgroundColor=none;labelBorderColor=none;fontFamily=Helvetica;fontSize=25;strokeColor=#FF0000;strokeWidth=2;" vertex="1" parent="PERNU21UyIzNQEn90QrN-165">
          <mxGeometry width="85" height="40" as="geometry">
            <mxRectangle width="85" height="40" as="alternateBounds" />
          </mxGeometry>
        </mxCell>
        <mxCell id="PERNU21UyIzNQEn90QrN-167" value="Enemy_id" style="shape=partialRectangle;connectable=0;fillColor=none;top=0;left=0;bottom=0;right=0;align=left;spacingLeft=6;fontStyle=1;overflow=hidden;rounded=0;shadow=0;glass=0;labelBackgroundColor=none;labelBorderColor=none;fontFamily=Helvetica;fontSize=25;strokeColor=#FF0000;strokeWidth=2;" vertex="1" parent="PERNU21UyIzNQEn90QrN-165">
          <mxGeometry x="85" width="140" height="40" as="geometry">
            <mxRectangle width="140" height="40" as="alternateBounds" />
          </mxGeometry>
        </mxCell>
        <mxCell id="PERNU21UyIzNQEn90QrN-168" value="" style="shape=tableRow;horizontal=0;startSize=0;swimlaneHead=0;swimlaneBody=0;fillColor=none;collapsible=0;dropTarget=0;points=[[0,0.5],[1,0.5]];portConstraint=eastwest;top=0;left=0;right=0;bottom=0;rounded=0;shadow=0;glass=0;labelBackgroundColor=none;labelBorderColor=none;fontFamily=Helvetica;fontSize=25;strokeColor=#FF0000;strokeWidth=2;" vertex="1" parent="PERNU21UyIzNQEn90QrN-164">
          <mxGeometry y="81" width="225" height="40" as="geometry" />
        </mxCell>
        <mxCell id="PERNU21UyIzNQEn90QrN-169" value="" style="shape=partialRectangle;connectable=0;fillColor=none;top=0;left=0;bottom=0;right=0;editable=1;overflow=hidden;rounded=0;shadow=0;glass=0;labelBackgroundColor=none;labelBorderColor=none;fontFamily=Helvetica;fontSize=25;strokeColor=#FF0000;strokeWidth=2;" vertex="1" parent="PERNU21UyIzNQEn90QrN-168">
          <mxGeometry width="85" height="40" as="geometry">
            <mxRectangle width="85" height="40" as="alternateBounds" />
          </mxGeometry>
        </mxCell>
        <mxCell id="PERNU21UyIzNQEn90QrN-170" value="Bullets.png" style="shape=partialRectangle;connectable=0;fillColor=none;top=0;left=0;bottom=0;right=0;align=left;spacingLeft=6;overflow=hidden;rounded=0;shadow=0;glass=0;labelBackgroundColor=none;labelBorderColor=none;fontFamily=Helvetica;fontSize=25;strokeColor=#FF0000;strokeWidth=2;" vertex="1" parent="PERNU21UyIzNQEn90QrN-168">
          <mxGeometry x="85" width="140" height="40" as="geometry">
            <mxRectangle width="140" height="40" as="alternateBounds" />
          </mxGeometry>
        </mxCell>
        <mxCell id="PERNU21UyIzNQEn90QrN-171" value="" style="shape=tableRow;horizontal=0;startSize=0;swimlaneHead=0;swimlaneBody=0;fillColor=none;collapsible=0;dropTarget=0;points=[[0,0.5],[1,0.5]];portConstraint=eastwest;top=0;left=0;right=0;bottom=0;rounded=0;shadow=0;glass=0;labelBackgroundColor=none;labelBorderColor=none;fontFamily=Helvetica;fontSize=25;strokeColor=#FF0000;strokeWidth=2;" vertex="1" parent="PERNU21UyIzNQEn90QrN-164">
          <mxGeometry y="121" width="225" height="40" as="geometry" />
        </mxCell>
        <mxCell id="PERNU21UyIzNQEn90QrN-172" value="" style="shape=partialRectangle;connectable=0;fillColor=none;top=0;left=0;bottom=0;right=0;editable=1;overflow=hidden;rounded=0;shadow=0;glass=0;labelBackgroundColor=none;labelBorderColor=none;fontFamily=Helvetica;fontSize=25;strokeColor=#FF0000;strokeWidth=2;" vertex="1" parent="PERNU21UyIzNQEn90QrN-171">
          <mxGeometry width="85" height="40" as="geometry">
            <mxRectangle width="85" height="40" as="alternateBounds" />
          </mxGeometry>
        </mxCell>
        <mxCell id="PERNU21UyIzNQEn90QrN-173" value="Row 2" style="shape=partialRectangle;connectable=0;fillColor=none;top=0;left=0;bottom=0;right=0;align=left;spacingLeft=6;overflow=hidden;rounded=0;shadow=0;glass=0;labelBackgroundColor=none;labelBorderColor=none;fontFamily=Helvetica;fontSize=25;strokeColor=#FF0000;strokeWidth=2;" vertex="1" parent="PERNU21UyIzNQEn90QrN-171">
          <mxGeometry x="85" width="140" height="40" as="geometry">
            <mxRectangle width="140" height="40" as="alternateBounds" />
          </mxGeometry>
        </mxCell>
        <mxCell id="PERNU21UyIzNQEn90QrN-174" value="" style="shape=tableRow;horizontal=0;startSize=0;swimlaneHead=0;swimlaneBody=0;fillColor=none;collapsible=0;dropTarget=0;points=[[0,0.5],[1,0.5]];portConstraint=eastwest;top=0;left=0;right=0;bottom=0;rounded=0;shadow=0;glass=0;labelBackgroundColor=none;labelBorderColor=none;fontFamily=Helvetica;fontSize=25;strokeColor=#FF0000;strokeWidth=2;" vertex="1" parent="PERNU21UyIzNQEn90QrN-164">
          <mxGeometry y="161" width="225" height="40" as="geometry" />
        </mxCell>
        <mxCell id="PERNU21UyIzNQEn90QrN-175" value="" style="shape=partialRectangle;connectable=0;fillColor=none;top=0;left=0;bottom=0;right=0;editable=1;overflow=hidden;rounded=0;shadow=0;glass=0;labelBackgroundColor=none;labelBorderColor=none;fontFamily=Helvetica;fontSize=25;strokeColor=#FF0000;strokeWidth=2;" vertex="1" parent="PERNU21UyIzNQEn90QrN-174">
          <mxGeometry width="85" height="40" as="geometry">
            <mxRectangle width="85" height="40" as="alternateBounds" />
          </mxGeometry>
        </mxCell>
        <mxCell id="PERNU21UyIzNQEn90QrN-176" value="Row 3" style="shape=partialRectangle;connectable=0;fillColor=none;top=0;left=0;bottom=0;right=0;align=left;spacingLeft=6;overflow=hidden;rounded=0;shadow=0;glass=0;labelBackgroundColor=none;labelBorderColor=none;fontFamily=Helvetica;fontSize=25;strokeColor=#FF0000;strokeWidth=2;" vertex="1" parent="PERNU21UyIzNQEn90QrN-174">
          <mxGeometry x="85" width="140" height="40" as="geometry">
            <mxRectangle width="140" height="40" as="alternateBounds" />
          </mxGeometry>
        </mxCell>
        <mxCell id="PERNU21UyIzNQEn90QrN-191" value="Stage" style="shape=table;startSize=40;container=1;collapsible=1;childLayout=tableLayout;fixedRows=1;rowLines=0;fontStyle=1;align=center;resizeLast=1;rounded=0;shadow=0;glass=0;labelBackgroundColor=none;labelBorderColor=none;fontFamily=Helvetica;fontSize=25;strokeColor=#FF0000;strokeWidth=2;fillColor=#FFFF99;" vertex="1" parent="1">
          <mxGeometry x="-495" y="181" width="225" height="200" as="geometry">
            <mxRectangle x="-660" y="400" width="130" height="40" as="alternateBounds" />
          </mxGeometry>
        </mxCell>
        <mxCell id="PERNU21UyIzNQEn90QrN-192" value="" style="shape=tableRow;horizontal=0;startSize=0;swimlaneHead=0;swimlaneBody=0;fillColor=none;collapsible=0;dropTarget=0;points=[[0,0.5],[1,0.5]];portConstraint=eastwest;top=0;left=0;right=0;bottom=1;rounded=0;shadow=0;glass=0;labelBackgroundColor=none;labelBorderColor=none;fontFamily=Helvetica;fontSize=25;strokeColor=#FF0000;strokeWidth=2;" vertex="1" parent="PERNU21UyIzNQEn90QrN-191">
          <mxGeometry y="40" width="225" height="40" as="geometry" />
        </mxCell>
        <mxCell id="PERNU21UyIzNQEn90QrN-193" value="PK" style="shape=partialRectangle;connectable=0;fillColor=none;top=0;left=0;bottom=0;right=0;fontStyle=1;overflow=hidden;rounded=0;shadow=0;glass=0;labelBackgroundColor=none;labelBorderColor=none;fontFamily=Helvetica;fontSize=25;strokeColor=#FF0000;strokeWidth=2;" vertex="1" parent="PERNU21UyIzNQEn90QrN-192">
          <mxGeometry width="65" height="40" as="geometry">
            <mxRectangle width="65" height="40" as="alternateBounds" />
          </mxGeometry>
        </mxCell>
        <mxCell id="PERNU21UyIzNQEn90QrN-194" value="stage_id" style="shape=partialRectangle;connectable=0;fillColor=none;top=0;left=0;bottom=0;right=0;align=left;spacingLeft=6;fontStyle=1;overflow=hidden;rounded=0;shadow=0;glass=0;labelBackgroundColor=none;labelBorderColor=none;fontFamily=Helvetica;fontSize=25;strokeColor=#FF0000;strokeWidth=2;" vertex="1" parent="PERNU21UyIzNQEn90QrN-192">
          <mxGeometry x="65" width="160" height="40" as="geometry">
            <mxRectangle width="160" height="40" as="alternateBounds" />
          </mxGeometry>
        </mxCell>
        <mxCell id="PERNU21UyIzNQEn90QrN-195" value="" style="shape=tableRow;horizontal=0;startSize=0;swimlaneHead=0;swimlaneBody=0;fillColor=none;collapsible=0;dropTarget=0;points=[[0,0.5],[1,0.5]];portConstraint=eastwest;top=0;left=0;right=0;bottom=0;rounded=0;shadow=0;glass=0;labelBackgroundColor=none;labelBorderColor=none;fontFamily=Helvetica;fontSize=25;strokeColor=#FF0000;strokeWidth=2;" vertex="1" parent="PERNU21UyIzNQEn90QrN-191">
          <mxGeometry y="80" width="225" height="40" as="geometry" />
        </mxCell>
        <mxCell id="PERNU21UyIzNQEn90QrN-196" value="" style="shape=partialRectangle;connectable=0;fillColor=none;top=0;left=0;bottom=0;right=0;editable=1;overflow=hidden;rounded=0;shadow=0;glass=0;labelBackgroundColor=none;labelBorderColor=none;fontFamily=Helvetica;fontSize=25;strokeColor=#FF0000;strokeWidth=2;" vertex="1" parent="PERNU21UyIzNQEn90QrN-195">
          <mxGeometry width="65" height="40" as="geometry">
            <mxRectangle width="65" height="40" as="alternateBounds" />
          </mxGeometry>
        </mxCell>
        <mxCell id="PERNU21UyIzNQEn90QrN-197" value="Player" style="shape=partialRectangle;connectable=0;fillColor=none;top=0;left=0;bottom=0;right=0;align=left;spacingLeft=6;overflow=hidden;rounded=0;shadow=0;glass=0;labelBackgroundColor=none;labelBorderColor=none;fontFamily=Helvetica;fontSize=25;strokeColor=#FF0000;strokeWidth=2;" vertex="1" parent="PERNU21UyIzNQEn90QrN-195">
          <mxGeometry x="65" width="160" height="40" as="geometry">
            <mxRectangle width="160" height="40" as="alternateBounds" />
          </mxGeometry>
        </mxCell>
        <mxCell id="PERNU21UyIzNQEn90QrN-198" value="" style="shape=tableRow;horizontal=0;startSize=0;swimlaneHead=0;swimlaneBody=0;fillColor=none;collapsible=0;dropTarget=0;points=[[0,0.5],[1,0.5]];portConstraint=eastwest;top=0;left=0;right=0;bottom=0;rounded=0;shadow=0;glass=0;labelBackgroundColor=none;labelBorderColor=none;fontFamily=Helvetica;fontSize=25;strokeColor=#FF0000;strokeWidth=2;" vertex="1" parent="PERNU21UyIzNQEn90QrN-191">
          <mxGeometry y="120" width="225" height="40" as="geometry" />
        </mxCell>
        <mxCell id="PERNU21UyIzNQEn90QrN-199" value="" style="shape=partialRectangle;connectable=0;fillColor=none;top=0;left=0;bottom=0;right=0;editable=1;overflow=hidden;rounded=0;shadow=0;glass=0;labelBackgroundColor=none;labelBorderColor=none;fontFamily=Helvetica;fontSize=25;strokeColor=#FF0000;strokeWidth=2;" vertex="1" parent="PERNU21UyIzNQEn90QrN-198">
          <mxGeometry width="65" height="40" as="geometry">
            <mxRectangle width="65" height="40" as="alternateBounds" />
          </mxGeometry>
        </mxCell>
        <mxCell id="PERNU21UyIzNQEn90QrN-200" value="Ememy" style="shape=partialRectangle;connectable=0;fillColor=none;top=0;left=0;bottom=0;right=0;align=left;spacingLeft=6;overflow=hidden;rounded=0;shadow=0;glass=0;labelBackgroundColor=none;labelBorderColor=none;fontFamily=Helvetica;fontSize=25;strokeColor=#FF0000;strokeWidth=2;" vertex="1" parent="PERNU21UyIzNQEn90QrN-198">
          <mxGeometry x="65" width="160" height="40" as="geometry">
            <mxRectangle width="160" height="40" as="alternateBounds" />
          </mxGeometry>
        </mxCell>
        <mxCell id="PERNU21UyIzNQEn90QrN-201" value="" style="shape=tableRow;horizontal=0;startSize=0;swimlaneHead=0;swimlaneBody=0;fillColor=none;collapsible=0;dropTarget=0;points=[[0,0.5],[1,0.5]];portConstraint=eastwest;top=0;left=0;right=0;bottom=0;rounded=0;shadow=0;glass=0;labelBackgroundColor=none;labelBorderColor=none;fontFamily=Helvetica;fontSize=25;strokeColor=#FF0000;strokeWidth=2;" vertex="1" parent="PERNU21UyIzNQEn90QrN-191">
          <mxGeometry y="160" width="225" height="40" as="geometry" />
        </mxCell>
        <mxCell id="PERNU21UyIzNQEn90QrN-202" value="" style="shape=partialRectangle;connectable=0;fillColor=none;top=0;left=0;bottom=0;right=0;editable=1;overflow=hidden;rounded=0;shadow=0;glass=0;labelBackgroundColor=none;labelBorderColor=none;fontFamily=Helvetica;fontSize=25;strokeColor=#FF0000;strokeWidth=2;" vertex="1" parent="PERNU21UyIzNQEn90QrN-201">
          <mxGeometry width="65" height="40" as="geometry">
            <mxRectangle width="65" height="40" as="alternateBounds" />
          </mxGeometry>
        </mxCell>
        <mxCell id="PERNU21UyIzNQEn90QrN-203" value="Bullets.png" style="shape=partialRectangle;connectable=0;fillColor=none;top=0;left=0;bottom=0;right=0;align=left;spacingLeft=6;overflow=hidden;rounded=0;shadow=0;glass=0;labelBackgroundColor=none;labelBorderColor=none;fontFamily=Helvetica;fontSize=25;strokeColor=#FF0000;strokeWidth=2;" vertex="1" parent="PERNU21UyIzNQEn90QrN-201">
          <mxGeometry x="65" width="160" height="40" as="geometry">
            <mxRectangle width="160" height="40" as="alternateBounds" />
          </mxGeometry>
        </mxCell>
        <mxCell id="PERNU21UyIzNQEn90QrN-204" value="Player" style="shape=table;startSize=40;container=1;collapsible=1;childLayout=tableLayout;fixedRows=1;rowLines=0;fontStyle=1;align=center;resizeLast=1;rounded=0;shadow=0;glass=0;labelBackgroundColor=none;labelBorderColor=none;fontFamily=Helvetica;fontSize=25;strokeColor=#FF0000;strokeWidth=2;fillColor=#FFFF99;" vertex="1" parent="1">
          <mxGeometry x="-780" y="181" width="245" height="199" as="geometry">
            <mxRectangle x="-660" y="400" width="130" height="40" as="alternateBounds" />
          </mxGeometry>
        </mxCell>
        <mxCell id="PERNU21UyIzNQEn90QrN-205" value="" style="shape=tableRow;horizontal=0;startSize=0;swimlaneHead=0;swimlaneBody=0;fillColor=none;collapsible=0;dropTarget=0;points=[[0,0.5],[1,0.5]];portConstraint=eastwest;top=0;left=0;right=0;bottom=1;rounded=0;shadow=0;glass=0;labelBackgroundColor=none;labelBorderColor=none;fontFamily=Helvetica;fontSize=25;strokeColor=#FF0000;strokeWidth=2;" vertex="1" parent="PERNU21UyIzNQEn90QrN-204">
          <mxGeometry y="40" width="245" height="39" as="geometry" />
        </mxCell>
        <mxCell id="PERNU21UyIzNQEn90QrN-206" value="PK" style="shape=partialRectangle;connectable=0;fillColor=none;top=0;left=0;bottom=0;right=0;fontStyle=1;overflow=hidden;rounded=0;shadow=0;glass=0;labelBackgroundColor=none;labelBorderColor=none;fontFamily=Helvetica;fontSize=25;strokeColor=#FF0000;strokeWidth=2;" vertex="1" parent="PERNU21UyIzNQEn90QrN-205">
          <mxGeometry width="85" height="39" as="geometry">
            <mxRectangle width="85" height="39" as="alternateBounds" />
          </mxGeometry>
        </mxCell>
        <mxCell id="PERNU21UyIzNQEn90QrN-207" value="player_id" style="shape=partialRectangle;connectable=0;fillColor=none;top=0;left=0;bottom=0;right=0;align=left;spacingLeft=6;fontStyle=1;overflow=hidden;rounded=0;shadow=0;glass=0;labelBackgroundColor=none;labelBorderColor=none;fontFamily=Helvetica;fontSize=25;strokeColor=#FF0000;strokeWidth=2;" vertex="1" parent="PERNU21UyIzNQEn90QrN-205">
          <mxGeometry x="85" width="160" height="39" as="geometry">
            <mxRectangle width="160" height="39" as="alternateBounds" />
          </mxGeometry>
        </mxCell>
        <mxCell id="PERNU21UyIzNQEn90QrN-208" value="" style="shape=tableRow;horizontal=0;startSize=0;swimlaneHead=0;swimlaneBody=0;fillColor=none;collapsible=0;dropTarget=0;points=[[0,0.5],[1,0.5]];portConstraint=eastwest;top=0;left=0;right=0;bottom=0;rounded=0;shadow=0;glass=0;labelBackgroundColor=none;labelBorderColor=none;fontFamily=Helvetica;fontSize=25;strokeColor=#FF0000;strokeWidth=2;" vertex="1" parent="PERNU21UyIzNQEn90QrN-204">
          <mxGeometry y="79" width="245" height="40" as="geometry" />
        </mxCell>
        <mxCell id="PERNU21UyIzNQEn90QrN-209" value="" style="shape=partialRectangle;connectable=0;fillColor=none;top=0;left=0;bottom=0;right=0;editable=1;overflow=hidden;rounded=0;shadow=0;glass=0;labelBackgroundColor=none;labelBorderColor=none;fontFamily=Helvetica;fontSize=25;strokeColor=#FF0000;strokeWidth=2;" vertex="1" parent="PERNU21UyIzNQEn90QrN-208">
          <mxGeometry width="85" height="40" as="geometry">
            <mxRectangle width="85" height="40" as="alternateBounds" />
          </mxGeometry>
        </mxCell>
        <mxCell id="PERNU21UyIzNQEn90QrN-210" value="Machine.png" style="shape=partialRectangle;connectable=0;fillColor=none;top=0;left=0;bottom=0;right=0;align=left;spacingLeft=6;overflow=hidden;rounded=0;shadow=0;glass=0;labelBackgroundColor=none;labelBorderColor=none;fontFamily=Helvetica;fontSize=25;strokeColor=#FF0000;strokeWidth=2;" vertex="1" parent="PERNU21UyIzNQEn90QrN-208">
          <mxGeometry x="85" width="160" height="40" as="geometry">
            <mxRectangle width="160" height="40" as="alternateBounds" />
          </mxGeometry>
        </mxCell>
        <mxCell id="PERNU21UyIzNQEn90QrN-211" value="" style="shape=tableRow;horizontal=0;startSize=0;swimlaneHead=0;swimlaneBody=0;fillColor=none;collapsible=0;dropTarget=0;points=[[0,0.5],[1,0.5]];portConstraint=eastwest;top=0;left=0;right=0;bottom=0;rounded=0;shadow=0;glass=0;labelBackgroundColor=none;labelBorderColor=none;fontFamily=Helvetica;fontSize=25;strokeColor=#FF0000;strokeWidth=2;" vertex="1" parent="PERNU21UyIzNQEn90QrN-204">
          <mxGeometry y="119" width="245" height="40" as="geometry" />
        </mxCell>
        <mxCell id="PERNU21UyIzNQEn90QrN-212" value="" style="shape=partialRectangle;connectable=0;fillColor=none;top=0;left=0;bottom=0;right=0;editable=1;overflow=hidden;rounded=0;shadow=0;glass=0;labelBackgroundColor=none;labelBorderColor=none;fontFamily=Helvetica;fontSize=25;strokeColor=#FF0000;strokeWidth=2;" vertex="1" parent="PERNU21UyIzNQEn90QrN-211">
          <mxGeometry width="85" height="40" as="geometry">
            <mxRectangle width="85" height="40" as="alternateBounds" />
          </mxGeometry>
        </mxCell>
        <mxCell id="PERNU21UyIzNQEn90QrN-213" value="Row 2" style="shape=partialRectangle;connectable=0;fillColor=none;top=0;left=0;bottom=0;right=0;align=left;spacingLeft=6;overflow=hidden;rounded=0;shadow=0;glass=0;labelBackgroundColor=none;labelBorderColor=none;fontFamily=Helvetica;fontSize=25;strokeColor=#FF0000;strokeWidth=2;" vertex="1" parent="PERNU21UyIzNQEn90QrN-211">
          <mxGeometry x="85" width="160" height="40" as="geometry">
            <mxRectangle width="160" height="40" as="alternateBounds" />
          </mxGeometry>
        </mxCell>
        <mxCell id="PERNU21UyIzNQEn90QrN-214" value="" style="shape=tableRow;horizontal=0;startSize=0;swimlaneHead=0;swimlaneBody=0;fillColor=none;collapsible=0;dropTarget=0;points=[[0,0.5],[1,0.5]];portConstraint=eastwest;top=0;left=0;right=0;bottom=0;rounded=0;shadow=0;glass=0;labelBackgroundColor=none;labelBorderColor=none;fontFamily=Helvetica;fontSize=25;strokeColor=#FF0000;strokeWidth=2;" vertex="1" parent="PERNU21UyIzNQEn90QrN-204">
          <mxGeometry y="159" width="245" height="40" as="geometry" />
        </mxCell>
        <mxCell id="PERNU21UyIzNQEn90QrN-215" value="" style="shape=partialRectangle;connectable=0;fillColor=none;top=0;left=0;bottom=0;right=0;editable=1;overflow=hidden;rounded=0;shadow=0;glass=0;labelBackgroundColor=none;labelBorderColor=none;fontFamily=Helvetica;fontSize=25;strokeColor=#FF0000;strokeWidth=2;" vertex="1" parent="PERNU21UyIzNQEn90QrN-214">
          <mxGeometry width="85" height="40" as="geometry">
            <mxRectangle width="85" height="40" as="alternateBounds" />
          </mxGeometry>
        </mxCell>
        <mxCell id="PERNU21UyIzNQEn90QrN-216" value="Bullets.png" style="shape=partialRectangle;connectable=0;fillColor=none;top=0;left=0;bottom=0;right=0;align=left;spacingLeft=6;overflow=hidden;rounded=0;shadow=0;glass=0;labelBackgroundColor=none;labelBorderColor=none;fontFamily=Helvetica;fontSize=25;strokeColor=#FF0000;strokeWidth=2;" vertex="1" parent="PERNU21UyIzNQEn90QrN-214">
          <mxGeometry x="85" width="160" height="40" as="geometry">
            <mxRectangle width="160" height="40" as="alternateBounds" />
          </mxGeometry>
        </mxCell>
        <mxCell id="PERNU21UyIzNQEn90QrN-242" value="" style="whiteSpace=wrap;html=1;rounded=0;shadow=0;glass=0;labelBackgroundColor=none;labelBorderColor=none;fontFamily=Helvetica;fontSize=25;strokeWidth=2;fillColor=#f8cecc;strokeColor=#b85450;" vertex="1" parent="1">
          <mxGeometry x="-826" y="1" width="40" height="1167" as="geometry" />
        </mxCell>
        <mxCell id="PERNU21UyIzNQEn90QrN-243" value="" style="whiteSpace=wrap;html=1;rounded=0;shadow=0;glass=0;labelBackgroundColor=none;labelBorderColor=none;fontFamily=Helvetica;fontSize=25;strokeWidth=2;fillColor=#f8cecc;strokeColor=#b85450;" vertex="1" parent="1">
          <mxGeometry x="-826" y="1" width="826" height="40" as="geometry" />
        </mxCell>
        <mxCell id="PERNU21UyIzNQEn90QrN-246" value="" style="whiteSpace=wrap;html=1;aspect=fixed;rounded=0;shadow=0;glass=0;labelBackgroundColor=none;labelBorderColor=none;fontFamily=Helvetica;fontSize=25;strokeWidth=2;fillColor=#f8cecc;strokeColor=#b85450;" vertex="1" parent="1">
          <mxGeometry x="-535" y="181" width="40" height="40" as="geometry" />
        </mxCell>
        <mxCell id="PERNU21UyIzNQEn90QrN-247" value="" style="whiteSpace=wrap;html=1;aspect=fixed;rounded=0;shadow=0;glass=0;labelBackgroundColor=none;labelBorderColor=none;fontFamily=Helvetica;fontSize=25;strokeWidth=2;fillColor=#f8cecc;strokeColor=#b85450;" vertex="1" parent="1">
          <mxGeometry x="-270" y="181" width="40" height="40" as="geometry" />
        </mxCell>
        <mxCell id="PERNU21UyIzNQEn90QrN-252" value="" style="endArrow=none;html=1;rounded=0;fontFamily=Helvetica;fontSize=25;targetPerimeterSpacing=100;strokeColor=#b85450;strokeWidth=2;elbow=vertical;entryX=0.097;entryY=-0.006;entryDx=0;entryDy=0;entryPerimeter=0;exitX=0.097;exitY=0.998;exitDx=0;exitDy=0;exitPerimeter=0;fillColor=#f8cecc;" edge="1" parent="1" source="PERNU21UyIzNQEn90QrN-243" target="PERNU21UyIzNQEn90QrN-243">
          <mxGeometry width="50" height="50" relative="1" as="geometry">
            <mxPoint x="-790" y="60" as="sourcePoint" />
            <mxPoint x="-740" y="10" as="targetPoint" />
          </mxGeometry>
        </mxCell>
        <mxCell id="pUHsTpsuB-CBBN3TRmpc-1" value="" style="endArrow=none;html=1;rounded=0;fontFamily=Helvetica;fontSize=25;targetPerimeterSpacing=100;strokeColor=#b85450;strokeWidth=2;elbow=vertical;entryX=0.146;entryY=0.008;entryDx=0;entryDy=0;exitX=0.146;exitY=1.006;exitDx=0;exitDy=0;exitPerimeter=0;entryPerimeter=0;fillColor=#f8cecc;" edge="1" parent="1" source="PERNU21UyIzNQEn90QrN-243" target="PERNU21UyIzNQEn90QrN-243">
          <mxGeometry width="50" height="50" relative="1" as="geometry">
            <mxPoint x="-740" y="20" as="sourcePoint" />
            <mxPoint x="-690" y="-30" as="targetPoint" />
          </mxGeometry>
        </mxCell>
        <mxCell id="pUHsTpsuB-CBBN3TRmpc-3" value="" style="endArrow=none;html=1;rounded=0;fontFamily=Helvetica;fontSize=25;targetPerimeterSpacing=100;strokeColor=#b85450;strokeWidth=2;elbow=vertical;entryX=0.194;entryY=0.01;entryDx=0;entryDy=0;entryPerimeter=0;exitX=0.195;exitY=0.998;exitDx=0;exitDy=0;exitPerimeter=0;fillColor=#f8cecc;" edge="1" parent="1" source="PERNU21UyIzNQEn90QrN-243" target="PERNU21UyIzNQEn90QrN-243">
          <mxGeometry width="50" height="50" relative="1" as="geometry">
            <mxPoint x="-700" y="30" as="sourcePoint" />
            <mxPoint x="-650" y="-20" as="targetPoint" />
          </mxGeometry>
        </mxCell>
        <mxCell id="pUHsTpsuB-CBBN3TRmpc-7" value="" style="endArrow=none;html=1;rounded=0;fontFamily=Helvetica;fontSize=25;targetPerimeterSpacing=100;strokeColor=#b85450;strokeWidth=2;elbow=vertical;exitX=1;exitY=0;exitDx=0;exitDy=0;fillColor=#f8cecc;" edge="1" parent="1">
          <mxGeometry width="50" height="50" relative="1" as="geometry">
            <mxPoint x="-626" y="40" as="sourcePoint" />
            <mxPoint x="-626" as="targetPoint" />
          </mxGeometry>
        </mxCell>
        <mxCell id="up1LtJOkJjDmjONEM5zQ-1" value="" style="endArrow=none;html=1;rounded=0;fontFamily=Helvetica;fontSize=25;targetPerimeterSpacing=100;strokeColor=#b85450;strokeWidth=2;elbow=vertical;entryX=0.291;entryY=0.004;entryDx=0;entryDy=0;exitX=0.291;exitY=0.988;exitDx=0;exitDy=0;exitPerimeter=0;entryPerimeter=0;fillColor=#f8cecc;" edge="1" parent="1" source="PERNU21UyIzNQEn90QrN-243" target="PERNU21UyIzNQEn90QrN-243">
          <mxGeometry width="50" height="50" relative="1" as="geometry">
            <mxPoint x="-620" y="40" as="sourcePoint" />
            <mxPoint x="-570" y="-10" as="targetPoint" />
          </mxGeometry>
        </mxCell>
        <mxCell id="up1LtJOkJjDmjONEM5zQ-8" value="" style="endArrow=none;html=1;rounded=0;fontFamily=Helvetica;fontSize=25;targetPerimeterSpacing=100;strokeColor=#b85450;strokeWidth=2;elbow=vertical;entryX=0;entryY=1;entryDx=0;entryDy=0;exitX=1.008;exitY=0.018;exitDx=0;exitDy=0;exitPerimeter=0;fillColor=#f8cecc;" edge="1" parent="1">
          <mxGeometry width="50" height="50" relative="1" as="geometry">
            <mxPoint x="-546.6800000000001" y="40.7199999999998" as="sourcePoint" />
            <mxPoint x="-547" as="targetPoint" />
          </mxGeometry>
        </mxCell>
        <mxCell id="up1LtJOkJjDmjONEM5zQ-9" value="" style="endArrow=none;html=1;rounded=0;fontFamily=Helvetica;fontSize=25;targetPerimeterSpacing=100;strokeColor=#b85450;strokeWidth=2;elbow=vertical;entryX=1;entryY=1;entryDx=0;entryDy=0;exitX=1;exitY=0;exitDx=0;exitDy=0;fillColor=#f8cecc;" edge="1" parent="1">
          <mxGeometry width="50" height="50" relative="1" as="geometry">
            <mxPoint x="-507" y="40" as="sourcePoint" />
            <mxPoint x="-507" as="targetPoint" />
          </mxGeometry>
        </mxCell>
        <mxCell id="up1LtJOkJjDmjONEM5zQ-12" value="" style="endArrow=none;html=1;rounded=0;fontFamily=Helvetica;fontSize=25;targetPerimeterSpacing=100;strokeColor=#b85450;strokeWidth=2;elbow=vertical;entryX=0.436;entryY=0.003;entryDx=0;entryDy=0;exitX=0.436;exitY=0.993;exitDx=0;exitDy=0;exitPerimeter=0;fillColor=#f8cecc;entryPerimeter=0;" edge="1" parent="1" source="PERNU21UyIzNQEn90QrN-243" target="PERNU21UyIzNQEn90QrN-243">
          <mxGeometry width="50" height="50" relative="1" as="geometry">
            <mxPoint x="-510" y="50" as="sourcePoint" />
            <mxPoint x="-460" as="targetPoint" />
          </mxGeometry>
        </mxCell>
        <mxCell id="up1LtJOkJjDmjONEM5zQ-14" value="" style="endArrow=none;html=1;rounded=0;fontFamily=Helvetica;fontSize=25;targetPerimeterSpacing=100;strokeColor=#b85450;strokeWidth=2;elbow=vertical;entryX=0.484;entryY=0.01;entryDx=0;entryDy=0;exitX=0.484;exitY=1.005;exitDx=0;exitDy=0;entryPerimeter=0;exitPerimeter=0;fillColor=#f8cecc;" edge="1" parent="1" source="PERNU21UyIzNQEn90QrN-243" target="PERNU21UyIzNQEn90QrN-243">
          <mxGeometry width="50" height="50" relative="1" as="geometry">
            <mxPoint x="-480" y="40" as="sourcePoint" />
            <mxPoint x="-430" y="-10" as="targetPoint" />
          </mxGeometry>
        </mxCell>
        <mxCell id="up1LtJOkJjDmjONEM5zQ-15" value="" style="endArrow=none;html=1;rounded=0;fontFamily=Helvetica;fontSize=25;targetPerimeterSpacing=100;strokeColor=#b85450;strokeWidth=2;elbow=vertical;entryX=0.532;entryY=0.01;entryDx=0;entryDy=0;exitX=0.533;exitY=0.988;exitDx=0;exitDy=0;entryPerimeter=0;exitPerimeter=0;fillColor=#f8cecc;" edge="1" parent="1" source="PERNU21UyIzNQEn90QrN-243" target="PERNU21UyIzNQEn90QrN-243">
          <mxGeometry width="50" height="50" relative="1" as="geometry">
            <mxPoint x="-460" y="40" as="sourcePoint" />
            <mxPoint x="-410" y="-10" as="targetPoint" />
            <Array as="points">
              <mxPoint x="-387" y="40" />
            </Array>
          </mxGeometry>
        </mxCell>
        <mxCell id="up1LtJOkJjDmjONEM5zQ-16" value="" style="endArrow=none;html=1;rounded=0;fontFamily=Helvetica;fontSize=25;targetPerimeterSpacing=100;strokeColor=#b85450;strokeWidth=2;elbow=vertical;entryX=0.581;entryY=0.002;entryDx=0;entryDy=0;entryPerimeter=0;fillColor=#f8cecc;" edge="1" parent="1" target="PERNU21UyIzNQEn90QrN-243">
          <mxGeometry width="50" height="50" relative="1" as="geometry">
            <mxPoint x="-347" y="40" as="sourcePoint" />
            <mxPoint x="-310" as="targetPoint" />
          </mxGeometry>
        </mxCell>
        <mxCell id="up1LtJOkJjDmjONEM5zQ-17" value="" style="endArrow=none;html=1;rounded=0;fontFamily=Helvetica;fontSize=25;targetPerimeterSpacing=100;strokeColor=#b85450;strokeWidth=2;elbow=vertical;entryX=0.63;entryY=0.014;entryDx=0;entryDy=0;exitX=0.63;exitY=1.006;exitDx=0;exitDy=0;exitPerimeter=0;entryPerimeter=0;fillColor=#f8cecc;" edge="1" parent="1" source="PERNU21UyIzNQEn90QrN-243" target="PERNU21UyIzNQEn90QrN-243">
          <mxGeometry width="50" height="50" relative="1" as="geometry">
            <mxPoint x="-360" y="40" as="sourcePoint" />
            <mxPoint x="-310" y="-10" as="targetPoint" />
            <Array as="points">
              <mxPoint x="-307" y="40" />
            </Array>
          </mxGeometry>
        </mxCell>
        <mxCell id="up1LtJOkJjDmjONEM5zQ-18" value="" style="endArrow=none;html=1;rounded=0;fontFamily=Helvetica;fontSize=25;targetPerimeterSpacing=100;strokeColor=#b85450;strokeWidth=2;elbow=vertical;entryX=0.678;entryY=0;entryDx=0;entryDy=0;entryPerimeter=0;fillColor=#f8cecc;" edge="1" parent="1" target="PERNU21UyIzNQEn90QrN-243">
          <mxGeometry width="50" height="50" relative="1" as="geometry">
            <mxPoint x="-267" y="40" as="sourcePoint" />
            <mxPoint x="-230" y="-10" as="targetPoint" />
          </mxGeometry>
        </mxCell>
        <mxCell id="up1LtJOkJjDmjONEM5zQ-19" value="" style="endArrow=none;html=1;rounded=0;fontFamily=Helvetica;fontSize=25;targetPerimeterSpacing=100;strokeColor=#b85450;strokeWidth=2;elbow=vertical;entryX=0.726;entryY=0.007;entryDx=0;entryDy=0;exitX=0.727;exitY=0.997;exitDx=0;exitDy=0;exitPerimeter=0;entryPerimeter=0;fillColor=#f8cecc;" edge="1" parent="1" source="PERNU21UyIzNQEn90QrN-243" target="PERNU21UyIzNQEn90QrN-243">
          <mxGeometry width="50" height="50" relative="1" as="geometry">
            <mxPoint x="-260" y="40" as="sourcePoint" />
            <mxPoint x="-210" y="-10" as="targetPoint" />
          </mxGeometry>
        </mxCell>
        <mxCell id="up1LtJOkJjDmjONEM5zQ-20" value="" style="endArrow=none;html=1;rounded=0;fontFamily=Helvetica;fontSize=25;targetPerimeterSpacing=100;strokeColor=#b85450;strokeWidth=2;elbow=vertical;fillColor=#f8cecc;" edge="1" parent="1">
          <mxGeometry width="50" height="50" relative="1" as="geometry">
            <mxPoint x="-187" y="40" as="sourcePoint" />
            <mxPoint x="-187" as="targetPoint" />
          </mxGeometry>
        </mxCell>
        <mxCell id="up1LtJOkJjDmjONEM5zQ-21" value="" style="endArrow=none;html=1;rounded=0;fontFamily=Helvetica;fontSize=25;targetPerimeterSpacing=100;strokeColor=#b85450;strokeWidth=2;elbow=vertical;entryX=0.823;entryY=0.004;entryDx=0;entryDy=0;entryPerimeter=0;exitX=0.823;exitY=1.015;exitDx=0;exitDy=0;exitPerimeter=0;fillColor=#f8cecc;" edge="1" parent="1" source="PERNU21UyIzNQEn90QrN-243" target="PERNU21UyIzNQEn90QrN-243">
          <mxGeometry width="50" height="50" relative="1" as="geometry">
            <mxPoint x="-180" y="50" as="sourcePoint" />
            <mxPoint x="-130" as="targetPoint" />
          </mxGeometry>
        </mxCell>
        <mxCell id="up1LtJOkJjDmjONEM5zQ-22" value="" style="endArrow=none;html=1;rounded=0;fontFamily=Helvetica;fontSize=25;targetPerimeterSpacing=100;strokeColor=#b85450;strokeWidth=2;elbow=vertical;fillColor=#f8cecc;" edge="1" parent="1">
          <mxGeometry width="50" height="50" relative="1" as="geometry">
            <mxPoint x="-107" y="40" as="sourcePoint" />
            <mxPoint x="-107" as="targetPoint" />
          </mxGeometry>
        </mxCell>
        <mxCell id="up1LtJOkJjDmjONEM5zQ-23" value="" style="endArrow=none;html=1;rounded=0;fontFamily=Helvetica;fontSize=25;targetPerimeterSpacing=100;strokeColor=#b85450;strokeWidth=2;elbow=vertical;entryX=0.92;entryY=-0.001;entryDx=0;entryDy=0;entryPerimeter=0;fillColor=#f8cecc;" edge="1" parent="1" target="PERNU21UyIzNQEn90QrN-243">
          <mxGeometry width="50" height="50" relative="1" as="geometry">
            <mxPoint x="-67" y="40" as="sourcePoint" />
            <mxPoint x="-20" y="-10" as="targetPoint" />
          </mxGeometry>
        </mxCell>
        <mxCell id="up1LtJOkJjDmjONEM5zQ-24" value="" style="endArrow=none;html=1;rounded=0;fontFamily=Helvetica;fontSize=25;targetPerimeterSpacing=100;strokeColor=#b85450;strokeWidth=2;elbow=vertical;entryX=0.969;entryY=0.009;entryDx=0;entryDy=0;entryPerimeter=0;exitX=0.969;exitY=0.994;exitDx=0;exitDy=0;exitPerimeter=0;fillColor=#f8cecc;" edge="1" parent="1" source="PERNU21UyIzNQEn90QrN-243" target="PERNU21UyIzNQEn90QrN-243">
          <mxGeometry width="50" height="50" relative="1" as="geometry">
            <mxPoint x="-50" y="50" as="sourcePoint" />
            <mxPoint as="targetPoint" />
          </mxGeometry>
        </mxCell>
        <mxCell id="up1LtJOkJjDmjONEM5zQ-74" value="" style="endArrow=none;html=1;rounded=0;fontFamily=Helvetica;fontSize=25;targetPerimeterSpacing=100;strokeColor=#b85450;strokeWidth=2;elbow=vertical;entryX=-0.004;entryY=0.137;entryDx=0;entryDy=0;entryPerimeter=0;exitX=0.986;exitY=0.137;exitDx=0;exitDy=0;exitPerimeter=0;fillColor=#f8cecc;" edge="1" parent="1" source="PERNU21UyIzNQEn90QrN-242" target="PERNU21UyIzNQEn90QrN-242">
          <mxGeometry width="50" height="50" relative="1" as="geometry">
            <mxPoint x="-790" y="160" as="sourcePoint" />
            <mxPoint x="-740" y="110" as="targetPoint" />
          </mxGeometry>
        </mxCell>
        <mxCell id="up1LtJOkJjDmjONEM5zQ-76" value="" style="endArrow=none;html=1;rounded=0;fontFamily=Helvetica;fontSize=25;targetPerimeterSpacing=100;strokeColor=#b85450;strokeWidth=2;elbow=vertical;entryX=0.006;entryY=0.171;entryDx=0;entryDy=0;entryPerimeter=0;exitX=0.99;exitY=0.171;exitDx=0;exitDy=0;exitPerimeter=0;fillColor=#f8cecc;" edge="1" parent="1" source="PERNU21UyIzNQEn90QrN-242" target="PERNU21UyIzNQEn90QrN-242">
          <mxGeometry width="50" height="50" relative="1" as="geometry">
            <mxPoint x="-790" y="220" as="sourcePoint" />
            <mxPoint x="-740" y="170" as="targetPoint" />
          </mxGeometry>
        </mxCell>
        <mxCell id="up1LtJOkJjDmjONEM5zQ-85" value="" style="endArrow=none;html=1;rounded=0;fontFamily=Helvetica;fontSize=25;targetPerimeterSpacing=100;strokeColor=#b85450;strokeWidth=2;elbow=vertical;exitX=0.009;exitY=0.24;exitDx=0;exitDy=0;exitPerimeter=0;entryX=0.988;entryY=0.24;entryDx=0;entryDy=0;entryPerimeter=0;fillColor=#f8cecc;" edge="1" parent="1" source="PERNU21UyIzNQEn90QrN-242" target="PERNU21UyIzNQEn90QrN-242">
          <mxGeometry width="50" height="50" relative="1" as="geometry">
            <mxPoint x="-800" y="280" as="sourcePoint" />
            <mxPoint x="-750" y="230" as="targetPoint" />
          </mxGeometry>
        </mxCell>
        <mxCell id="up1LtJOkJjDmjONEM5zQ-90" value="" style="endArrow=none;html=1;rounded=0;fontFamily=Helvetica;fontSize=25;targetPerimeterSpacing=100;strokeColor=#b85450;strokeWidth=2;elbow=vertical;exitX=0.011;exitY=0.206;exitDx=0;exitDy=0;exitPerimeter=0;entryX=0.997;entryY=0.206;entryDx=0;entryDy=0;entryPerimeter=0;fillColor=#f8cecc;" edge="1" parent="1" source="PERNU21UyIzNQEn90QrN-242" target="PERNU21UyIzNQEn90QrN-242">
          <mxGeometry width="50" height="50" relative="1" as="geometry">
            <mxPoint x="-800" y="280" as="sourcePoint" />
            <mxPoint x="-750" y="230" as="targetPoint" />
          </mxGeometry>
        </mxCell>
        <mxCell id="up1LtJOkJjDmjONEM5zQ-91" value="" style="endArrow=none;html=1;rounded=0;fontFamily=Helvetica;fontSize=25;targetPerimeterSpacing=100;strokeColor=#b85450;strokeWidth=2;elbow=vertical;exitX=-0.008;exitY=0.274;exitDx=0;exitDy=0;exitPerimeter=0;entryX=0.997;entryY=0.274;entryDx=0;entryDy=0;entryPerimeter=0;fillColor=#f8cecc;" edge="1" parent="1" source="PERNU21UyIzNQEn90QrN-242" target="PERNU21UyIzNQEn90QrN-242">
          <mxGeometry width="50" height="50" relative="1" as="geometry">
            <mxPoint x="-800" y="330" as="sourcePoint" />
            <mxPoint x="-750" y="280" as="targetPoint" />
            <Array as="points">
              <mxPoint x="-790" y="320" />
            </Array>
          </mxGeometry>
        </mxCell>
        <mxCell id="up1LtJOkJjDmjONEM5zQ-93" value="" style="endArrow=none;html=1;rounded=0;fontFamily=Helvetica;fontSize=25;targetPerimeterSpacing=100;strokeColor=#b85450;strokeWidth=2;elbow=vertical;exitX=0.018;exitY=0.308;exitDx=0;exitDy=0;exitPerimeter=0;entryX=0.992;entryY=0.308;entryDx=0;entryDy=0;entryPerimeter=0;fillColor=#f8cecc;" edge="1" parent="1" source="PERNU21UyIzNQEn90QrN-242" target="PERNU21UyIzNQEn90QrN-242">
          <mxGeometry width="50" height="50" relative="1" as="geometry">
            <mxPoint x="-800" y="390" as="sourcePoint" />
            <mxPoint x="-750" y="340" as="targetPoint" />
          </mxGeometry>
        </mxCell>
        <mxCell id="up1LtJOkJjDmjONEM5zQ-94" value="" style="endArrow=none;html=1;rounded=0;fontFamily=Helvetica;fontSize=25;targetPerimeterSpacing=100;strokeColor=#b85450;strokeWidth=2;elbow=vertical;exitX=0.004;exitY=0.342;exitDx=0;exitDy=0;exitPerimeter=0;entryX=1.006;entryY=0.342;entryDx=0;entryDy=0;entryPerimeter=0;fillColor=#f8cecc;" edge="1" parent="1" source="PERNU21UyIzNQEn90QrN-242" target="PERNU21UyIzNQEn90QrN-242">
          <mxGeometry width="50" height="50" relative="1" as="geometry">
            <mxPoint x="-800" y="420" as="sourcePoint" />
            <mxPoint x="-750" y="370" as="targetPoint" />
          </mxGeometry>
        </mxCell>
        <mxCell id="up1LtJOkJjDmjONEM5zQ-95" value="" style="endArrow=none;html=1;rounded=0;fontFamily=Helvetica;fontSize=25;targetPerimeterSpacing=100;strokeColor=#b85450;strokeWidth=2;elbow=vertical;exitX=0.009;exitY=0.377;exitDx=0;exitDy=0;exitPerimeter=0;entryX=0.997;entryY=0.377;entryDx=0;entryDy=0;entryPerimeter=0;fillColor=#f8cecc;" edge="1" parent="1" source="PERNU21UyIzNQEn90QrN-242" target="PERNU21UyIzNQEn90QrN-242">
          <mxGeometry width="50" height="50" relative="1" as="geometry">
            <mxPoint x="-800" y="450" as="sourcePoint" />
            <mxPoint x="-750" y="400" as="targetPoint" />
          </mxGeometry>
        </mxCell>
        <mxCell id="up1LtJOkJjDmjONEM5zQ-96" value="" style="endArrow=none;html=1;rounded=0;fontFamily=Helvetica;fontSize=25;targetPerimeterSpacing=100;strokeColor=#b85450;strokeWidth=2;elbow=vertical;entryX=0.99;entryY=0.411;entryDx=0;entryDy=0;entryPerimeter=0;exitX=0.009;exitY=0.411;exitDx=0;exitDy=0;exitPerimeter=0;fillColor=#f8cecc;" edge="1" parent="1" source="PERNU21UyIzNQEn90QrN-242" target="PERNU21UyIzNQEn90QrN-242">
          <mxGeometry width="50" height="50" relative="1" as="geometry">
            <mxPoint x="-860" y="490" as="sourcePoint" />
            <mxPoint x="-810" y="440" as="targetPoint" />
          </mxGeometry>
        </mxCell>
        <mxCell id="up1LtJOkJjDmjONEM5zQ-97" value="" style="endArrow=none;html=1;rounded=0;fontFamily=Helvetica;fontSize=25;targetPerimeterSpacing=100;strokeColor=#b85450;strokeWidth=2;elbow=vertical;entryX=0.981;entryY=0.445;entryDx=0;entryDy=0;entryPerimeter=0;exitX=0.009;exitY=0.445;exitDx=0;exitDy=0;exitPerimeter=0;fillColor=#f8cecc;" edge="1" parent="1" source="PERNU21UyIzNQEn90QrN-242" target="PERNU21UyIzNQEn90QrN-242">
          <mxGeometry width="50" height="50" relative="1" as="geometry">
            <mxPoint x="-860" y="540" as="sourcePoint" />
            <mxPoint x="-810" y="490" as="targetPoint" />
          </mxGeometry>
        </mxCell>
        <mxCell id="up1LtJOkJjDmjONEM5zQ-103" value="" style="endArrow=none;html=1;rounded=0;fontFamily=Helvetica;fontSize=25;targetPerimeterSpacing=100;strokeColor=#b85450;strokeWidth=2;elbow=vertical;exitX=0.015;exitY=0.479;exitDx=0;exitDy=0;exitPerimeter=0;entryX=1.005;entryY=0.479;entryDx=0;entryDy=0;entryPerimeter=0;fillColor=#f8cecc;" edge="1" parent="1" source="PERNU21UyIzNQEn90QrN-242" target="PERNU21UyIzNQEn90QrN-242">
          <mxGeometry width="50" height="50" relative="1" as="geometry">
            <mxPoint x="-830" y="590" as="sourcePoint" />
            <mxPoint x="-780" y="540" as="targetPoint" />
          </mxGeometry>
        </mxCell>
        <mxCell id="up1LtJOkJjDmjONEM5zQ-105" value="" style="endArrow=none;html=1;rounded=0;fontFamily=Helvetica;fontSize=25;targetPerimeterSpacing=100;strokeColor=#b85450;strokeWidth=2;elbow=vertical;exitX=0.011;exitY=0.514;exitDx=0;exitDy=0;exitPerimeter=0;fillColor=#f8cecc;entryX=1;entryY=0.513;entryDx=0;entryDy=0;entryPerimeter=0;" edge="1" parent="1" source="PERNU21UyIzNQEn90QrN-242" target="PERNU21UyIzNQEn90QrN-242">
          <mxGeometry width="50" height="50" relative="1" as="geometry">
            <mxPoint x="-837" y="650" as="sourcePoint" />
            <mxPoint x="-787" y="600" as="targetPoint" />
          </mxGeometry>
        </mxCell>
        <mxCell id="up1LtJOkJjDmjONEM5zQ-108" value="" style="endArrow=none;html=1;rounded=0;fontFamily=Helvetica;fontSize=25;targetPerimeterSpacing=100;strokeColor=#b85450;strokeWidth=2;elbow=vertical;entryX=0.997;entryY=0.548;entryDx=0;entryDy=0;entryPerimeter=0;exitX=0.015;exitY=0.548;exitDx=0;exitDy=0;exitPerimeter=0;fillColor=#f8cecc;" edge="1" parent="1" source="PERNU21UyIzNQEn90QrN-242" target="PERNU21UyIzNQEn90QrN-242">
          <mxGeometry width="50" height="50" relative="1" as="geometry">
            <mxPoint x="-820" y="650" as="sourcePoint" />
            <mxPoint x="-770" y="600" as="targetPoint" />
          </mxGeometry>
        </mxCell>
        <mxCell id="up1LtJOkJjDmjONEM5zQ-111" value="" style="endArrow=none;html=1;rounded=0;fontFamily=Helvetica;fontSize=25;targetPerimeterSpacing=100;strokeColor=#b85450;strokeWidth=2;elbow=vertical;entryX=1.007;entryY=0.582;entryDx=0;entryDy=0;entryPerimeter=0;exitX=0.003;exitY=0.582;exitDx=0;exitDy=0;exitPerimeter=0;fillColor=#f8cecc;" edge="1" parent="1" source="PERNU21UyIzNQEn90QrN-242" target="PERNU21UyIzNQEn90QrN-242">
          <mxGeometry width="50" height="50" relative="1" as="geometry">
            <mxPoint x="-830" y="710" as="sourcePoint" />
            <mxPoint x="-780" y="660" as="targetPoint" />
          </mxGeometry>
        </mxCell>
        <mxCell id="CvYGvxfXyqtbtquhtbb6-8" value="" style="endArrow=none;html=1;rounded=0;fontFamily=Helvetica;fontSize=25;targetPerimeterSpacing=100;strokeColor=#b85450;strokeWidth=2;elbow=vertical;exitX=0.009;exitY=0.617;exitDx=0;exitDy=0;exitPerimeter=0;entryX=1.012;entryY=0.617;entryDx=0;entryDy=0;entryPerimeter=0;fillColor=#f8cecc;" edge="1" parent="1" source="PERNU21UyIzNQEn90QrN-242" target="PERNU21UyIzNQEn90QrN-242">
          <mxGeometry width="50" height="50" relative="1" as="geometry">
            <mxPoint x="-830" y="740" as="sourcePoint" />
            <mxPoint x="-780" y="690" as="targetPoint" />
          </mxGeometry>
        </mxCell>
        <mxCell id="CvYGvxfXyqtbtquhtbb6-9" value="" style="endArrow=none;html=1;rounded=0;fontFamily=Helvetica;fontSize=25;targetPerimeterSpacing=100;strokeColor=#b85450;strokeWidth=2;elbow=vertical;exitX=0.008;exitY=0.651;exitDx=0;exitDy=0;exitPerimeter=0;entryX=0.989;entryY=0.651;entryDx=0;entryDy=0;entryPerimeter=0;fillColor=#f8cecc;" edge="1" parent="1" source="PERNU21UyIzNQEn90QrN-242" target="PERNU21UyIzNQEn90QrN-242">
          <mxGeometry width="50" height="50" relative="1" as="geometry">
            <mxPoint x="-830" y="770" as="sourcePoint" />
            <mxPoint x="-780" y="720" as="targetPoint" />
          </mxGeometry>
        </mxCell>
        <mxCell id="CvYGvxfXyqtbtquhtbb6-10" value="" style="endArrow=none;html=1;rounded=0;fontFamily=Helvetica;fontSize=25;targetPerimeterSpacing=100;strokeColor=#b85450;strokeWidth=2;elbow=vertical;exitX=0.008;exitY=0.685;exitDx=0;exitDy=0;exitPerimeter=0;entryX=1;entryY=0.685;entryDx=0;entryDy=0;entryPerimeter=0;fillColor=#f8cecc;" edge="1" parent="1" source="PERNU21UyIzNQEn90QrN-242" target="PERNU21UyIzNQEn90QrN-242">
          <mxGeometry width="50" height="50" relative="1" as="geometry">
            <mxPoint x="-830" y="830" as="sourcePoint" />
            <mxPoint x="-780" y="780" as="targetPoint" />
          </mxGeometry>
        </mxCell>
        <mxCell id="CvYGvxfXyqtbtquhtbb6-13" value="" style="endArrow=none;html=1;rounded=0;fontFamily=Helvetica;fontSize=25;targetPerimeterSpacing=100;strokeColor=#b85450;strokeWidth=2;elbow=vertical;entryX=1.003;entryY=0.719;entryDx=0;entryDy=0;entryPerimeter=0;fillColor=#f8cecc;" edge="1" parent="1" target="PERNU21UyIzNQEn90QrN-242">
          <mxGeometry width="50" height="50" relative="1" as="geometry">
            <mxPoint x="-827" y="840" as="sourcePoint" />
            <mxPoint x="-777" y="790" as="targetPoint" />
          </mxGeometry>
        </mxCell>
        <mxCell id="CvYGvxfXyqtbtquhtbb6-25" value="" style="endArrow=none;html=1;rounded=0;fontFamily=Helvetica;fontSize=25;targetPerimeterSpacing=100;strokeColor=#b85450;strokeWidth=2;elbow=vertical;entryX=-0.001;entryY=0.753;entryDx=0;entryDy=0;entryPerimeter=0;exitX=1.011;exitY=0.753;exitDx=0;exitDy=0;exitPerimeter=0;fillColor=#f8cecc;" edge="1" parent="1" source="PERNU21UyIzNQEn90QrN-242" target="PERNU21UyIzNQEn90QrN-242">
          <mxGeometry width="50" height="50" relative="1" as="geometry">
            <mxPoint x="-870" y="910" as="sourcePoint" />
            <mxPoint x="-820" y="860" as="targetPoint" />
          </mxGeometry>
        </mxCell>
        <mxCell id="CvYGvxfXyqtbtquhtbb6-27" value="" style="endArrow=none;html=1;rounded=0;fontFamily=Helvetica;fontSize=25;targetPerimeterSpacing=100;strokeColor=#b85450;strokeWidth=2;elbow=vertical;exitX=0.011;exitY=0.788;exitDx=0;exitDy=0;exitPerimeter=0;entryX=1.004;entryY=0.788;entryDx=0;entryDy=0;entryPerimeter=0;fillColor=#f8cecc;" edge="1" parent="1" source="PERNU21UyIzNQEn90QrN-242" target="PERNU21UyIzNQEn90QrN-242">
          <mxGeometry width="50" height="50" relative="1" as="geometry">
            <mxPoint x="-840" y="950" as="sourcePoint" />
            <mxPoint x="-790" y="900" as="targetPoint" />
          </mxGeometry>
        </mxCell>
        <mxCell id="CvYGvxfXyqtbtquhtbb6-30" value="" style="endArrow=none;html=1;rounded=0;fontFamily=Helvetica;fontSize=25;targetPerimeterSpacing=100;strokeColor=#b85450;strokeWidth=2;elbow=vertical;exitX=0.011;exitY=0.822;exitDx=0;exitDy=0;exitPerimeter=0;entryX=0.992;entryY=0.822;entryDx=0;entryDy=0;entryPerimeter=0;fillColor=#f8cecc;" edge="1" parent="1" source="PERNU21UyIzNQEn90QrN-242" target="PERNU21UyIzNQEn90QrN-242">
          <mxGeometry width="50" height="50" relative="1" as="geometry">
            <mxPoint x="-830" y="980" as="sourcePoint" />
            <mxPoint x="-780" y="930" as="targetPoint" />
          </mxGeometry>
        </mxCell>
        <mxCell id="CvYGvxfXyqtbtquhtbb6-34" value="" style="endArrow=none;html=1;rounded=0;fontFamily=Helvetica;fontSize=25;targetPerimeterSpacing=100;strokeColor=#b85450;strokeWidth=2;elbow=vertical;entryX=0.993;entryY=0.856;entryDx=0;entryDy=0;entryPerimeter=0;exitX=0.022;exitY=0.856;exitDx=0;exitDy=0;exitPerimeter=0;fillColor=#f8cecc;" edge="1" parent="1" source="PERNU21UyIzNQEn90QrN-242" target="PERNU21UyIzNQEn90QrN-242">
          <mxGeometry width="50" height="50" relative="1" as="geometry">
            <mxPoint x="-840" y="1030" as="sourcePoint" />
            <mxPoint x="-790" y="980" as="targetPoint" />
          </mxGeometry>
        </mxCell>
        <mxCell id="CvYGvxfXyqtbtquhtbb6-35" value="" style="endArrow=none;html=1;rounded=0;fontFamily=Helvetica;fontSize=25;targetPerimeterSpacing=100;strokeColor=#b85450;strokeWidth=2;elbow=vertical;entryX=0.033;entryY=0.891;entryDx=0;entryDy=0;entryPerimeter=0;exitX=0.997;exitY=0.891;exitDx=0;exitDy=0;exitPerimeter=0;fillColor=#f8cecc;" edge="1" parent="1" source="PERNU21UyIzNQEn90QrN-242" target="PERNU21UyIzNQEn90QrN-242">
          <mxGeometry width="50" height="50" relative="1" as="geometry">
            <mxPoint x="-790" y="1050" as="sourcePoint" />
            <mxPoint x="-740" y="1000" as="targetPoint" />
          </mxGeometry>
        </mxCell>
        <mxCell id="CvYGvxfXyqtbtquhtbb6-37" value="" style="endArrow=none;html=1;rounded=0;fontFamily=Helvetica;fontSize=25;targetPerimeterSpacing=100;strokeColor=#b85450;strokeWidth=2;elbow=vertical;exitX=0.009;exitY=0.925;exitDx=0;exitDy=0;exitPerimeter=0;entryX=1.001;entryY=0.925;entryDx=0;entryDy=0;entryPerimeter=0;fillColor=#f8cecc;" edge="1" parent="1" source="PERNU21UyIzNQEn90QrN-242" target="PERNU21UyIzNQEn90QrN-242">
          <mxGeometry width="50" height="50" relative="1" as="geometry">
            <mxPoint x="-790" y="1100" as="sourcePoint" />
            <mxPoint x="-740" y="1050" as="targetPoint" />
          </mxGeometry>
        </mxCell>
        <mxCell id="CvYGvxfXyqtbtquhtbb6-38" value="" style="endArrow=none;html=1;rounded=0;fontFamily=Helvetica;fontSize=25;targetPerimeterSpacing=100;strokeColor=#b85450;strokeWidth=2;elbow=vertical;exitX=0.005;exitY=0.959;exitDx=0;exitDy=0;exitPerimeter=0;entryX=0.989;entryY=0.959;entryDx=0;entryDy=0;entryPerimeter=0;fillColor=#f8cecc;" edge="1" parent="1" source="PERNU21UyIzNQEn90QrN-242" target="PERNU21UyIzNQEn90QrN-242">
          <mxGeometry width="50" height="50" relative="1" as="geometry">
            <mxPoint x="-790" y="1130" as="sourcePoint" />
            <mxPoint x="-740" y="1080" as="targetPoint" />
          </mxGeometry>
        </mxCell>
        <mxCell id="CvYGvxfXyqtbtquhtbb6-46" value="" style="endArrow=none;html=1;rounded=0;fontFamily=Helvetica;fontSize=25;targetPerimeterSpacing=100;strokeColor=#b85450;strokeWidth=2;elbow=vertical;entryX=-0.004;entryY=0.137;entryDx=0;entryDy=0;entryPerimeter=0;exitX=0.986;exitY=0.137;exitDx=0;exitDy=0;exitPerimeter=0;fillColor=#f8cecc;" edge="1" parent="1">
          <mxGeometry width="50" height="50" relative="1" as="geometry">
            <mxPoint x="-786.4000000000002" y="119.99899999999991" as="sourcePoint" />
            <mxPoint x="-826" y="119.99899999999991" as="targetPoint" />
          </mxGeometry>
        </mxCell>
        <mxCell id="CvYGvxfXyqtbtquhtbb6-47" value="" style="endArrow=none;html=1;rounded=0;fontFamily=Helvetica;fontSize=25;targetPerimeterSpacing=100;strokeColor=#b85450;strokeWidth=2;elbow=vertical;entryX=-0.004;entryY=0.137;entryDx=0;entryDy=0;entryPerimeter=0;exitX=0.986;exitY=0.137;exitDx=0;exitDy=0;exitPerimeter=0;fillColor=#f8cecc;" edge="1" parent="1">
          <mxGeometry width="50" height="50" relative="1" as="geometry">
            <mxPoint x="-786.4000000000002" y="79.9989999999998" as="sourcePoint" />
            <mxPoint x="-826.0000000000001" y="79.9989999999998" as="targetPoint" />
          </mxGeometry>
        </mxCell>
        <mxCell id="CvYGvxfXyqtbtquhtbb6-51" value="" style="endArrow=none;html=1;rounded=0;fontFamily=Helvetica;fontSize=25;targetPerimeterSpacing=100;strokeColor=#b85450;strokeWidth=2;elbow=vertical;exitX=0.048;exitY=1.005;exitDx=0;exitDy=0;exitPerimeter=0;entryX=0.048;entryY=0.003;entryDx=0;entryDy=0;entryPerimeter=0;fillColor=#f8cecc;" edge="1" parent="1" source="PERNU21UyIzNQEn90QrN-243" target="PERNU21UyIzNQEn90QrN-243">
          <mxGeometry width="50" height="50" relative="1" as="geometry">
            <mxPoint x="-840" y="50" as="sourcePoint" />
            <mxPoint x="-790" as="targetPoint" />
          </mxGeometry>
        </mxCell>
      </root>
    </mxGraphModel>
  </diagram>
</mxfile>
